<?xml version="1.0" encoding="UTF-8" standalone="no"?>
<!-- Created with Inkscape (http://www.inkscape.org/) -->

<svg
   width="210mm"
   height="297mm"
   viewBox="0 0 210 297"
   version="1.1"
   id="svg438"
   xml:space="preserve"
   inkscape:version="1.2.2 (732a01da63, 2022-12-09)"
   sodipodi:docname="LETERHEAD - Copy (4).svg"
   inkscape:export-filename="LETERHEAD_bluegreen.pdf"
   inkscape:export-xdpi="1998.6"
   inkscape:export-ydpi="1998.6"
   xmlns:inkscape="http://www.inkscape.org/namespaces/inkscape"
   xmlns:sodipodi="http://sodipodi.sourceforge.net/DTD/sodipodi-0.dtd"
   xmlns:xlink="http://www.w3.org/1999/xlink"
   xmlns="http://www.w3.org/2000/svg"
   xmlns:svg="http://www.w3.org/2000/svg"><sodipodi:namedview
     id="namedview440"
     pagecolor="#ffffff"
     bordercolor="#000000"
     borderopacity="0.25"
     inkscape:showpageshadow="2"
     inkscape:pageopacity="1"
     inkscape:pagecheckerboard="0"
     inkscape:deskcolor="#d6d6d6"
     inkscape:document-units="mm"
     showgrid="false"
     inkscape:zoom="1"
     inkscape:cx="133"
     inkscape:cy="170"
     inkscape:window-width="1920"
     inkscape:window-height="1009"
     inkscape:window-x="-8"
     inkscape:window-y="-8"
     inkscape:window-maximized="1"
     inkscape:current-layer="layer1"
     showguides="true" /><defs
     id="defs435"><linearGradient
       inkscape:collect="always"
       id="linearGradient4856"><stop
         style="stop-color:#333544;stop-opacity:1;"
         offset="0"
         id="stop4852" /><stop
         style="stop-color:#ffffff;stop-opacity:0;"
         offset="1"
         id="stop4854" /></linearGradient><linearGradient
       inkscape:collect="always"
       id="linearGradient4848"><stop
         style="stop-color:#3ba2f1;stop-opacity:1;"
         offset="0"
         id="stop4844" /><stop
         style="stop-color:#ffffff;stop-opacity:0;"
         offset="1"
         id="stop4846" /></linearGradient><rect
       x="78.488853"
       y="917.1175"
       width="37.476659"
       height="33.941126"
       id="rect2300" /><rect
       x="895.21117"
       y="-53.105747"
       width="632.52738"
       height="243.71745"
       id="rect81773" /><rect
       x="598.62506"
       y="16.358467"
       width="87.00808"
       height="100.5216"
       id="rect11853" /><rect
       x="610.71613"
       y="92.935059"
       width="170.69705"
       height="18.966339"
       id="rect11847" /><rect
       x="148.88576"
       y="33.191093"
       width="436.2258"
       height="77.761986"
       id="rect11597" /><rect
       x="610.21082"
       y="116.67767"
       width="142.159"
       height="113.99543"
       id="rect28960" /><clipPath
       clipPathUnits="userSpaceOnUse"
       id="clipPath364"><path
         d="M 0,0 H 5185 V 1728 H 0 Z"
         id="path362" /></clipPath><clipPath
       clipPathUnits="userSpaceOnUse"
       id="clipPath668"><path
         d="M 0,0 H 5185 V 1728 H 0 Z"
         id="path666" /></clipPath><linearGradient
       inkscape:collect="always"
       id="linearGradient14071"><stop
         style="stop-color:#23efe4;stop-opacity:0.25490198;"
         offset="0"
         id="stop14067" /><stop
         style="stop-color:#ffffff;stop-opacity:0.3019608;"
         offset="1"
         id="stop14069" /></linearGradient><linearGradient
       inkscape:collect="always"
       xlink:href="#linearGradient14071"
       id="linearGradient14073-6"
       x1="39.501331"
       y1="295.88428"
       x2="93.848785"
       y2="300.09576"
       gradientUnits="userSpaceOnUse"
       gradientTransform="matrix(1.1434887,0.02288473,0.02206617,1.7224754,-76.432407,-333.36377)" /><clipPath
       clipPathUnits="userSpaceOnUse"
       id="clipPath668-6"><path
         d="M 0,0 H 5185 V 1728 H 0 Z"
         id="path666-2" /></clipPath><linearGradient
       inkscape:collect="always"
       xlink:href="#linearGradient4848"
       id="linearGradient4850"
       x1="117.88221"
       y1="27.413971"
       x2="100.62851"
       y2="49.621044"
       gradientUnits="userSpaceOnUse"
       gradientTransform="matrix(3.3701004,3.8721711,-2.6899276,5.5306222,-240.1309,-528.99394)" /><linearGradient
       inkscape:collect="always"
       xlink:href="#linearGradient4856"
       id="linearGradient4858-9"
       x1="125.26546"
       y1="20.233875"
       x2="62.817642"
       y2="30.083168"
       gradientUnits="userSpaceOnUse"
       gradientTransform="matrix(2.2224597,2.5555768,-1.7739102,3.6501305,-139.01255,-323.34716)" /><linearGradient
       inkscape:collect="always"
       xlink:href="#linearGradient4864"
       id="linearGradient4866"
       x1="76.907982"
       y1="27.515221"
       x2="62.167774"
       y2="40.072067"
       gradientUnits="userSpaceOnUse"
       gradientTransform="matrix(0.99699813,2.5100405e-4,2.8616933e-4,0.99715622,51.759348,10.407282)" /><linearGradient
       inkscape:collect="always"
       id="linearGradient4864"><stop
         style="stop-color:#24f0e2;stop-opacity:1;"
         offset="0"
         id="stop4860" /><stop
         style="stop-color:#ffffff;stop-opacity:0;"
         offset="1"
         id="stop4862" /></linearGradient></defs><g
     inkscape:label="Layer 1"
     inkscape:groupmode="layer"
     id="layer1"><g
       id="g14910"
       transform="matrix(0.97368322,0,0,0.98916994,76.286071,55.712722)"><rect
         style="fill:#0971c3;fill-opacity:0.890196;stroke-width:0.0410001"
         id="rect4759"
         width="0.06614583"
         height="0.9921875"
         x="81.795502"
         y="34.426125"
         ry="0.033072915" /></g><path
       id="path4656-5-4-3"
       style="opacity:0.255102;fill:url(#linearGradient4858-9);fill-opacity:1;stroke-width:0.146166"
       inkscape:transform-center-x="-12.368377"
       inkscape:transform-center-y="2.536299"
       d="m -0.66904625,-0.35424765 0.0486128,28.79093065 0.13082765,0.11779 v -0.0119 L 43.550354,63.984533 73.949536,33.498042 31.423149,-0.3542517 Z" /><path
       id="path4656-5"
       style="opacity:0.255102;fill:url(#linearGradient4850);fill-opacity:1;stroke-width:0.221043"
       inkscape:transform-center-x="-18.684611"
       inkscape:transform-center-y="3.8396208"
       d="M 73.9478,33.500359 39.994568,67.506795 C 26.48266,81.04767 13.130292,94.942364 -0.36670629,108.48485 l 0.011924,68.30957 L 111.97797,63.841365 Z"
       sodipodi:nodetypes="cccccc" /><path
       sodipodi:type="star"
       style="opacity:0.255102;fill:url(#linearGradient4866);fill-opacity:1;stroke-width:0.0410001"
       id="path4656-5-4-2"
       inkscape:flatsided="true"
       sodipodi:sides="3"
       sodipodi:cx="128.58749"
       sodipodi:cy="36.909374"
       sodipodi:r1="17.400251"
       sodipodi:r2="8.7001257"
       sodipodi:arg1="1.418147"
       sodipodi:arg2="2.4653445"
       inkscape:rounded="2.5326963e-16"
       inkscape:randomized="3.469447e-18"
       d="M 131.23333,54.10729 112.37075,30.601775 142.15841,26.019057 Z"
       inkscape:transform-center-x="-7.3184768"
       inkscape:transform-center-y="1.5178353"
       transform="matrix(1.3208931,1.5302623,-1.054303,2.1856737,-116.82575,-210.44693)" /><path
       sodipodi:type="star"
       style="fill:url(#linearGradient14073-6);fill-opacity:1;stroke-width:0.0410001"
       id="path11619-9-1"
       inkscape:flatsided="true"
       sodipodi:sides="3"
       sodipodi:cx="6.3870964"
       sodipodi:cy="183.2742"
       sodipodi:r1="24.561529"
       sodipodi:r2="12.280765"
       sodipodi:arg1="1.0068372"
       sodipodi:arg2="2.0540347"
       inkscape:rounded="2.5326963e-16"
       inkscape:randomized="3.469447e-18"
       d="M 19.516128,204.03226 -18.154431,184.26524 17.799592,161.52509 Z"
       inkscape:transform-center-x="6.225739"
       inkscape:transform-center-y="0.012344359"
       transform="matrix(1.0172658,-0.04340173,-0.03871143,-1.0997212,198.35842,226.70119)" /><path
       d="m 34.570336,25.249433 c -0.08012,-0.05996 -0.120507,-0.241595 -0.13075,-0.58798 l -0.01471,-0.501171 -0.333195,-0.09278 c -0.740394,-0.206274 -1.048064,-0.523583 -1.064997,-1.098169 -0.009,-0.301835 0.02405,-0.397131 0.196003,-0.567492 0.221108,-0.219027 0.221273,-0.21844 -0.172132,-0.486819 -0.544721,-0.371624 -0.699507,-1.28956 -0.269264,-1.596942 0.09011,-0.06435 0.163128,-0.141285 0.162301,-0.17095 -0.0012,-0.02967 -0.17692,-0.194057 -0.391175,-0.365327 -0.665232,-0.531798 -0.748323,-0.665881 -0.768476,-1.240631 -0.01628,-0.462861 0.0022,-0.530088 0.212189,-0.776378 0.126455,-0.148328 0.336251,-0.345373 0.466091,-0.437891 l 0.23606,-0.168178 -0.309406,-0.230228 c -0.170233,-0.126616 -0.409018,-0.361486 -0.530683,-0.521926 -0.195754,-0.258299 -0.223754,-0.361967 -0.244236,-0.905131 -0.02008,-0.531955 0.0014,-0.650085 0.160567,-0.889546 0.101098,-0.151905 0.290575,-0.34484 0.421074,-0.428767 0.230033,-0.147903 0.309819,-0.293618 0.159743,-0.29175 -0.04039,4.37e-4 -0.281984,-0.12672 -0.536958,-0.282733 -0.70719,-0.432823 -1.088456,-1.191541 -0.818119,-1.627991 l 0.120428,-0.194481 -0.310893,-0.156814 c -0.30503,-0.153828 -0.475507,-0.319283 -0.729493,-0.708301 l -0.127361,-0.19496 -0.416038,0.09161 c -0.398693,0.08777 -0.434541,0.08712 -0.853799,-0.01544 -0.27422,-0.06711 -0.61146,-0.103724 -0.903191,-0.09806 -0.327328,0.0064 -0.58503,-0.02652 -0.86784,-0.110661 -0.221186,-0.06589 -0.567512,-0.123993 -0.769458,-0.129221 -0.246055,-0.0064 -0.521515,-0.06809 -0.834471,-0.187014 -0.333523,-0.126774 -0.567685,-0.177087 -0.818282,-0.175806 -0.396627,0.0021 -1.047403,-0.1926145 -1.392326,-0.4164941 L 22.87841,9.5428137 23.335663,9.470782 c 0.557112,-0.08777 2.031458,-0.5872335 3.026164,-1.0252316 0.403646,-0.1777271 1.247699,-0.5507375 1.875596,-0.8289345 1.400915,-0.6206358 1.506722,-0.6573963 2.150312,-0.747409 1.490121,-0.20846 2.682315,0.2208943 2.898141,1.0438007 0.08326,0.3171453 -0.04675,0.5975318 -0.399682,0.8622275 -0.149335,0.1119957 -0.270917,0.2254292 -0.27009,0.252055 7.61e-4,0.026678 0.121993,0.1115139 0.269429,0.1886121 0.21665,0.1133265 0.323117,0.1337083 0.555048,0.106444 0.434868,-0.05106 0.500367,-0.1272528 0.494421,-0.5750142 -0.0039,-0.3017816 -0.0484,-0.4526179 -0.182953,-0.6206886 -0.368294,-0.4602473 -0.179646,-0.9575226 0.447343,-1.1792172 0.848925,-0.3001784 1.782344,-0.022675 1.902441,0.5656254 0.03362,0.1646029 -0.0083,0.3009813 -0.163707,0.5318507 -0.18361,0.2728628 -0.204426,0.3669812 -0.171468,0.7759 l 0.03758,0.4654234 0.388448,0.01137 c 0.357148,0.010467 0.88923,-0.1076174 0.88659,-0.1968289 -4.62e-4,-0.018471 -0.09045,-0.1067646 -0.199802,-0.1962959 -0.48773,-0.3991548 -0.547942,-1.0559095 -0.134712,-1.470165 0.512756,-0.514083 1.220278,-0.6885025 2.274701,-0.5608216 0.968029,0.1172205 1.37663,0.2681649 3.749378,1.3851684 0.568016,0.2673655 1.521092,0.6593183 2.118018,0.8709276 1.032866,0.3661274 1.106213,0.383468 1.518202,0.3586036 0.398113,-0.024063 0.433216,-0.016918 0.436359,0.088678 0.0046,0.156546 -0.509374,0.5476971 -0.894275,0.6805521 -0.173284,0.05981 -0.460717,0.110555 -0.638716,0.11274 -0.177995,0.0022 -0.53316,0.06909 -0.789206,0.148649 -0.378952,0.117759 -0.534809,0.138834 -0.83827,0.113223 -0.264476,-0.02231 -0.424958,-0.0085 -0.552568,0.04786 -0.204265,0.09012 -0.706864,0.160601 -1.370772,0.192187 -1.366473,0.06503 -1.824719,0.09557 -1.898477,0.126239 -0.0451,0.01878 -0.131656,0.115248 -0.192365,0.214438 -0.12249,0.200031 -0.451226,0.446532 -0.793587,0.595076 -0.206077,0.08937 -0.223505,0.124961 -0.214335,0.436397 0.01405,0.476681 -0.244488,0.846545 -0.919874,1.316023 l -0.538202,0.374076 0.348311,0.258617 c 0.518458,0.384906 0.686704,0.650725 0.702315,1.109905 0.02444,0.716836 -0.236636,1.1241 -1.002636,1.563593 l -0.385312,0.221106 0.258775,0.172127 c 0.61212,0.407101 0.666633,0.493433 0.678445,1.074156 0.01332,0.656222 -0.115221,0.854066 -0.823072,1.267307 -0.45337,0.264699 -0.608074,0.431273 -0.398032,0.428713 0.0479,-6.64e-4 0.18609,0.135792 0.307012,0.303063 0.381348,0.527474 0.230937,1.082642 -0.429582,1.586426 -0.173207,0.132108 -0.314532,0.25344 -0.314034,0.269662 3.07e-4,0.01617 0.09631,0.116742 0.213099,0.223451 0.171801,0.156976 0.214171,0.25915 0.222267,0.535908 0.01776,0.601533 -0.548437,1.090647 -1.27289,1.099555 l -0.239367,0.003 -0.03866,0.598704 c -0.03544,0.549567 -0.09037,0.6797 -0.289419,0.685302 -0.02842,8.63e-4 -0.103909,-0.0376 -0.167671,-0.08542 z m 0.217562,-1.385115 c -0.02296,-0.778996 -0.06477,-1.196773 -0.119604,-1.196077 -0.05525,6.64e-4 -0.06806,0.42375 -0.03709,1.227233 0.02692,0.69683 0.07855,1.213207 0.119602,1.196132 0.0398,-0.0166 0.0565,-0.568826 0.03709,-1.227288 z m -0.386469,-0.628586 c -0.02379,-0.471346 -0.135459,-0.564824 -0.345667,-0.289508 -0.150571,0.197202 -0.09325,0.555114 0.131493,0.821198 l 0.134468,0.159159 0.05056,-0.134028 c 0.02783,-0.07374 0.04097,-0.324297 0.02916,-0.556821 z m 0.957867,0.494823 c 0.113242,-0.143155 0.08839,-0.662522 -0.03534,-0.739512 -0.188237,-0.11701 -0.220946,-0.06216 -0.234328,0.39259 -0.0098,0.330006 0.01393,0.453525 0.08697,0.452511 0.05516,-8.61e-4 0.137355,-0.04824 0.1827,-0.105589 z m 0.664986,-0.261073 c 0.514162,-0.560981 0.299162,-0.984092 -0.763273,-1.502285 -0.08805,-0.04295 -0.313782,-0.152969 -0.501607,-0.244529 -0.187825,-0.09151 -0.448168,-0.261922 -0.578505,-0.378664 -0.209221,-0.187334 -0.234081,-0.249227 -0.2112,-0.526838 l 0.02593,-0.31464 -0.347566,-0.136162 c -0.191211,-0.07485 -0.407779,-0.135364 -0.48137,-0.134511 -0.351862,0.0044 -0.509951,0.693465 -0.247377,1.078641 0.251837,0.369435 1.022709,0.785824 1.822321,0.984363 0.417938,0.103776 0.902947,0.430368 0.975708,0.656968 0.06022,0.1876 0.03096,0.457952 -0.07781,0.718437 -0.05013,0.12021 -0.04195,0.126397 0.07913,0.0597 0.07426,-0.04088 0.211777,-0.158094 0.305608,-0.260484 z m -2.37886,-0.03666 c -0.07623,-0.35743 -0.0012,-0.592143 0.246883,-0.771685 0.243492,-0.176236 0.206654,-0.288121 -0.110514,-0.335394 -0.184686,-0.02754 -0.260178,-0.0052 -0.418517,0.123626 -0.171138,0.139311 -0.187907,0.197683 -0.147432,0.511788 0.03131,0.242714 0.10539,0.414413 0.234819,0.544121 0.104072,0.104259 0.202941,0.189361 0.21979,0.189147 0.01693,-2.62e-4 0.0055,-0.117917 -0.02502,-0.261603 z m 2.413303,-1.728941 c 0.42157,-0.25509 0.628227,-0.556442 0.618064,-0.901439 -0.01511,-0.511363 -0.515893,-0.940451 -1.566023,-1.341579 -0.606094,-0.231511 -1.192363,-0.552661 -1.348054,-0.738446 -0.191956,-0.229002 -0.166268,-0.585633 0.05822,-0.808285 0.223837,-0.222122 0.230195,-0.215932 -0.525396,-0.508589 -0.508793,-0.196988 -0.543731,-0.188079 -0.874943,0.223509 -0.317584,0.394619 -0.345996,0.79975 -0.08995,1.282513 0.167753,0.316239 0.284956,0.431863 0.716109,0.706696 0.312712,0.199283 0.722306,0.39286 1.041047,0.49194 1.027579,0.319335 1.532079,0.73583 1.246706,1.029237 -0.07203,0.074 -0.124056,0.243033 -0.119765,0.388854 0.0129,0.438372 0.308168,0.499839 0.843972,0.175595 z m -1.169894,-0.332457 c 0.0047,-0.440078 -0.08036,-0.626078 -0.285453,-0.62357 -0.111588,0.0014 -0.0664,0.71689 0.04989,0.789239 0.175023,0.108845 0.233006,0.06803 0.235568,-0.165669 z m -0.542,-0.500315 c -0.03553,-0.08853 -0.04024,-0.08848 -0.09746,0.0012 -0.03312,0.05181 -0.03065,0.135789 0.0055,0.186745 0.06251,0.08815 0.06723,0.08809 0.09746,-0.0012 0.0175,-0.05155 0.01503,-0.135577 -0.0055,-0.186693 z m 2.117853,-1.306843 c 0.573303,-0.234982 0.916157,-0.661614 0.953325,-1.186263 0.02504,-0.35252 0.0034,-0.417936 -0.23746,-0.719395 -0.145702,-0.18237 -0.351615,-0.380265 -0.457586,-0.439703 -0.27711,-0.155535 -1.479713,-0.662575 -1.822983,-0.768593 -0.160486,-0.04956 -0.527377,-0.18664 -0.815309,-0.304663 -0.449818,-0.184341 -0.547777,-0.253919 -0.696121,-0.494604 -0.281985,-0.457528 -0.235401,-0.776168 0.155529,-1.064505 0.223423,-0.164709 0.142479,-0.247838 -0.407368,-0.418521 l -0.473604,-0.147047 -0.28347,0.216944 c -0.440239,0.336994 -0.583296,0.616418 -0.568677,1.111133 0.01081,0.366983 0.04989,0.4762 0.274221,0.765495 0.305852,0.394567 0.875192,0.762134 1.566686,1.011575 1.047157,0.377652 1.895258,0.754237 2.047895,0.909234 0.08787,0.08921 0.162627,0.253225 0.166017,0.36442 0.0066,0.212676 -0.211778,0.559808 -0.427936,0.680286 -0.215325,0.119999 -0.138924,0.257229 0.233503,0.419165 0.424709,0.184663 0.488723,0.189892 0.793338,0.06503 z m -1.495573,-0.795431 c 0.0039,-0.721477 -0.0014,-0.737163 -0.272978,-0.823758 l -0.250186,-0.07971 0.01655,0.55938 c 0.01496,0.507253 0.03369,0.569415 0.200873,0.666308 0.101509,0.05874 0.211283,0.08836 0.244154,0.06573 0.0328,-0.02258 0.06055,-0.197147 0.06162,-0.387948 z M 35.49013,18.59276 c 0.0077,-0.291694 -0.160236,-0.255735 -0.179812,0.03847 -0.01366,0.206221 0.0042,0.252428 0.07872,0.202914 0.05302,-0.03527 0.09846,-0.143901 0.1011,-0.241383 z m -1.261492,-0.30482 c -0.122078,-0.07587 -0.2093,0.14406 -0.127778,0.322003 0.06394,0.139522 0.06649,0.138351 0.13934,-0.06327 0.04939,-0.136804 0.04551,-0.223187 -0.01156,-0.258721 z m 2.571141,-1.754979 c 0.679767,-0.335396 0.994625,-0.773177 0.988264,-1.374232 -0.0026,-0.243676 -0.05345,-0.408758 -0.17122,-0.55506 -0.161229,-0.200298 -0.879737,-0.712779 -0.997355,-0.711339 -0.0314,4.35e-4 -0.298335,-0.09064 -0.593201,-0.202326 -0.300654,-0.11386 -0.968611,-0.28593 -1.520601,-0.391736 -1.112079,-0.213157 -1.852056,-0.463663 -2.227871,-0.754239 -0.204344,-0.15804 -0.264888,-0.261924 -0.300982,-0.516644 -0.04758,-0.335983 0.01437,-0.38939 0.257701,-0.222225 0.33881,0.232789 1.166424,0.15489 1.514651,-0.142515 0.183199,-0.156495 0.162714,-0.268326 -0.05939,-0.324564 -0.607578,-0.153825 -1.324681,-0.09321 -1.867007,0.157773 -0.686789,0.317841 -0.869906,0.840725 -0.465351,1.32888 0.381431,0.460299 0.912526,0.706057 2.713373,1.255676 1.515975,0.462699 1.789039,0.571919 2.027742,0.811113 0.327905,0.32862 0.143138,0.846436 -0.426195,1.194157 -0.31709,0.193626 -0.344923,0.277076 -0.13125,0.393178 0.196744,0.106925 0.620383,0.242663 0.76022,0.243623 0.06211,4.35e-4 0.28636,-0.0849 0.498466,-0.18952 z m -4.215965,-5.024943 c -0.104237,-0.06483 0.02668,-0.127947 0.271577,-0.130988 0.133559,-0.0016 0.243576,0.02102 0.244402,0.05036 0.0012,0.02935 -0.05113,0.05399 -0.115471,0.05479 -0.06442,8.61e-4 -0.168249,0.01485 -0.230608,0.03116 -0.06245,0.01637 -0.138847,0.01397 -0.1699,-0.0054 z m 2.494078,4.04848 c 0.03906,-0.696509 0.03749,-0.704243 -0.157509,-0.797672 -0.25539,-0.122345 -0.489383,-0.168175 -0.563061,-0.110233 -0.03222,0.02534 -0.02774,0.364743 0.0099,0.754292 0.06624,0.686209 0.07492,0.71038 0.27703,0.778462 0.382168,0.1288 0.392081,0.1145 0.433628,-0.624849 z m 0.667462,0.251569 c 0.209876,-0.215662 0.219459,-0.42375 0.02832,-0.613856 -0.09622,-0.09567 -0.211033,-0.158894 -0.255226,-0.140487 -0.104975,0.04376 -0.08095,0.88101 0.02529,0.879732 0.04435,-6.64e-4 0.135128,-0.057 0.201621,-0.125389 z m -1.620046,-0.417562 c -0.01206,-0.409503 -0.03815,-0.506503 -0.135954,-0.505278 -0.140992,0.0016 -0.246052,0.120905 -0.318571,0.361485 -0.03626,0.120158 1.53e-4,0.243465 0.121662,0.41212 0.266789,0.370398 0.349633,0.303543 0.332863,-0.268327 z m 2.782504,-1.775624 c 0.777151,-0.272437 1.43024,-0.901608 1.47955,-1.425295 0.02809,-0.298045 0.01129,-0.33534 -0.238291,-0.530731 -0.414137,-0.324242 -0.851399,-0.461846 -1.452457,-0.456994 -0.547695,0.0044 -0.979675,0.113277 -1.017999,0.256644 -0.01315,0.04898 0.08656,0.16583 0.221524,0.259735 0.213841,0.148813 0.308499,0.172928 0.737091,0.187652 0.437097,0.01505 0.519695,0.0012 0.743366,-0.125226 0.138348,-0.07816 0.274548,-0.142407 0.302631,-0.142779 0.06989,-8.61e-4 -0.02419,0.428981 -0.122906,0.561836 -0.28578,0.384483 -1.031707,0.800177 -1.708751,0.952188 -0.419008,0.09413 -0.365818,0.194057 0.20162,0.378826 0.509951,0.166098 0.59659,0.174632 0.854622,0.08414 z m -0.27554,-2.160963 c -0.234079,-0.03645 -0.169571,-0.121226 0.09466,-0.124481 0.274796,-0.0034 0.403231,0.0741 0.207891,0.125281 -0.07103,0.01862 -0.135537,0.03116 -0.143302,0.02785 -0.0077,-0.0034 -0.07938,-0.01621 -0.159247,-0.02865 z m -1.487311,1.696071 c 0.02855,-0.194856 0.0484,-0.56685 0.09729,-1.828982 0.02966,-0.763467 0.06741,-1.4169173 0.08393,-1.4521301 0.0166,-0.035161 0.02832,-0.3475071 0.02619,-0.6940533 l -0.0038,-0.6301318 -0.566854,-0.029773 c -0.31168,-0.016436 -0.578051,-0.022303 -0.591849,-0.013067 -0.01368,0.00928 -0.01255,1.0269394 0.0026,2.2615372 0.02174,1.761594 0.05013,2.253802 0.132318,2.286722 0.137029,0.05491 0.575531,0.155106 0.707191,0.161615 0.05682,0.0028 0.107787,-0.02497 0.113156,-0.06173 z m 0.916074,-0.207447 c 0.373501,-0.116422 0.953,-0.447653 0.95019,-0.543108 -0.0012,-0.03271 -0.05756,-0.05881 -0.12563,-0.05799 -0.06814,8.62e-4 -0.115386,-0.02605 -0.105064,-0.05975 0.01042,-0.03372 -0.11051,-0.08228 -0.268686,-0.107887 -0.158086,-0.02566 -0.421077,-0.119729 -0.584367,-0.208993 l -0.296933,-0.162414 -0.01495,0.336995 c -0.0082,0.185302 0.0038,0.34868 0.02685,0.36298 0.02304,0.01423 0.209962,-0.01339 0.415459,-0.06146 0.508545,-0.118932 0.474682,-0.03649 -0.05301,0.128961 -0.417359,0.130934 -0.534811,0.240901 -0.432065,0.404544 0.0612,0.09738 0.07689,0.09636 0.488228,-0.03186 z m -2.030795,-0.09546 c -0.06063,-0.09588 -1.067229,-0.45742 -1.266697,-0.454966 -0.143304,0.0018 -0.133556,0.02033 0.08482,0.162093 0.514822,0.334169 1.33682,0.537829 1.181869,0.292873 z m -0.05616,-0.349801 c 0.05699,-0.161509 0.06154,-0.654465 0.006,-0.653769 -0.02907,4.32e-4 -0.169488,0.05991 -0.311967,0.132377 -0.14256,0.07245 -0.38531,0.166522 -0.539601,0.208994 l -0.280414,0.07721 0.493842,0.15724 c 0.609397,0.193999 0.591886,0.191812 0.63211,0.07794 z m 4.958093,-1.167158 c 0.191126,-0.133815 0.407363,-0.304929 0.480629,-0.380214 0.131158,-0.134829 0.12703,-0.140911 -0.276039,-0.411267 -0.224993,-0.150942 -0.438011,-0.282092 -0.473277,-0.291428 -0.03527,-0.0093 -0.229453,0.08062 -0.431484,0.199977 -0.546622,0.322963 -0.885186,0.415911 -1.554874,0.426899 -0.317916,0.0052 -0.671263,-0.0015 -0.785241,-0.01469 -0.189483,-0.02204 -0.206741,-0.0082 -0.201701,0.162573 0.006,0.205741 -0.0046,0.204192 0.655398,0.09497 0.521844,-0.08633 1.237127,0.03335 1.691574,0.283053 0.172049,0.09454 0.365573,0.172233 0.430161,0.172657 0.0646,3.47e-4 0.273806,-0.108735 0.464854,-0.242554 z m -7.326955,0.09481 c 0.05121,-0.04146 0.284463,-0.131363 0.518371,-0.199763 0.34889,-0.102071 0.518294,-0.119946 0.943997,-0.09951 0.285369,0.01366 0.589158,0.04808 0.675224,0.07646 0.195339,0.06452 0.259766,0.02326 0.254313,-0.162734 l -0.0042,-0.145609 -0.681256,0.0097 c -0.521826,0.0076 -0.771018,-0.01547 -1.065062,-0.09828 -0.356649,-0.100416 -0.915167,-0.427274 -1.134461,-0.66396 -0.0873,-0.09417 -0.121663,-0.08174 -0.470055,0.169299 -0.206739,0.148968 -0.374904,0.301887 -0.373831,0.339768 0.0043,0.148063 0.35566,0.485005 0.69249,0.664174 0.385474,0.205045 0.502762,0.225163 0.64458,0.110392 z m 9.190986,-0.711548 c 0.19658,-0.05155 0.155943,-0.10954 -0.162134,-0.231192 -0.159079,-0.06083 -0.465593,-0.275154 -0.681253,-0.476253 -0.350043,-0.3264826 -0.420497,-0.365272 -0.658211,-0.3623925 -0.579331,0.00714 -0.601056,0.2331135 -0.05726,0.5947045 0.413563,0.274888 0.729079,0.401556 1.152135,0.462648 0.136945,0.01974 0.255228,0.03831 0.262991,0.04119 0.0077,0.003 0.07235,-0.01 0.143715,-0.0287 z m -7.09064,-0.123354 c 0.22342,-0.03175 0.270996,-0.163001 0.256378,-0.7066426 l -0.01181,-0.4393327 -0.49368,0.039484 -0.493678,0.039483 -0.379528,-0.235993 C 32.111693,8.9937909 32.085348,8.8400194 32.46975,8.6239811 32.839616,8.4161065 33.004149,8.1776077 32.994817,7.8627018 32.988127,7.6343904 32.945918,7.5717516 32.67087,7.3819653 32.252026,7.0929372 31.710772,6.971873 30.936926,6.9941218 30.431024,7.0086439 30.256663,7.0426228 29.663785,7.2423345 29.285908,7.3695884 28.770259,7.5667361 28.517846,7.6804383 28.265431,7.7941397 27.751764,8.0254895 27.376364,8.1945213 25.889136,8.8641906 25.116199,9.155564 23.670351,9.59143 l -0.326504,0.098495 0.23631,0.076298 c 0.43239,0.1396324 1.072182,0.138725 1.642178,-0.00234 0.962745,-0.2382866 3.52455,-1.3231697 3.759866,-1.5922446 0.192698,-0.2203588 0.299329,-0.1653485 0.308911,0.1593222 0.01833,0.6215411 0.911615,1.1561129 1.91318,1.1449081 0.147597,-0.00162 0.269096,0.021022 0.269924,0.050368 9.63e-4,0.029346 -0.04047,0.053835 -0.09185,0.054475 -0.149747,0.00182 -0.0175,0.4008638 0.193771,0.5851023 0.244236,0.212887 0.764429,0.413345 1.197399,0.461525 0.319318,0.03549 0.458904,0.02994 0.932018,-0.0373 z m 9.032727,-0.08035 C 42.737191,10.481033 42.633395,10.418714 42.5071,10.371223 41.910675,10.14697 41.495959,9.9556354 41.18036,9.7590736 40.489936,9.3290263 40.518679,9.3383625 40.2343,9.4516903 c -0.137688,0.054796 -0.249193,0.1388845 -0.247788,0.1867447 0.0039,0.1371242 0.961338,0.670043 1.446429,0.805299 0.448744,0.12512 1.308408,0.168552 1.305349,0.06595 z m -13.047247,-0.0036 c 0.16032,-0.05491 0.464686,-0.203874 0.676299,-0.330965 0.626824,-0.3765335 0.647886,-0.4978109 0.0968,-0.5576217 -0.302302,-0.032813 -0.326833,-0.022943 -0.857103,0.34361 -0.300235,0.2075537 -0.646893,0.4214037 -0.770209,0.4751877 -0.259106,0.11306 -0.281903,0.174901 -0.07649,0.207605 0.211282,0.03363 0.596678,-0.02342 0.930696,-0.137816 z m 7.47117,0.0119 c 0.481371,-0.08463 0.974306,-0.376423 1.141149,-0.6754822 0.108615,-0.194749 0.113984,-0.2557873 0.02825,-0.319975 -0.05822,-0.043644 -0.09209,-0.080355 -0.07524,-0.081528 0.01693,-0.00121 0.315023,-0.010893 0.662505,-0.021502 0.562399,-0.017181 0.670518,-0.038148 0.985704,-0.1912809 0.547943,-0.2662975 0.831414,-0.7188618 0.685714,-1.0948605 -0.07037,-0.1814617 0.205666,-0.065145 0.336333,0.1417674 0.143554,0.2272965 0.80482,0.5920883 2.176247,1.2003991 1.112659,0.4935398 2.456415,0.6867421 3.025504,0.4350085 C 46.435386,9.7748001 46.406972,9.6909787 46.030909,9.623216 45.222542,9.4775015 43.663123,8.8891477 41.939174,8.0793668 39.720057,7.0370074 38.952326,6.8461008 37.701237,7.0256966 37.438004,7.0634718 36.940279,7.3732024 36.815556,7.5769157 36.586932,7.950085 36.755182,8.381894 37.25365,8.7012814 l 0.314525,0.2015247 -0.180143,0.1781553 C 37.02023,9.4446875 36.544806,9.5637253 35.912367,9.4504511 l -0.22838,-0.040925 0.01577,0.5377198 0.01588,0.5377201 0.269845,0.04678 c 0.375315,0.06498 0.754104,0.06062 1.176751,-0.0137 z m 6.927849,-0.165348 c 0.13901,-0.03639 0.177085,-0.183224 0.04707,-0.181622 -0.159821,0.002 -1.824552,-0.7258004 -2.421806,-1.0587405 -0.639794,-0.3566299 -0.794497,-0.4020903 -0.875691,-0.2571747 -0.120998,0.2159312 -0.03122,0.3552437 0.402001,0.6239948 1.010401,0.6268264 2.29114,1.0196304 2.848416,0.8735414 z m -15.812489,-0.01187 c 0.203104,-0.07006 0.653417,-0.269979 1.000737,-0.4442919 L 29.909757,9.5795746 29.63876,9.4057414 c -0.149005,-0.095616 -0.300404,-0.1734597 -0.336416,-0.173034 -0.03601,3.574e-4 -0.257701,0.1172229 -0.492686,0.2595242 -0.544805,0.3300581 -1.146189,0.6231424 -1.588742,0.7744054 -0.416285,0.142246 -0.438089,0.210061 -0.07575,0.235191 0.396793,0.02753 0.718339,-0.01819 1.132397,-0.161027 z m -1.372259,-0.271047 c 0.439991,-0.1424607 2.244888,-0.9132919 2.243566,-0.9581635 -0.0023,-0.079607 -0.292391,-0.5137629 -0.342858,-0.5131753 -0.03535,3.571e-4 -0.535967,0.2383397 -1.112571,0.5286488 -0.911203,0.4589128 -2.037073,0.897551 -2.312284,0.900965 -0.19592,0.0024 -0.06723,0.107779 0.184933,0.151479 0.477573,0.08276 0.835132,0.05346 1.339214,-0.109754 z m 8.666671,-1.9797126 c 0.576273,-0.4636097 0.115882,-1.0704246 -0.80358,-1.0591128 -0.356238,0.0044 -0.446186,0.029293 -0.685469,0.1898407 -0.235974,0.1584113 -0.274384,0.2211574 -0.267939,0.438476 0.0067,0.2282018 0.04261,0.2744625 0.357144,0.4605686 0.332038,0.1963474 0.370938,0.2052592 0.766326,0.1758062 0.342942,-0.025559 0.454776,-0.061839 0.633518,-0.2055787 z m -0.78756,-0.03719 c -0.02925,-0.029293 0.02338,-0.069948 0.116957,-0.090383 0.25192,-0.055065 0.461385,-0.3810688 0.329063,-0.5122705 -0.211857,-0.2101674 -0.01275,-0.3014064 0.255638,-0.1170612 0.198727,0.1365369 0.183447,0.4026763 -0.03254,0.5649288 -0.19922,0.1496643 -0.585108,0.2389283 -0.669118,0.1547859 z"
       id="path567-5"
       style="fill:#095490;fill-opacity:0.89019608;stroke-width:0.0663847" /><text
       xml:space="preserve"
       style="font-style:normal;font-variant:normal;font-weight:normal;font-stretch:normal;font-size:14.8161px;font-family:Arial;-inkscape-font-specification:Arial;text-align:end;letter-spacing:0.155797px;text-anchor:end;opacity:0.887755;fill:#095490;fill-opacity:1;stroke-width:0.202489"
       x="198.94144"
       y="16.987911"
       id="text2036"
       transform="scale(1.0177564,0.9825534)"><tspan
         sodipodi:role="line"
         style="font-style:normal;font-variant:normal;font-weight:normal;font-stretch:normal;font-family:Dubai;-inkscape-font-specification:Dubai;text-align:end;text-anchor:end;fill:#095490;fill-opacity:1;stroke-width:0.202489"
         x="199.09723"
         y="16.987911"
         id="tspan24231">EVOLVE SKIN CLINIC</tspan></text><text
       xml:space="preserve"
       style="font-style:normal;font-variant:normal;font-weight:normal;font-stretch:condensed;font-size:7.73474px;font-family:Arial;-inkscape-font-specification:'Arial Condensed';letter-spacing:0.155797px;fill:#237670;fill-opacity:1;stroke-width:0.105708"
       x="90.247124"
       y="26.772818"
       id="text2040"
       transform="scale(1.0524304,0.9501816)"><tspan
         sodipodi:role="line"
         id="tspan2038"
         style="font-style:normal;font-variant:normal;font-weight:normal;font-stretch:normal;font-family:Dubai;-inkscape-font-specification:Dubai;fill:#237670;fill-opacity:1;stroke-width:0.105708"
         x="90.247124"
         y="26.772818">DR. JIGISHA NANAVATI SHAH</tspan></text><path
       d="m 127.22409,264.74753 c -0.49094,-0.52654 -0.73845,-2.12117 -0.80121,-5.16239 l -0.0901,-4.40024 -2.04176,-0.81463 c -4.53702,-1.81107 -6.42237,-4.597 -6.52614,-9.64179 -0.0545,-2.65008 0.14729,-3.48676 1.20109,-4.98253 1.35491,-1.92304 1.35592,-1.91788 -1.05481,-4.27421 -3.33797,-3.26282 -4.28647,-11.32217 -1.65,-14.02096 0.55218,-0.56494 0.99962,-1.24047 0.99455,-1.50092 -0.007,-0.26045 -1.08414,-1.7038 -2.39707,-3.20754 -4.07642,-4.66911 -4.58559,-5.84634 -4.70911,-10.89258 -0.0998,-4.06388 0.0127,-4.65411 1.30027,-6.81652 0.7749,-1.30232 2.06049,-3.03233 2.85614,-3.84464 l 1.44655,-1.47656 -1.896,-2.0214 c -1.04315,-1.11166 -2.50638,-3.17381 -3.25194,-4.58244 -1.19954,-2.26784 -1.37112,-3.17803 -1.49663,-7.94693 -0.123,-4.67052 0.009,-5.70769 0.98392,-7.81013 0.61952,-1.33371 1.78059,-3.02764 2.5803,-3.76453 1.40958,-1.29857 1.8985,-2.57792 0.97885,-2.56153 -0.24749,0.004 -1.72794,-1.1126 -3.29038,-2.48237 -4.33357,-3.80012 -6.66989,-10.46158 -5.01331,-14.29356 l 0.73795,-1.70752 -1.9051,-1.37681 c -1.86917,-1.35059 -2.91383,-2.80325 -4.470212,-6.21878 l -0.780461,-1.71173 -2.549416,0.80432 c -2.443127,0.7706 -2.662789,0.76501 -5.231946,-0.13544 -1.680378,-0.58931 -3.746936,-0.9107 -5.534615,-0.86102 -2.005823,0.0558 -3.584972,-0.23284 -5.317989,-0.97158 -1.355428,-0.57855 -3.477665,-1.08871 -4.71517,-1.13461 -1.507785,-0.0553 -3.195756,-0.59776 -5.113511,-1.64195 -2.043782,-1.11307 -3.478684,-1.55481 -5.014307,-1.54358 -2.430471,0.0183 -6.41833,-1.69112 -8.531961,-3.65677 l -1.342784,-1.24843 2.801978,-0.63242 c 3.413899,-0.77063 12.448458,-5.15585 18.543873,-9.00142 2.473496,-1.56042 7.645716,-4.83541 11.493375,-7.27796 8.584602,-5.44911 9.232965,-5.77186 13.176786,-6.56216 9.13124,-1.83025 16.43682,1.93942 17.75936,9.16446 0.51018,2.7845 -0.28647,5.24625 -2.44918,7.57024 -0.91511,0.98332 -1.66015,1.97926 -1.65508,2.21303 0.005,0.23421 0.74755,0.97907 1.65101,1.65599 1.3276,0.99499 1.98002,1.17394 3.40125,0.93456 2.66481,-0.44829 3.06618,-1.11726 3.02974,-5.04856 -0.0243,-2.6496 -0.29661,-3.97394 -1.12109,-5.44958 -2.25686,-4.04092 -1.10086,-8.40694 2.74125,-10.35338 5.20206,-2.63554 10.92193,-0.19909 11.65787,4.96611 0.20598,1.44521 -0.0511,2.6426 -1.00319,4.6696 -1.12513,2.3957 -1.25269,3.22206 -1.05074,6.81231 l 0.23032,4.08638 2.38035,0.0998 c 2.18855,0.0919 5.44907,-0.94487 5.43288,-1.72814 -0.003,-0.16217 -0.55422,-0.93738 -1.22435,-1.72345 -2.98873,-3.50453 -3.3577,-9.27078 -0.8255,-12.90789 3.14209,-4.51358 7.47768,-6.04496 13.93902,-4.92394 5.93194,1.02918 8.43578,2.35446 22.97562,12.16162 3.48072,2.34743 9.32102,5.78873 12.97889,7.64664 6.32925,3.21456 6.7787,3.36681 9.30332,3.1485 2.43956,-0.21128 2.65467,-0.14856 2.67394,0.77858 0.0284,1.37445 -3.12138,4.80872 -5.47998,5.97518 -1.06187,0.52514 -2.82322,0.97064 -3.91397,0.98983 -1.0907,0.0194 -3.2671,0.60666 -4.83611,1.30512 -2.32217,1.03391 -3.27725,1.21893 -5.1368,0.99409 -1.62067,-0.19583 -2.60408,-0.0741 -3.38607,0.4202 -1.25169,0.79122 -4.33154,1.41006 -8.39987,1.68738 -8.37353,0.57105 -11.18159,0.83902 -11.63358,1.10837 -0.27635,0.16485 -0.80676,1.01187 -1.17878,1.88274 -0.75059,1.75625 -2.76504,3.9205 -4.86299,5.2247 -1.26279,0.78468 -1.3696,1.09715 -1.31342,3.83153 0.0861,4.18519 -1.49817,7.43254 -5.63683,11.5545 l -3.29802,3.28436 2.13441,2.27062 c 3.17702,3.37944 4.20801,5.7133 4.30367,9.74484 0.14978,6.29375 -1.45009,9.86947 -6.14401,13.72816 l -2.36114,1.94129 1.58574,1.51126 c 3.75099,3.57431 4.08503,4.33229 4.15741,9.43098 0.0817,5.76154 -0.70605,7.49859 -5.04365,11.12681 -2.77818,2.32402 -3.72619,3.78651 -2.43908,3.76404 0.29356,-0.006 1.14033,1.19223 1.88133,2.66087 2.33682,4.63116 1.41513,9.50547 -2.63244,13.92863 -1.06137,1.1599 -1.92738,2.22517 -1.92432,2.36759 0.002,0.142 0.59015,1.02499 1.30581,1.96188 1.05277,1.37822 1.31242,2.27531 1.36202,4.70522 0.10882,5.2814 -3.36073,9.57574 -7.80008,9.65396 l -1.4668,0.0258 -0.23685,5.25658 c -0.21715,4.82512 -0.55374,5.96768 -1.77351,6.01686 -0.17409,0.008 -0.63675,-0.33026 -1.02748,-0.75 z m 1.33319,-12.16116 c -0.1406,-6.83949 -0.39684,-10.50753 -0.73291,-10.50142 -0.33858,0.006 -0.41704,3.72048 -0.22726,10.77498 0.16491,6.11808 0.48135,10.65182 0.7329,10.50189 0.24396,-0.1457 0.34619,-4.99422 0.22727,-10.77545 z m -2.36823,-5.5189 c -0.14576,-4.13836 -0.83006,-4.95909 -2.11819,-2.54187 -0.92267,1.73144 -0.57143,4.87386 0.80577,7.21005 l 0.824,1.39739 0.30975,-1.17676 c 0.17059,-0.64739 0.25105,-2.84727 0.17867,-4.88881 z m 5.86966,4.34449 c 0.69394,-1.25689 0.54158,-5.81687 -0.2166,-6.49283 -1.15348,-1.02733 -1.35393,-0.54576 -1.43593,3.4469 -0.0597,2.8974 0.0854,3.98189 0.53299,3.973 0.33807,-0.008 0.84168,-0.4235 1.11954,-0.92707 z m 4.07495,-2.29218 c 3.15071,-4.92535 1.83321,-8.64025 -4.67722,-13.18989 -0.53957,-0.37713 -1.92281,-1.34307 -3.07378,-2.14694 -1.15096,-0.8034 -2.74632,-2.29965 -3.54499,-3.32463 -1.28205,-1.64476 -1.4344,-2.18818 -1.29419,-4.62557 l 0.15892,-2.7625 -2.12983,-1.1955 c -1.1717,-0.65725 -2.49879,-1.18847 -2.94976,-1.18099 -2.15616,0.0385 -3.1249,6.08854 -1.5159,9.47033 1.54323,3.24361 6.26701,6.89946 11.16693,8.64259 2.56105,0.91115 5.5331,3.77859 5.97898,5.76813 0.36901,1.6471 0.18978,4.02076 -0.47675,6.30778 -0.30725,1.05544 -0.25712,1.10977 0.48487,0.52421 0.45502,-0.35885 1.29774,-1.38807 1.87272,-2.28702 z m -14.57729,-0.32182 c -0.46715,-3.13821 -0.008,-5.19897 1.51286,-6.77533 1.49207,-1.5473 1.26635,-2.52966 -0.67721,-2.94471 -1.13175,-0.24173 -1.59435,-0.0457 -2.56462,1.08542 -1.0487,1.22315 -1.15146,1.73563 -0.90346,4.49344 0.19185,2.13102 0.64584,3.63852 1.43897,4.77733 0.63773,0.91538 1.24358,1.66256 1.34682,1.66068 0.10373,-0.002 0.0344,-1.0353 -0.15336,-2.29683 z m 14.78833,-15.17991 c 2.58334,-2.2397 3.8497,-4.88555 3.78743,-7.91458 -0.0926,-4.48973 -3.16132,-8.25706 -9.59636,-11.77891 -3.71404,-2.03263 -7.30661,-4.85231 -8.26068,-6.48348 -1.17627,-2.0106 -1.01885,-5.14178 0.35684,-7.09663 1.37161,-1.95022 1.41059,-1.89588 -3.21956,-4.46536 -3.1178,-1.72956 -3.3319,-1.65132 -5.36152,1.96238 -1.9461,3.46472 -2.1202,7.02172 -0.55117,11.26032 1.02797,2.77652 1.74616,3.79169 4.3882,6.20472 1.91625,1.74969 4.42619,3.44924 6.37937,4.31917 6.29685,2.80372 9.38836,6.46049 7.63963,9.03656 -0.44134,0.64975 -0.7602,2.13382 -0.73391,3.4141 0.079,3.84887 1.8884,4.38853 5.17173,1.54171 z m -7.16892,-2.91897 c 0.0292,-3.86383 -0.49249,-5.49688 -1.74921,-5.47486 -0.6838,0.0124 -0.40693,6.29421 0.3057,6.92942 1.0725,0.95567 1.42782,0.5973 1.44351,-1.45456 z m -3.32129,-4.39271 c -0.21764,-0.7772 -0.2465,-0.77671 -0.59725,0.0107 -0.20294,0.45487 -0.18776,1.1922 0.0334,1.63959 0.38315,0.7739 0.412,0.77342 0.59725,-0.0105 0.10731,-0.45254 0.0921,-1.19035 -0.0334,-1.63913 z m 12.97787,-11.47393 c 3.51312,-2.0631 5.61407,-5.80889 5.84184,-10.41525 0.15344,-3.0951 0.0208,-3.66943 -1.45513,-6.31619 -0.89283,-1.6012 -2.15464,-3.3387 -2.804,-3.86055 -1.6981,-1.36557 -9.06746,-5.81734 -11.17097,-6.74817 -0.98343,-0.43518 -3.23168,-1.63865 -4.99609,-2.67489 -2.75642,-1.6185 -3.35669,-2.22937 -4.26571,-4.34258 -1.72797,-4.01704 -1.44251,-6.81466 0.95304,-9.34622 1.36909,-1.44613 0.8731,-2.176 -2.49628,-3.67457 l -2.90217,-1.29106 -1.73706,1.90474 c -2.69772,2.95878 -3.57436,5.41209 -3.48476,9.75563 0.0663,3.22207 0.3057,4.181 1.68036,6.72096 1.87423,3.46425 5.36305,6.69144 9.60042,8.88152 6.41682,3.31571 11.61386,6.62209 12.54919,7.98296 0.5385,0.78325 0.99657,2.22329 1.01734,3.19956 0.0404,1.86728 -1.29775,4.91504 -2.62234,5.97284 -1.31947,1.05356 -0.8513,2.25845 1.43087,3.68021 2.60256,1.62132 2.99483,1.66724 4.86145,0.57106 z m -9.16463,-6.98378 c 0.0249,-6.33449 -0.009,-6.47223 -1.67277,-7.23252 l -1.53311,-0.69987 0.10134,4.91131 c 0.0916,4.4536 0.20649,4.99938 1.23091,5.85011 0.62203,0.51575 1.2947,0.77574 1.49614,0.57712 0.20095,-0.19816 0.37102,-1.73095 0.3776,-3.40615 z m 3.19272,-1.54592 c 0.0475,-2.56104 -0.98189,-2.24532 -1.10185,0.33777 -0.0836,1.81059 0.0264,2.21627 0.48233,1.78155 0.32495,-0.30966 0.60333,-1.26343 0.61952,-2.11932 z m -7.73024,-2.67628 c -0.74808,-0.66616 -1.28254,1.26482 -0.78301,2.82714 0.39176,1.22499 0.40746,1.2147 0.85387,-0.55559 0.30268,-1.20113 0.27888,-1.95958 -0.0709,-2.27155 z m 15.75558,-15.40853 c 4.16549,-2.94473 6.0949,-6.78842 6.05592,-12.0656 -0.0153,-2.13944 -0.32747,-3.58884 -1.04921,-4.87336 -0.98799,-1.75859 -5.3909,-6.25812 -6.11164,-6.24548 -0.19232,0.004 -1.82816,-0.79591 -3.63505,-1.7764 -1.84237,-0.99968 -5.9355,-2.51045 -9.31801,-3.4394 -6.81466,-1.87149 -11.34912,-4.07089 -13.65206,-6.62211 -1.25217,-1.38758 -1.62318,-2.29967 -1.84436,-4.53608 -0.29154,-2.94989 0.0881,-3.4188 1.57917,-1.95111 2.07616,2.04386 7.14765,1.35991 9.28154,-1.25127 1.12261,-1.374 0.99709,-2.35588 -0.36392,-2.84962 -3.72314,-1.35058 -8.11745,-0.8184 -11.44074,1.38522 -4.20853,2.79059 -5.33064,7.38148 -2.85158,11.66742 2.33733,4.04137 5.59181,6.1991 16.62713,11.02468 9.28967,4.06246 10.96295,5.0214 12.42569,7.12146 2.00936,2.88526 0.87713,7.43163 -2.61166,10.48457 -1.94308,1.70002 -2.11363,2.43271 -0.80427,3.45208 1.20562,0.93877 3.80161,2.13054 4.65849,2.13897 0.38061,0.004 1.75478,-0.74532 3.05456,-1.66397 z m -25.8348,-44.11841 c -0.63876,-0.56916 0.16347,-1.12337 1.66418,-1.15007 0.81843,-0.0141 1.4926,0.18458 1.49766,0.44224 0.007,0.25766 -0.3133,0.47408 -0.70758,0.4811 -0.39479,0.008 -1.03102,0.13034 -1.41315,0.27358 -0.38263,0.14375 -0.85083,0.12269 -1.04111,-0.0469 z m 15.28333,35.54517 c 0.2394,-6.11525 0.22978,-6.18318 -0.96519,-7.00345 -1.565,-1.07417 -2.99886,-1.47655 -3.45035,-0.96784 -0.19741,0.22253 -0.17007,3.20241 0.0606,6.62261 0.40593,6.02481 0.45907,6.23703 1.6976,6.83479 2.34186,1.13084 2.40261,1.0053 2.65722,-5.48611 z m 4.0901,2.20877 c 1.28608,-1.8935 1.34481,-3.72047 0.1735,-5.38961 -0.58964,-0.83994 -1.29317,-1.39506 -1.56397,-1.23345 -0.64328,0.38414 -0.49602,7.73517 0.15495,7.72396 0.2718,-0.006 0.82805,-0.50034 1.23548,-1.1009 z m -9.9274,-3.66616 c -0.0739,-3.5954 -0.23381,-4.44703 -0.83309,-4.43627 -0.86398,0.0142 -1.50778,1.06154 -1.95217,3.1738 -0.2222,1.05495 9.5e-4,2.13757 0.74553,3.61835 1.63484,3.25205 2.14251,2.66507 2.03973,-2.35588 z m 17.05078,-15.58978 c 4.76225,-2.39196 8.76429,-7.916 9.06645,-12.51391 0.17216,-2.6168 0.0691,-2.94426 -1.46022,-4.65975 -2.53778,-2.84681 -5.21724,-4.05496 -8.90042,-4.01235 -3.3562,0.0385 -6.0033,0.99455 -6.23815,2.25329 -0.0806,0.43005 0.53043,1.45598 1.35746,2.28045 1.31038,1.30654 1.89043,1.51828 4.51677,1.64757 2.67848,0.13208 3.18462,0.0106 4.55524,-1.09948 0.84778,-0.68629 1.6824,-1.25031 1.85449,-1.25357 0.42819,-0.008 -0.14827,3.76639 -0.75315,4.93282 -1.75122,3.37572 -6.32215,7.02548 -10.47096,8.36012 -2.56763,0.82636 -2.24169,1.7038 1.23548,3.32606 3.12491,1.45829 3.65581,1.53323 5.23701,0.73875 z m -1.68847,-18.97299 c -1.4344,-0.31996 -1.03911,-1.06436 0.58004,-1.09295 1.68391,-0.0294 2.47095,0.65071 1.27393,1.09998 -0.43527,0.16341 -0.83055,0.27356 -0.87815,0.24451 -0.047,-0.029 -0.48639,-0.14234 -0.97582,-0.25154 z m -9.11404,14.8913 c 0.17504,-1.71082 0.29662,-4.97687 0.59624,-16.05825 0.18174,-6.70316 0.413,-12.44037 0.51424,-12.74953 0.10174,-0.30873 0.17352,-3.05107 0.1605,-6.09372 l -0.0238,-5.53247 -3.47361,-0.26141 c -1.91016,-0.1443 -3.54244,-0.1958 -3.62698,-0.11473 -0.0839,0.0814 -0.0769,9.01642 0.0157,19.85605 0.13311,15.46659 0.30721,19.78811 0.81082,20.07716 0.8397,0.48205 3.52677,1.36181 4.33356,1.41894 0.3482,0.0245 0.6605,-0.21923 0.6934,-0.542 z m 5.61358,-1.82135 c 2.28875,-1.02216 5.83983,-3.93034 5.8226,-4.76843 -0.007,-0.28716 -0.35276,-0.51624 -0.76983,-0.50921 -0.41756,0.008 -0.70706,-0.22861 -0.64379,-0.52466 0.0638,-0.29608 -0.67721,-0.72238 -1.64648,-0.94725 -0.96874,-0.22532 -2.5803,-1.05121 -3.58092,-1.83494 l -1.81956,-1.42598 -0.0916,2.95879 c -0.0502,1.62694 0.0238,3.06135 0.16451,3.1869 0.14118,0.12501 1.28662,-0.11757 2.54587,-0.53966 3.11628,-1.04418 2.90878,-0.32042 -0.32493,1.13226 -2.55752,1.14959 -3.27725,2.11508 -2.64764,3.55186 0.37508,0.85493 0.47125,0.84605 2.99181,-0.27968 z m -12.44441,-0.83807 c -0.3715,-0.84182 -6.53979,-4.01608 -7.76212,-3.99453 -0.87815,0.016 -0.81841,0.1785 0.5198,1.42315 3.15476,2.93396 8.19185,4.72207 7.24232,2.57138 z m -0.34416,-3.07121 c 0.34923,-1.41803 0.37706,-5.74611 0.037,-5.74002 -0.17813,0.004 -1.0386,0.52608 -1.91167,1.16225 -0.87359,0.63617 -2.36112,1.46206 -3.30661,1.83495 l -1.71832,0.67786 3.02618,1.38055 c 3.7343,1.7033 3.62699,1.68411 3.87348,0.68441 z m 30.38242,-10.24751 c 1.17121,-1.17489 2.49626,-2.67724 2.94523,-3.33823 0.80373,-1.1838 0.77843,-1.23719 -1.69152,-3.61088 -1.37873,-1.32525 -2.68406,-2.47674 -2.90016,-2.55872 -0.21613,-0.0819 -1.40607,0.70785 -2.64406,1.7558 -3.34965,2.83557 -5.42431,3.65164 -9.52805,3.74811 -1.94814,0.0458 -4.1134,-0.0124 -4.81185,-0.12889 -1.16109,-0.19347 -1.26685,-0.0712 -1.23598,1.42738 0.037,1.80638 -0.0284,1.79279 4.01618,0.83387 3.19778,-0.75797 7.58092,0.29279 10.3657,2.48517 1.0543,0.83011 2.24018,1.51217 2.63598,1.51591 0.39581,0.003 1.67784,-0.9547 2.84853,-2.1296 z m -44.89845,0.83245 c 0.3138,-0.364 1.74313,-1.15336 3.1765,-1.7539 2.13794,-0.89618 3.17603,-1.05311 5.78466,-0.87367 1.74871,0.11987 3.61029,0.42207 4.13768,0.67129 1.19701,0.56636 1.5918,0.20426 1.55839,-1.42879 l -0.0264,-1.27844 -4.17463,0.0857 c -3.19779,0.066 -4.7248,-0.1358 -6.52666,-0.86289 -2.18548,-0.88166 -5.60799,-3.75143 -6.9518,-5.8295 -0.53498,-0.82684 -0.74553,-0.71767 -2.88042,1.48643 -1.26686,1.30791 -2.29735,2.65051 -2.29078,2.98311 0.0268,1.29999 2.17943,4.25829 4.24347,5.83138 2.36213,1.80028 3.08086,1.9769 3.94989,0.96923 z m 56.32097,-6.24735 c 1.2046,-0.45251 0.9556,-0.96176 -0.99353,-2.02984 -0.97482,-0.53403 -2.85312,-2.41583 -4.17463,-4.18145 -2.14502,-2.86648 -2.57676,-3.20706 -4.03341,-3.18177 -3.55006,0.0627 -3.68319,2.0467 -0.35077,5.22144 2.53425,2.41349 4.46769,3.52562 7.0601,4.062 0.83918,0.17334 1.56399,0.33635 1.61157,0.36164 0.047,0.0259 0.44337,-0.0876 0.88067,-0.25202 z m -43.45039,-1.08307 c 1.36909,-0.27873 1.66064,-1.43114 1.57105,-6.20425 l -0.0724,-3.85729 -3.02519,0.34666 -3.02517,0.34665 -2.32571,-2.07197 c -2.88954,-2.57466 -3.05097,-3.92475 -0.69542,-5.82155 2.26647,-1.82511 3.27471,-3.91911 3.21752,-6.68395 -0.0409,-2.00454 -0.29964,-2.5545 -1.98508,-4.2208 -2.56662,-2.53764 -5.88335,-3.60056 -10.62534,-3.40522 -3.1001,0.12748 -4.16856,0.42583 -7.801617,2.17928 -2.315581,1.11726 -5.4754,2.84821 -7.022155,3.84651 -1.546756,0.99827 -4.694429,3.0295 -6.994824,4.51357 -9.113514,5.87963 -13.849953,8.43786 -22.709893,12.2647 l -2.000762,0.86477 1.448062,0.66988 c 2.64963,1.22596 6.570172,1.218 10.063028,-0.0206 5.899543,-2.09213 21.59791,-11.61729 23.039894,-13.97973 1.18082,-1.93472 1.834243,-1.45173 1.892956,1.39882 0.112362,5.45708 5.586241,10.15055 11.723681,10.05216 0.90444,-0.0141 1.64898,0.18457 1.65405,0.44224 0.006,0.25766 -0.24801,0.47266 -0.56282,0.47828 -0.91763,0.016 -0.10732,3.51954 1.18738,5.13712 1.49666,1.86914 4.68432,3.62913 7.33749,4.05215 1.95672,0.31154 2.8121,0.26279 5.71127,-0.32744 z m 55.3512,-0.70549 c -0.007,-0.25158 -0.64279,-0.79874 -1.41668,-1.21566 -3.6548,-1.96893 -6.19613,-3.64883 -8.13007,-5.37461 -4.23082,-3.77577 -4.05467,-3.69379 -5.7973,-2.6988 -0.84375,0.48111 -1.52703,1.2194 -1.51842,1.63961 0.0249,1.20393 5.89094,5.88289 8.86349,7.07043 2.74985,1.09854 8.01772,1.47987 7.99898,0.57903 z m -79.951528,-0.031 c 0.982415,-0.48204 2.847528,-1.78998 4.144258,-2.90583 3.84107,-3.30593 3.97015,-4.37073 0.59319,-4.89586 -1.85247,-0.2881 -2.00278,-0.20145 -5.25219,3.01686 -1.83981,1.8223 -3.964069,3.69989 -4.719732,4.1721 -1.587756,0.99266 -1.72745,1.53561 -0.468686,1.82274 1.294702,0.29514 3.656338,-0.20563 5.70316,-1.21001 z m 45.782188,0.10447 c 2.94976,-0.74298 5.97039,-3.30498 6.99278,-5.93067 0.66557,-1.70988 0.69848,-2.24579 0.17313,-2.80936 -0.35682,-0.38318 -0.56434,-0.7055 -0.46108,-0.7158 0.1037,-0.0106 1.93041,-0.0957 4.05972,-0.18878 3.44629,-0.15085 4.10885,-0.33494 6.04026,-1.67943 3.35769,-2.33806 5.09476,-6.31152 4.20193,-9.61275 -0.43123,-1.59322 1.2603,-0.57198 2.06101,1.24469 0.87967,1.99564 4.93181,5.19848 13.3357,10.53938 6.81821,4.3332 15.05254,6.02952 18.53984,3.81932 1.88132,-1.19222 1.70719,-1.92816 -0.59725,-2.52311 -4.95357,-1.27936 -14.50944,-6.44503 -25.07355,-13.55482 -13.5984,-9.1518 -18.30295,-10.82793 -25.96943,-9.2511 -1.61304,0.33166 -4.66303,3.05106 -5.42731,4.83965 -1.40097,3.27638 -0.36997,7.06762 2.68456,9.87179 l 1.92737,1.76935 -1.10388,1.56419 c -2.25384,3.19347 -5.16717,4.23861 -9.04266,3.24409 l -1.39946,-0.35932 0.0966,4.72111 0.0972,4.72111 1.65357,0.41084 c 2.29987,0.57061 4.62102,0.53218 7.21095,-0.12039 z m 42.45281,-1.45176 c 0.85183,-0.31948 1.08514,-1.60869 0.28849,-1.59463 -0.97937,0.0176 -11.18058,-6.37244 -14.84046,-9.2956 -3.92056,-3.13118 -4.86856,-3.53031 -5.36609,-2.25796 -0.74147,1.89584 -0.19131,3.11899 2.46339,5.47859 6.19158,5.50345 14.03976,8.95225 17.45467,7.6696 z m -96.896532,-0.1045 c 1.244592,-0.61507 4.004055,-2.37039 6.132365,-3.90083 l 3.869421,-2.78264 -1.660638,-1.52624 c -0.913071,-0.83948 -1.840822,-1.52296 -2.061497,-1.51922 -0.220677,0.003 -1.579151,1.02919 -3.019112,2.27859 -3.338484,2.89787 -7.023673,5.47113 -9.73556,6.7992 -2.550933,1.2489 -2.684553,1.84429 -0.464127,2.06495 2.431486,0.24173 4.401881,-0.15971 6.939148,-1.41381 z m -8.408971,-2.37975 c 2.696195,-1.25079 13.756317,-8.01859 13.748216,-8.41258 -0.01415,-0.69894 -1.791727,-4.51077 -2.100977,-4.50561 -0.216627,0.003 -3.284327,2.09259 -6.817673,4.64147 -5.583714,4.02921 -12.482877,7.8804 -14.169326,7.91037 -1.200559,0.0211 -0.411997,0.94628 1.133241,1.32996 2.926489,0.72658 5.117558,0.4694 8.206519,-0.96361 z m 53.108043,-17.38166 c 3.53129,-4.07043 0.71008,-9.3982 -4.92422,-9.29889 -2.183,0.0384 -2.73417,0.25718 -4.20046,1.66678 -1.44601,1.39084 -1.68139,1.94173 -1.6419,3.84978 0.041,2.00357 0.26116,2.40975 2.18854,4.04373 2.03468,1.72391 2.27305,1.80217 4.69593,1.54357 2.10149,-0.22439 2.7868,-0.54294 3.88211,-1.80497 z m -4.82607,-0.32651 c -0.17924,-0.2572 0.14329,-0.61415 0.7167,-0.79357 1.54373,-0.48346 2.82731,-3.34575 2.01646,-4.49768 -1.29824,-1.84525 -0.0781,-2.64632 1.56651,-1.02779 1.21777,1.1988 1.12414,3.53546 -0.19943,4.96003 -1.2208,1.31403 -3.58546,2.09775 -4.10024,1.35901 z"
       id="path567"
       style="opacity:0.5;fill:#999999;fill-opacity:0.28;stroke-width:0.486933" /><text
       xml:space="preserve"
       style="font-style:normal;font-variant:normal;font-weight:normal;font-stretch:normal;font-size:2.90039px;font-family:Arial;-inkscape-font-specification:Arial;letter-spacing:0.211667px;fill:#000000;fill-opacity:1;stroke-width:0.0396386"
       x="103.24538"
       y="29.676222"
       id="text2094"
       transform="scale(0.97738105,1.0231424)"><tspan
         sodipodi:role="line"
         style="font-style:normal;font-variant:normal;font-weight:normal;font-stretch:normal;font-family:Arial;-inkscape-font-specification:Arial;fill:#000000;fill-opacity:1;stroke-width:0.0396386"
         x="103.24538"
         y="29.676222"
         id="tspan2098">B.H.M.S (MUMBAI) ,P.G.D.E.M.S (MUMBAI), P.G.D.C.C (AUSTRALIA)</tspan></text><text
       xml:space="preserve"
       style="font-style:normal;font-variant:normal;font-weight:normal;font-stretch:normal;font-size:3.04623px;font-family:Arial;-inkscape-font-specification:Arial;letter-spacing:0.155797px;fill:#095490;fill-opacity:0.89019608;stroke-width:0.041632"
       x="22.395094"
       y="30.570906"
       id="text2102"
       transform="scale(1.0265292,0.97415644)"><tspan
         sodipodi:role="line"
         id="tspan2100"
         style="font-style:normal;font-variant:normal;font-weight:bold;font-stretch:normal;font-family:Dubai;-inkscape-font-specification:'Dubai Bold';fill:#095490;fill-opacity:0.89019608;stroke-width:0.0416319"
         x="22.395094"
         y="30.570906">REG. NO. 43463</tspan></text><text
       xml:space="preserve"
       transform="matrix(1.0120104,0,0,1.4100631,-5.5650312,-96.886415)"
       style="font-style:normal;font-variant:normal;font-weight:normal;font-stretch:normal;font-size:2.54616px;font-family:Arial;-inkscape-font-specification:Arial;letter-spacing:0.177191px;writing-mode:lr-tb;white-space:pre;inline-size:151.984;display:inline;fill:#000000;fill-opacity:1;fill-rule:nonzero;stroke:none;stroke-width:0.036541"
       id="text756"
       x="53.589008"
       y="272.14896"><tspan
         x="53.589008"
         y="272.14896"
         id="tspan651"><tspan
           style="font-family:Dubai;-inkscape-font-specification:Dubai"
           id="tspan649">SHOP NO 5, INDRAPRASTHA 3, OPP ASHOKA HOSPITAL BUS STOP, RAHEJA TOWNSHIP, JITENDRA ROAD, MALAD EAST, </tspan></tspan><tspan
         x="53.589008"
         y="275.38456"
         id="tspan657"><tspan
           style="font-family:Dubai;-inkscape-font-specification:Dubai"
           id="tspan653">MUMBAI 400097. </tspan><tspan
           style="font-family:Dubai;-inkscape-font-specification:Dubai"
           id="tspan655">PHONE 9969028110</tspan></tspan></text><text
       xml:space="preserve"
       style="font-style:normal;font-variant:normal;font-weight:normal;font-stretch:normal;font-size:5.19492px;font-family:Arial;-inkscape-font-specification:Arial;fill:#2c939d;fill-opacity:1;stroke-width:0.0709976"
       x="3.5486822"
       y="41.389626"
       id="text4875"
       transform="scale(0.88435174,1.1307718)"><tspan
         sodipodi:role="line"
         id="tspan4873"
         style="font-style:normal;font-variant:normal;font-weight:normal;font-stretch:normal;font-family:Arial;-inkscape-font-specification:Arial;fill:#2c939d;fill-opacity:1;stroke-width:0.0709971"
         x="3.5486822"
         y="41.389626" /></text><text
       xml:space="preserve"
       style="font-style:normal;font-variant:normal;font-weight:normal;font-stretch:normal;font-size:2.94419px;font-family:Arial;-inkscape-font-specification:Arial;letter-spacing:0.21166666px;fill:#000000;fill-opacity:1;stroke-width:0.0578538"
       x="239.36682"
       y="32.904507"
       id="text6489"
       transform="scale(0.84572856,1.1824125)"><tspan
         sodipodi:role="line"
         id="tspan6487"
         style="font-style:normal;font-variant:normal;font-weight:normal;font-stretch:normal;font-size:2.94419px;font-family:Dubai;-inkscape-font-specification:Dubai;text-align:end;text-anchor:end;fill:#000000;fill-opacity:1;stroke-width:0.0578537"
         x="239.36682"
         y="32.904507">FAMILY PHYSICIAN</tspan><tspan
         sodipodi:role="line"
         style="font-style:normal;font-variant:normal;font-weight:normal;font-stretch:normal;font-size:2.94419px;font-family:Dubai;-inkscape-font-specification:Dubai;text-align:end;text-anchor:end;fill:#000000;fill-opacity:1;stroke-width:0.0578537"
         x="239.36682"
         y="36.645912"
         id="tspan6491">COSMETIC SKIN SPECIALIST</tspan><tspan
         sodipodi:role="line"
         style="font-style:normal;font-variant:normal;font-weight:normal;font-stretch:normal;font-size:2.94419px;font-family:Dubai;-inkscape-font-specification:Dubai;text-align:end;text-anchor:end;fill:#000000;fill-opacity:1;stroke-width:0.0578537"
         x="239.36682"
         y="40.387314"
         id="tspan29906">FEMALE PROBLEM SPECIALIST</tspan><tspan
         sodipodi:role="line"
         style="font-style:normal;font-variant:normal;font-weight:normal;font-stretch:normal;font-size:2.94419px;font-family:Dubai;-inkscape-font-specification:Dubai;text-align:end;text-anchor:end;fill:#000000;fill-opacity:1;stroke-width:0.0578537"
         x="239.36682"
         y="44.128719"
         id="tspan29908">VACCINATION</tspan><tspan
         sodipodi:role="line"
         style="font-style:normal;font-variant:normal;font-weight:normal;font-stretch:normal;font-size:2.94419px;font-family:Dubai;-inkscape-font-specification:Dubai;text-align:end;text-anchor:end;fill:#000000;fill-opacity:1;stroke-width:0.0578537"
         x="239.36682"
         y="47.870125"
         id="tspan24226" /></text><text
       xml:space="preserve"
       style="font-style:normal;font-variant:normal;font-weight:normal;font-stretch:normal;font-size:5.07384px;font-family:Arial;-inkscape-font-specification:Arial;fill:#006a6a;fill-opacity:1;stroke:none;stroke-width:0.658191"
       x="1.887566"
       y="121.7952"
       id="text532"
       transform="scale(0.99433963,1.0056926)"><tspan
         sodipodi:role="line"
         style="font-style:normal;font-variant:normal;font-weight:normal;font-stretch:normal;font-size:5.07384px;font-family:Arial;-inkscape-font-specification:Arial;fill:#006a6a;fill-opacity:1;stroke:none;stroke-width:0.658191"
         x="1.887566"
         y="121.7952"
         id="tspan544" /></text><text
       xml:space="preserve"
       style="font-style:normal;font-variant:normal;font-weight:normal;font-stretch:condensed;font-size:3.17879px;line-height:1.4;font-family:Arial;-inkscape-font-specification:'Arial Condensed';fill:#000000;fill-opacity:1;stroke:none;stroke-width:0.497723"
       x="9.1592112"
       y="278.54803"
       id="text532-0"
       transform="scale(1.0895084,0.91784514)"><tspan
         sodipodi:role="line"
         style="font-style:normal;font-variant:normal;font-weight:normal;font-stretch:normal;font-size:3.17879px;font-family:'Bradley Hand ITC';-inkscape-font-specification:'Bradley Hand ITC';direction:ltr;baseline-shift:baseline;fill:#000000;fill-opacity:1;stroke:none;stroke-width:0.497723"
         x="9.1592112"
         y="278.54803"
         id="tspan36692" /></text><text
       xml:space="preserve"
       style="font-style:normal;font-variant:normal;font-weight:normal;font-stretch:normal;font-size:3.00954px;line-height:1.4;font-family:Arial;-inkscape-font-specification:Arial;fill:#000000;fill-opacity:1;stroke:none;stroke-width:0.404255"
       x="9.5216322"
       y="212.49565"
       id="text532-0-19"
       transform="scale(0.97801671,1.0224774)"><tspan
         sodipodi:role="line"
         style="font-style:normal;font-variant:normal;font-weight:normal;font-stretch:normal;font-family:'Bradley Hand ITC';-inkscape-font-specification:'Bradley Hand ITC';direction:ltr;baseline-shift:baseline;fill:#000000;fill-opacity:1;stroke:none;stroke-width:0.404255"
         x="9.5216322"
         y="212.49565"
         id="tspan36692-16" /></text><text
       xml:space="preserve"
       style="font-variant:normal;font-weight:normal;font-stretch:normal;font-size:3.0069px;line-height:1.4;font-family:Arial;-inkscape-font-specification:Arial;letter-spacing:0.21166667px;opacity:1;fill:#000000;fill-opacity:1;stroke:none;stroke-width:0.403902"
       x="52.323833"
       y="34.533848"
       id="text532-0-1"
       transform="scale(0.8938143,1.1188006)"><tspan
         sodipodi:role="line"
         style="font-style:normal;font-variant:normal;font-weight:bold;font-stretch:normal;font-family:Dubai;-inkscape-font-specification:Dubai;text-align:end;direction:ltr;baseline-shift:baseline;text-anchor:end;fill:#000000;fill-opacity:1;stroke:none;stroke-width:0.403902"
         x="52.323833"
         y="34.533848"
         id="tspan536-3-9">SKIN</tspan><tspan
         sodipodi:role="line"
         style="font-style:normal;font-variant:normal;font-weight:normal;font-stretch:normal;font-family:Dubai;-inkscape-font-specification:Dubai;text-align:end;direction:ltr;baseline-shift:baseline;text-anchor:end;fill:#000000;fill-opacity:1;stroke:none;stroke-width:0.403902"
         x="52.323833"
         y="38.805977"
         id="tspan28948">LASER HAIR REMOVAL</tspan><tspan
         sodipodi:role="line"
         style="font-style:normal;font-variant:normal;font-weight:normal;font-stretch:normal;font-family:Dubai;-inkscape-font-specification:Dubai;text-align:end;direction:ltr;baseline-shift:baseline;text-anchor:end;fill:#000000;fill-opacity:1;stroke:none;stroke-width:0.403902"
         x="52.323833"
         y="43.078106"
         id="tspan142136-8">BOTOX - BARBIE BOTOX</tspan><tspan
         sodipodi:role="line"
         style="font-style:normal;font-variant:normal;font-weight:normal;font-stretch:normal;font-family:Dubai;-inkscape-font-specification:Dubai;text-align:end;direction:ltr;baseline-shift:baseline;text-anchor:end;fill:#000000;fill-opacity:1;stroke:none;stroke-width:0.403902"
         x="52.323833"
         y="47.350231"
         id="tspan12943">DERMAL FILLERS</tspan><tspan
         sodipodi:role="line"
         style="font-style:normal;font-variant:normal;font-weight:normal;font-stretch:normal;font-family:Dubai;-inkscape-font-specification:Dubai;text-align:end;direction:ltr;baseline-shift:baseline;text-anchor:end;fill:#000000;fill-opacity:1;stroke:none;stroke-width:0.403902"
         x="52.323833"
         y="51.62236"
         id="tspan13671">THREAD LIFTS</tspan><tspan
         sodipodi:role="line"
         style="font-style:normal;font-variant:normal;font-weight:normal;font-stretch:normal;font-family:Dubai;-inkscape-font-specification:Dubai;text-align:end;direction:ltr;baseline-shift:baseline;text-anchor:end;fill:#000000;fill-opacity:1;stroke:none;stroke-width:0.403902"
         x="52.323833"
         y="55.894489"
         id="tspan14399">VAMPIRE / MEDI / E - FACIAL</tspan><tspan
         sodipodi:role="line"
         style="font-style:normal;font-variant:normal;font-weight:normal;font-stretch:normal;font-family:Dubai;-inkscape-font-specification:Dubai;text-align:end;direction:ltr;baseline-shift:baseline;text-anchor:end;fill:#000000;fill-opacity:1;stroke:none;stroke-width:0.403902"
         x="52.323833"
         y="60.166615"
         id="tspan14401">BB GLOW</tspan><tspan
         sodipodi:role="line"
         style="font-style:normal;font-variant:normal;font-weight:normal;font-stretch:normal;font-family:Dubai;-inkscape-font-specification:Dubai;text-align:end;direction:ltr;baseline-shift:baseline;text-anchor:end;fill:#000000;fill-opacity:1;stroke:none;stroke-width:0.403902"
         x="52.323833"
         y="64.438744"
         id="tspan15131">SEMI PERMENANT MAKEUP</tspan><tspan
         sodipodi:role="line"
         style="font-style:normal;font-variant:normal;font-weight:normal;font-stretch:normal;font-family:Dubai;-inkscape-font-specification:Dubai;text-align:end;direction:ltr;baseline-shift:baseline;text-anchor:end;fill:#000000;fill-opacity:1;stroke:none;stroke-width:0.403902"
         x="52.323833"
         y="68.710876"
         id="tspan15859">MEDICAL MICRO BLADING</tspan><tspan
         sodipodi:role="line"
         style="font-style:normal;font-variant:normal;font-weight:normal;font-stretch:normal;font-family:Dubai;-inkscape-font-specification:Dubai;text-align:end;direction:ltr;baseline-shift:baseline;text-anchor:end;fill:#000000;fill-opacity:1;stroke:none;stroke-width:0.403902"
         x="52.323833"
         y="72.983002"
         id="tspan21440">KOREAN GLASS THERAPY</tspan><tspan
         sodipodi:role="line"
         style="font-style:normal;font-variant:normal;font-weight:normal;font-stretch:normal;font-family:Dubai;-inkscape-font-specification:Dubai;text-align:end;direction:ltr;baseline-shift:baseline;text-anchor:end;fill:#000000;fill-opacity:1;stroke:none;stroke-width:0.403902"
         x="52.323833"
         y="77.255127"
         id="tspan21444">CO2 FRACTIONAL LASER</tspan><tspan
         sodipodi:role="line"
         style="font-style:normal;font-variant:normal;font-weight:normal;font-stretch:normal;font-family:Dubai;-inkscape-font-specification:Dubai;text-align:end;direction:ltr;baseline-shift:baseline;text-anchor:end;fill:#000000;fill-opacity:1;stroke:none;stroke-width:0.403902"
         x="52.323833"
         y="81.527252"
         id="tspan540-9-4">ACNE / ACNE SCARS</tspan><tspan
         sodipodi:role="line"
         style="font-style:normal;font-variant:normal;font-weight:normal;font-stretch:normal;font-family:Dubai;-inkscape-font-specification:Dubai;text-align:end;direction:ltr;baseline-shift:baseline;text-anchor:end;fill:#000000;fill-opacity:1;stroke:none;stroke-width:0.403902"
         x="52.323833"
         y="85.799377"
         id="tspan35944-3">WARTS / SKIN TAGS / MOLES</tspan><tspan
         sodipodi:role="line"
         style="font-style:normal;font-variant:normal;font-weight:normal;font-stretch:normal;font-family:Dubai;-inkscape-font-specification:Dubai;text-align:end;direction:ltr;baseline-shift:baseline;text-anchor:end;fill:#000000;fill-opacity:1;stroke:none;stroke-width:0.403902"
         x="52.323833"
         y="90.07151"
         id="tspan142138-9">DRY / PATCHY SKIN</tspan><tspan
         sodipodi:role="line"
         style="font-style:normal;font-variant:normal;font-weight:normal;font-stretch:normal;font-family:Dubai;-inkscape-font-specification:Dubai;text-align:end;direction:ltr;baseline-shift:baseline;text-anchor:end;fill:#000000;fill-opacity:1;stroke:none;stroke-width:0.403902"
         x="52.323833"
         y="94.343636"
         id="tspan12045-8">AGE / DARK SPOTS</tspan><tspan
         sodipodi:role="line"
         style="font-style:normal;font-variant:normal;font-weight:normal;font-stretch:normal;font-family:Dubai;-inkscape-font-specification:Dubai;text-align:end;direction:ltr;baseline-shift:baseline;text-anchor:end;fill:#000000;fill-opacity:1;stroke:none;stroke-width:0.403902"
         x="52.323833"
         y="98.615761"
         id="tspan12047-2">TATTOO REMOVAL</tspan><tspan
         sodipodi:role="line"
         style="font-style:normal;font-variant:normal;font-weight:normal;font-stretch:normal;font-family:Dubai;-inkscape-font-specification:Dubai;text-align:end;direction:ltr;baseline-shift:baseline;text-anchor:end;fill:#000000;fill-opacity:1;stroke:none;stroke-width:0.403902"
         x="52.323833"
         y="102.88789"
         id="tspan12049-0">CHEMICAL PEELS</tspan><tspan
         sodipodi:role="line"
         style="font-style:normal;font-variant:normal;font-weight:normal;font-stretch:normal;font-family:Dubai;-inkscape-font-specification:Dubai;text-align:end;direction:ltr;baseline-shift:baseline;text-anchor:end;fill:#000000;fill-opacity:1;stroke:none;stroke-width:0.403902"
         x="52.323833"
         y="107.16002"
         id="tspan12051-6">PIGMENTATION / MELASMA</tspan><tspan
         sodipodi:role="line"
         style="font-style:normal;font-variant:normal;font-weight:normal;font-stretch:normal;font-family:Dubai;-inkscape-font-specification:Dubai;text-align:end;direction:ltr;baseline-shift:baseline;text-anchor:end;fill:#000000;fill-opacity:1;stroke:none;stroke-width:0.403902"
         x="52.323833"
         y="111.43215"
         id="tspan12053-3">TANNING</tspan><tspan
         sodipodi:role="line"
         style="font-style:normal;font-variant:normal;font-weight:normal;font-stretch:normal;font-family:Dubai;-inkscape-font-specification:Dubai;text-align:end;direction:ltr;baseline-shift:baseline;text-anchor:end;fill:#000000;fill-opacity:1;stroke:none;stroke-width:0.403902"
         x="52.323833"
         y="115.70428"
         id="tspan12079-9">SKIN WHITENING</tspan><tspan
         sodipodi:role="line"
         style="font-style:normal;font-variant:normal;font-weight:normal;font-stretch:normal;font-family:Dubai;-inkscape-font-specification:Dubai;text-align:end;direction:ltr;baseline-shift:baseline;text-anchor:end;fill:#000000;fill-opacity:1;stroke:none;stroke-width:0.403902"
         x="52.323833"
         y="119.97641"
         id="tspan12081-7">CARBON LASER PEEL</tspan><tspan
         sodipodi:role="line"
         style="font-style:normal;font-variant:normal;font-weight:normal;font-stretch:normal;font-family:Dubai;-inkscape-font-specification:Dubai;text-align:end;direction:ltr;baseline-shift:baseline;text-anchor:end;fill:#000000;fill-opacity:1;stroke:none;stroke-width:0.403902"
         x="52.323833"
         y="124.24853"
         id="tspan12083-6">MICRONEEDLING</tspan><tspan
         sodipodi:role="line"
         style="font-style:normal;font-variant:normal;font-weight:normal;font-stretch:normal;font-family:Dubai;-inkscape-font-specification:Dubai;text-align:end;direction:ltr;baseline-shift:baseline;text-anchor:end;fill:#000000;fill-opacity:1;stroke:none;stroke-width:0.403902"
         x="52.323833"
         y="128.52066"
         id="tspan12085-6">KELOID</tspan><tspan
         sodipodi:role="line"
         style="font-style:normal;font-variant:normal;font-weight:normal;font-stretch:normal;font-family:Dubai;-inkscape-font-specification:Dubai;text-align:end;direction:ltr;baseline-shift:baseline;text-anchor:end;fill:#000000;fill-opacity:1;stroke:none;stroke-width:0.403902"
         x="52.323833"
         y="132.79279"
         id="tspan12087-4">LARGE PORES</tspan><tspan
         sodipodi:role="line"
         style="font-style:normal;font-variant:normal;font-weight:normal;font-stretch:normal;font-family:Dubai;-inkscape-font-specification:Dubai;text-align:end;direction:ltr;baseline-shift:baseline;text-anchor:end;fill:#000000;fill-opacity:1;stroke:none;stroke-width:0.403902"
         x="52.323833"
         y="137.06493"
         id="tspan36694-7">PRP SKIN</tspan><tspan
         sodipodi:role="line"
         style="font-style:normal;font-variant:normal;font-weight:normal;font-stretch:normal;font-family:Dubai;-inkscape-font-specification:Dubai;text-align:end;direction:ltr;baseline-shift:baseline;text-anchor:end;fill:#000000;fill-opacity:1;stroke:none;stroke-width:0.403902"
         x="52.323833"
         y="141.33704"
         id="tspan35958-2">BIO GEL FILLER</tspan><tspan
         sodipodi:role="line"
         style="font-style:normal;font-variant:normal;font-weight:normal;font-stretch:normal;font-family:Dubai;-inkscape-font-specification:Dubai;text-align:end;direction:ltr;baseline-shift:baseline;text-anchor:end;fill:#000000;fill-opacity:1;stroke:none;stroke-width:0.403902"
         x="52.323833"
         y="145.60916"
         id="tspan35960-2">HIFU SKIN TIGHTENING</tspan><tspan
         sodipodi:role="line"
         style="font-style:normal;font-variant:normal;font-weight:normal;font-stretch:normal;font-family:Dubai;-inkscape-font-specification:Dubai;text-align:end;direction:ltr;baseline-shift:baseline;text-anchor:end;fill:#000000;fill-opacity:1;stroke:none;stroke-width:0.403902"
         x="52.323833"
         y="149.8813"
         id="tspan21436">WRINKLES</tspan><tspan
         sodipodi:role="line"
         style="font-style:normal;font-variant:normal;font-weight:normal;font-stretch:normal;font-family:Dubai;-inkscape-font-specification:Dubai;text-align:end;direction:ltr;baseline-shift:baseline;text-anchor:end;fill:#000000;fill-opacity:1;stroke:none;stroke-width:0.403902"
         x="52.323833"
         y="154.15341"
         id="tspan18547">MESOTHERAPY</tspan><tspan
         sodipodi:role="line"
         style="font-style:normal;font-variant:normal;font-weight:normal;font-stretch:normal;font-family:Dubai;-inkscape-font-specification:Dubai;text-align:end;direction:ltr;baseline-shift:baseline;text-anchor:end;fill:#000000;fill-opacity:1;stroke:none;stroke-width:0.403902"
         x="52.323833"
         y="158.42555"
         id="tspan37567-4">UNDER EYE BAGS</tspan><tspan
         sodipodi:role="line"
         style="font-style:normal;font-variant:normal;font-weight:normal;font-stretch:normal;font-family:Dubai;-inkscape-font-specification:Dubai;text-align:end;direction:ltr;baseline-shift:baseline;text-anchor:end;fill:#000000;fill-opacity:1;stroke:none;stroke-width:0.403902"
         x="52.323833"
         y="162.69768"
         id="tspan35962-7">VAGINAL REJUVENATION</tspan><tspan
         sodipodi:role="line"
         style="font-style:normal;font-variant:normal;font-weight:normal;font-stretch:normal;font-family:Dubai;-inkscape-font-specification:Dubai;text-align:end;direction:ltr;baseline-shift:baseline;text-anchor:end;fill:#000000;fill-opacity:1;stroke:none;stroke-width:0.403902"
         x="52.323833"
         y="166.96982"
         id="tspan36700-0">URINARY-INCONTINENCE (SUI)</tspan><tspan
         sodipodi:role="line"
         style="font-style:normal;font-variant:normal;font-weight:normal;font-stretch:normal;font-family:Dubai;-inkscape-font-specification:Dubai;text-align:end;direction:ltr;baseline-shift:baseline;text-anchor:end;fill:#000000;fill-opacity:1;stroke:none;stroke-width:0.403902"
         x="52.323833"
         y="171.24193"
         id="tspan36696-5">IV VITAMIN BOOSTER</tspan><tspan
         sodipodi:role="line"
         style="font-style:normal;font-variant:normal;font-weight:normal;font-stretch:normal;font-family:Dubai;-inkscape-font-specification:Dubai;text-align:end;direction:ltr;baseline-shift:baseline;text-anchor:end;fill:#000000;fill-opacity:1;stroke:none;stroke-width:0.403902"
         x="52.323833"
         y="175.51407"
         id="tspan21442">IV GLUTATHIONE</tspan><tspan
         sodipodi:role="line"
         style="font-style:normal;font-variant:normal;font-weight:bold;font-stretch:normal;font-family:Dubai;-inkscape-font-specification:Dubai;text-align:end;direction:ltr;baseline-shift:baseline;text-anchor:end;fill:#000000;fill-opacity:1;stroke:none;stroke-width:0.403902"
         x="52.323833"
         y="179.78619"
         id="tspan28829">HAIR</tspan><tspan
         sodipodi:role="line"
         style="font-style:normal;font-variant:normal;font-weight:normal;font-stretch:normal;font-family:Dubai;-inkscape-font-specification:Dubai;text-align:end;direction:ltr;baseline-shift:baseline;text-anchor:end;fill:#000000;fill-opacity:1;stroke:none;stroke-width:0.403902"
         x="52.323833"
         y="184.05832"
         id="tspan36692-1">PRP</tspan><tspan
         sodipodi:role="line"
         style="font-style:normal;font-variant:normal;font-weight:normal;font-stretch:normal;font-family:Dubai;-inkscape-font-specification:Dubai;text-align:end;direction:ltr;baseline-shift:baseline;text-anchor:end;fill:#000000;fill-opacity:1;stroke:none;stroke-width:0.403902"
         x="52.323833"
         y="188.33044"
         id="tspan28885">GFC -  GROWTH FACTOR</tspan><tspan
         sodipodi:role="line"
         style="font-style:normal;font-variant:normal;font-weight:normal;font-stretch:normal;font-family:Dubai;-inkscape-font-specification:Dubai;text-align:end;direction:ltr;baseline-shift:baseline;text-anchor:end;fill:#000000;fill-opacity:1;stroke:none;stroke-width:0.403902"
         x="52.323833"
         y="192.60257"
         id="tspan28887">HAIR GROWTH</tspan><tspan
         sodipodi:role="line"
         style="font-style:normal;font-variant:normal;font-weight:normal;font-stretch:normal;font-family:Dubai;-inkscape-font-specification:Dubai;text-align:end;direction:ltr;baseline-shift:baseline;text-anchor:end;fill:#000000;fill-opacity:1;stroke:none;stroke-width:0.403902"
         x="52.323833"
         y="196.87469"
         id="tspan28889">HAIR FALL</tspan><tspan
         sodipodi:role="line"
         style="font-style:normal;font-variant:normal;font-weight:normal;font-stretch:normal;font-family:Dubai;-inkscape-font-specification:Dubai;text-align:end;direction:ltr;baseline-shift:baseline;text-anchor:end;fill:#000000;fill-opacity:1;stroke:none;stroke-width:0.403902"
         x="52.323833"
         y="201.14682"
         id="tspan28891">EXOSOMES</tspan><tspan
         sodipodi:role="line"
         style="font-style:normal;font-variant:normal;font-weight:normal;font-stretch:normal;font-family:Dubai;-inkscape-font-specification:Dubai;text-align:end;direction:ltr;baseline-shift:baseline;text-anchor:end;fill:#000000;fill-opacity:1;stroke:none;stroke-width:0.403902"
         x="52.323833"
         y="205.41896"
         id="tspan28893">STEMCELL</tspan><tspan
         sodipodi:role="line"
         style="font-style:normal;font-variant:normal;font-weight:normal;font-stretch:normal;font-family:Dubai;-inkscape-font-specification:Dubai;text-align:end;direction:ltr;baseline-shift:baseline;text-anchor:end;fill:#000000;fill-opacity:1;stroke:none;stroke-width:0.403902"
         x="52.323833"
         y="209.69109"
         id="tspan28895">DANDRUFF</tspan><tspan
         sodipodi:role="line"
         style="font-style:normal;font-variant:normal;font-weight:bold;font-stretch:normal;font-family:Dubai;-inkscape-font-specification:Dubai;text-align:end;direction:ltr;baseline-shift:baseline;text-anchor:end;fill:#000000;fill-opacity:1;stroke:none;stroke-width:0.403902"
         x="52.323833"
         y="213.96321"
         id="tspan28903">OBESITY</tspan><tspan
         sodipodi:role="line"
         style="font-style:normal;font-variant:normal;font-weight:normal;font-stretch:normal;font-family:Dubai;-inkscape-font-specification:Dubai;text-align:end;direction:ltr;baseline-shift:baseline;text-anchor:end;fill:#000000;fill-opacity:1;stroke:none;stroke-width:0.403902"
         x="52.323833"
         y="218.23534"
         id="tspan28897">NECK TIGHTENING</tspan><tspan
         sodipodi:role="line"
         style="font-style:normal;font-variant:normal;font-weight:normal;font-stretch:normal;font-family:Dubai;-inkscape-font-specification:Dubai;text-align:end;direction:ltr;baseline-shift:baseline;text-anchor:end;fill:#000000;fill-opacity:1;stroke:none;stroke-width:0.403902"
         x="52.323833"
         y="222.50748"
         id="tspan28932">DOUBLE CHIN</tspan><tspan
         sodipodi:role="line"
         style="font-style:normal;font-variant:normal;font-weight:normal;font-stretch:normal;font-family:Dubai;-inkscape-font-specification:Dubai;text-align:end;direction:ltr;baseline-shift:baseline;text-anchor:end;fill:#000000;fill-opacity:1;stroke:none;stroke-width:0.403902"
         x="52.323833"
         y="226.77959"
         id="tspan28934">TUMMY TIGHTENING</tspan><tspan
         sodipodi:role="line"
         style="font-style:normal;font-variant:normal;font-weight:normal;font-stretch:normal;font-family:Dubai;-inkscape-font-specification:Dubai;text-align:end;direction:ltr;baseline-shift:baseline;text-anchor:end;fill:#000000;fill-opacity:1;stroke:none;stroke-width:0.403902"
         x="52.323833"
         y="231.05173"
         id="tspan28936">ARM TIGHTENING</tspan><tspan
         sodipodi:role="line"
         style="font-style:normal;font-variant:normal;font-weight:normal;font-stretch:normal;font-family:Dubai;-inkscape-font-specification:Dubai;text-align:end;direction:ltr;baseline-shift:baseline;text-anchor:end;fill:#000000;fill-opacity:1;stroke:none;stroke-width:0.403902"
         x="52.323833"
         y="235.32385"
         id="tspan28938">LIPO DISSOLVE</tspan><tspan
         sodipodi:role="line"
         style="font-style:normal;font-variant:normal;font-weight:normal;font-stretch:normal;font-family:Dubai;-inkscape-font-specification:Dubai;text-align:end;direction:ltr;baseline-shift:baseline;text-anchor:end;fill:#000000;fill-opacity:1;stroke:none;stroke-width:0.403902"
         x="52.323833"
         y="239.59598"
         id="tspan28942">EMS</tspan><tspan
         sodipodi:role="line"
         style="font-style:normal;font-variant:normal;font-weight:normal;font-stretch:normal;font-family:Dubai;-inkscape-font-specification:Dubai;text-align:end;direction:ltr;baseline-shift:baseline;text-anchor:end;fill:#000000;fill-opacity:1;stroke:none;stroke-width:0.403902"
         x="52.323833"
         y="243.8681"
         id="tspan28899" /><tspan
         sodipodi:role="line"
         style="font-style:normal;font-variant:normal;font-weight:normal;font-stretch:normal;font-family:Dubai;-inkscape-font-specification:Dubai;text-align:end;direction:ltr;baseline-shift:baseline;text-anchor:end;fill:#000000;fill-opacity:1;stroke:none;stroke-width:0.403902"
         x="52.323833"
         y="248.14023"
         id="tspan28901" /></text><text
       xml:space="preserve"
       style="font-style:normal;font-variant:normal;font-weight:normal;font-stretch:normal;font-size:4.9px;font-family:Arial;-inkscape-font-specification:Arial;fill:#006a6a;fill-opacity:1;stroke:none;stroke-width:1.52215;stroke-opacity:1"
       x="2.3195484"
       y="86.214157"
       id="text6403-6"
       transform="scale(1.0161609,0.98409612)"><tspan
         sodipodi:role="line"
         style="font-style:normal;font-variant:normal;font-weight:normal;font-stretch:normal;font-size:4.9px;font-family:Arial;-inkscape-font-specification:Arial;fill:#006a6a;fill-opacity:1;stroke-width:1.52215"
         x="2.3195484"
         y="86.214157"
         id="tspan6495" /></text><text
       xml:space="preserve"
       style="font-style:normal;font-variant:normal;font-weight:normal;font-stretch:normal;font-size:3px;font-family:Arial;-inkscape-font-specification:Arial;fill:#2d949d;fill-opacity:0.0899654;stroke-width:0.0410001"
       x="33.177422"
       y="66"
       id="text12041"><tspan
         sodipodi:role="line"
         id="tspan12039"
         style="stroke-width:0.041"
         x="33.177422"
         y="66" /><tspan
         sodipodi:role="line"
         style="stroke-width:0.041"
         id="tspan12043"
         x="33.177422"
         y="69.75" /></text><text
       xml:space="preserve"
       transform="scale(0.26458333)"
       id="text28958"
       style="font-style:normal;font-variant:normal;font-weight:normal;font-stretch:condensed;font-size:18.8976px;font-family:Arial;-inkscape-font-specification:'Arial Condensed';direction:ltr;white-space:pre;shape-inside:url(#rect28960);display:inline;fill:#2d949d;fill-opacity:0.06;stroke-width:0.154961" /><text
       xml:space="preserve"
       style="font-style:normal;font-variant:normal;font-weight:normal;font-stretch:condensed;font-size:4.99999px;font-family:Arial;-inkscape-font-specification:'Arial Condensed';direction:ltr;fill:#ec7345;fill-opacity:1;stroke-width:0.0410001"
       x="25.814516"
       y="125.52419"
       id="text35950"><tspan
         sodipodi:role="line"
         id="tspan35948"
         style="stroke-width:0.041"
         x="25.814516"
         y="125.52419" /><tspan
         sodipodi:role="line"
         style="stroke-width:0.041"
         id="tspan35952"
         x="25.814516"
         y="131.77419" /></text><text
       xml:space="preserve"
       transform="scale(0.26458333)"
       id="text11595"
       style="font-style:normal;font-variant:normal;font-weight:normal;font-stretch:condensed;font-size:11.3386px;font-family:Arial;-inkscape-font-specification:'Arial Condensed';white-space:pre;shape-inside:url(#rect11597);display:inline;fill:#3d8c95;fill-opacity:0.06;stroke-width:0.154961" /><text
       xml:space="preserve"
       transform="scale(0.26458333)"
       id="text11851"
       style="font-style:normal;font-variant:normal;font-weight:normal;font-stretch:condensed;font-size:11.3386px;font-family:Arial;-inkscape-font-specification:'Arial Condensed';white-space:pre;shape-inside:url(#rect11853);display:inline;fill:#225675;fill-opacity:1;stroke-width:0.154961" /><text
       xml:space="preserve"
       style="font-style:normal;font-variant:normal;font-weight:normal;font-stretch:normal;font-size:4.02069px;font-family:Arial;-inkscape-font-specification:Arial;text-decoration:underline;text-decoration-line:underline;fill:#000000;fill-opacity:1;stroke-width:0.0507227"
       x="2.7684264"
       y="34.112896"
       id="text12042"
       transform="scale(0.87312521,1.1453111)"><tspan
         sodipodi:role="line"
         id="tspan12040"
         style="font-style:normal;font-variant:normal;font-weight:bold;font-stretch:normal;font-size:4.02069px;font-family:'Bradley Hand ITC';-inkscape-font-specification:'Bradley Hand ITC Bold';fill:#000000;fill-opacity:1;stroke-width:0.0507226"
         x="2.7684264"
         y="34.112896" /></text><text
       xml:space="preserve"
       style="font-style:normal;font-variant:normal;font-weight:normal;font-stretch:normal;font-size:4.02069px;font-family:Arial;-inkscape-font-specification:Arial;text-decoration:underline;text-decoration-line:underline;fill:#000000;fill-opacity:1;stroke-width:0.0507227"
       x="16.154127"
       y="219.12103"
       id="text12042-9"
       transform="scale(0.87312521,1.1453111)"><tspan
         sodipodi:role="line"
         id="tspan12040-1"
         style="font-style:normal;font-variant:normal;font-weight:bold;font-stretch:normal;font-size:4.02069px;font-family:'Bradley Hand ITC';-inkscape-font-specification:'Bradley Hand ITC Bold';fill:#000000;fill-opacity:1;stroke-width:0.0507226"
         x="16.154127"
         y="219.12103" /></text><text
       xml:space="preserve"
       style="font-style:normal;font-variant:normal;font-weight:normal;font-stretch:normal;font-size:4.02069px;font-family:Arial;-inkscape-font-specification:Arial;text-decoration:underline;text-decoration-line:underline;fill:#000000;fill-opacity:1;stroke-width:0.0507227"
       x="20.325136"
       y="186.29318"
       id="text12042-0"
       transform="scale(0.87312521,1.1453111)"><tspan
         sodipodi:role="line"
         id="tspan12040-7"
         style="font-style:normal;font-variant:normal;font-weight:bold;font-stretch:normal;font-size:4.02069px;font-family:'Bradley Hand ITC';-inkscape-font-specification:'Bradley Hand ITC Bold';fill:#000000;fill-opacity:1;stroke-width:0.0507226"
         x="20.325136"
         y="186.29318" /></text><g
       style="font-style:normal;font-variant:normal;font-weight:normal;font-stretch:normal;font-size:200px;line-height:125%;font-family:'Palatino Linotype';-inkscape-font-specification:'Palatino Linotype';letter-spacing:0px;word-spacing:0px;fill:#000000;fill-opacity:1;stroke:none"
       id="text2989"
       transform="matrix(0.26458333,0,0,0.26458333,-43.667913,68.827343)" /><g
       style="font-style:normal;font-variant:normal;font-weight:normal;font-stretch:normal;font-size:200px;line-height:125%;font-family:'Palatino Linotype';-inkscape-font-specification:'Palatino Linotype';text-align:start;letter-spacing:0px;word-spacing:0px;writing-mode:lr-tb;text-anchor:start;fill:#095490;fill-opacity:0.89019608;stroke:none"
       id="text2985"
       transform="matrix(0.0589676,0,0,0.04976945,39.11024,21.856112)"><path
         d="m 318.28125,282.84375 c -2.08341,1.3e-4 -5.44017,0.0574 -10.0625,0.1875 -12.50005,0.45587 -22.42452,0.68764 -29.78125,0.6875 -6.64065,1.4e-4 -15.92971,-0.26028 -27.84375,-0.78125 l -0.78125,0.6875 v 4.875 l 0.78125,0.6875 c 6.90103,0.26055 11.24217,0.63815 13,1.09375 1.75779,0.45586 2.94399,1.03399 3.5625,1.75 0.61847,0.71628 1.08201,2.13294 1.375,4.28125 0.29294,2.14856 0.46615,6.95324 0.53125,14.375 l 0.1875,19.03125 v 45.21875 l -0.0937,20.59375 c -0.0651,6.96616 -0.32684,11.48179 -0.75,13.5 -0.4232,2.01824 -0.97268,3.31902 -1.65625,3.9375 -0.68362,0.6185 -2.01304,1.14063 -4.03125,1.53125 -2.01824,0.39063 -6.07033,0.70834 -12.125,0.96875 l -0.78125,0.59375 v 4.875 l 0.78125,0.78125 c 16.60154,-0.52083 25.91924,-0.78125 27.9375,-0.78125 2.60414,0 6.22131,0.0573 10.84375,0.1875 11.13276,0.39062 16.86192,0.59375 17.1875,0.59375 l 0.78125,-0.78125 v -4.875 l -0.78125,-0.59375 c -6.9011,-0.26041 -11.24224,-0.63672 -13,-1.125 -1.75786,-0.48828 -2.94405,-1.09635 -3.5625,-1.8125 -0.61853,-0.71614 -1.08077,-2.1328 -1.40625,-4.28125 -0.32557,-2.14842 -0.52865,-6.92446 -0.59375,-14.28125 l -0.0937,-19.03125 v -45.21875 c -4e-5,-22.98166 0.49214,-35.19258 1.46875,-36.625 6.05464,-1.88789 12.4765,-2.81237 19.3125,-2.8125 9.76555,1.3e-4 17.52076,2.19935 23.25,6.59375 5.72908,4.39465 8.59366,10.87511 8.59375,19.46875 -9e-5,9.57041 -3.18238,17.06519 -9.5625,22.46875 -6.38029,5.40372 -15.2058,8.09382 -26.46875,8.09375 -1.88808,7e-5 -4.52089,-0.0859 -7.90625,-0.28125 l -0.96875,3.03125 c 11.71869,13.34641 23.17701,27.81255 34.375,43.4375 9.18651,12.84885 15.95732,21.96162 20.46875,27.53125 l 3.0625,5.125 -26.65625,37.46875 c -6.83596,9.50523 -11.43752,15.75653 -13.78125,18.71875 -2.34377,2.96225 -4.25262,4.81381 -5.75,5.5625 -1.49741,0.7487 -4.45053,1.15365 -8.8125,1.21875 L 297.75,489.5 v 4.6875 l 0.875,0.875 c 4.10155,-0.26042 7.40103,-0.375 9.875,-0.375 2.40883,0 5.73696,0.11458 9.96875,0.375 12.69528,-21.28904 23.71871,-38.39059 33.09375,-51.28125 l 7.125,-9.84375 29.6875,43.84375 c 3.32022,5.72918 6.9374,11.48698 10.84375,17.28125 6.70562,-0.26042 11.71082,-0.375 15.03125,-0.375 2.53894,0 6.90873,0.11458 13.09375,0.375 l 0.78125,-0.78125 V 489.5 l -0.78125,-0.78125 c -4.16679,-0.0651 -6.82824,-0.35547 -8,-0.84375 -1.17199,-0.48828 -2.73579,-1.96223 -4.65625,-4.46875 -1.92069,-2.5065 -4.43761,-6.29685 -7.5625,-11.375 L 370.59375,419.3125 c -0.0745,-0.35621 -0.21081,-0.71075 -0.375,-1.09375 L 377.34375,408.75 395.5,384.125 c 6.5103,-8.78894 10.8215,-14.28633 12.9375,-16.5 2.11577,-2.21341 3.85275,-3.60273 5.1875,-4.15625 1.33451,-0.55325 4.05456,-0.92956 8.15625,-1.125 l 0.78125,-0.78125 v -4.375 l -0.78125,-0.90625 c -5.53398,0.19547 -8.57304,0.31264 -9.09375,0.3125 -1.172,1.4e-4 -4.49751,-0.11705 -10.03125,-0.3125 l -37.3125,54.75 c -1.46152,-1.87128 -3.53556,-4.88231 -6.75,-9.09375 -5.14334,-6.73825 -9.94541,-13.13278 -14.4375,-19.1875 l -13.875,-18.34375 c -4.75269,-6.24994 -8.05216,-10.64837 -9.875,-13.1875 9.83064,-1.88795 17.5572,-4.72519 23.15625,-8.46875 5.59885,-3.74341 9.82281,-8.22648 12.6875,-13.5 2.86447,-5.27335 4.31239,-10.65614 4.3125,-16.125 -1.1e-4,-8.203 -2.92198,-15.29154 -8.78125,-21.28125 -5.85947,-5.98945 -17.02874,-8.99987 -33.5,-9 z"
         id="path2997"
         inkscape:connector-curvature="0"
         style="fill:#095490;fill-opacity:0.89019608" /></g><path
       style="fill:#3b77a8;fill-opacity:1;stroke-width:0.0402373"
       d="m 29.478853,250.97112 -3.664587,-0.37229"
       id="path18532" /><text
       xml:space="preserve"
       style="font-weight:bold;font-stretch:condensed;font-size:3.25001px;font-family:Arial;-inkscape-font-specification:'Arial Bold Condensed';fill:#3b77a8;fill-opacity:1;stroke-width:0.0410001"
       x="2.6345429"
       y="266.08884"
       id="text19405"><tspan
         sodipodi:role="line"
         id="tspan19403"
         style="stroke-width:0.041"
         x="2.6345429"
         y="266.08884" /></text><rect
       style="opacity:1;fill:#095490;fill-opacity:0.89019608;stroke-width:0.0236541"
       id="rect65084"
       width="105.68305"
       height="0.17805061"
       x="96.579704"
       y="33.725594" /><rect
       style="opacity:1;fill:#000000;fill-opacity:1;stroke-width:0.0352681"
       id="rect65084-8"
       width="234.94089"
       height="0.17805061"
       x="-16.253925"
       y="281.11227" /><text
       xml:space="preserve"
       transform="scale(0.26458333)"
       id="text81771"
       style="font-style:normal;font-variant:normal;font-weight:bold;font-stretch:normal;font-size:9.44882px;font-family:Dubai;-inkscape-font-specification:'Dubai Bold';text-align:end;white-space:pre;shape-inside:url(#rect81773);display:inline;opacity:0.4;fill:#777b97;fill-opacity:1;stroke-width:0.154961" /><g
       id="g106133"
       transform="matrix(0.0838382,0,0,0.09956407,-15.074443,128.29404)"
       style="fill:#108ff5;fill-opacity:1" /><text
       xml:space="preserve"
       transform="scale(0.26458333)"
       id="text2298"
       style="font-style:normal;font-variant:normal;font-weight:normal;font-stretch:normal;font-size:9.44882px;font-family:Dubai;-inkscape-font-specification:Dubai;text-align:end;white-space:pre;shape-inside:url(#rect2300);display:inline;opacity:0.926121;fill:#4d4d4d;fill-opacity:1;stroke-width:0.154961" /></g></svg>
