<?xml version="1.0" encoding="UTF-8" standalone="no"?>
<!-- Created with Inkscape (http://www.inkscape.org/) -->

<svg
   width="210mm"
   height="297mm"
   viewBox="0 0 210 297"
   version="1.1"
   id="svg438"
   xml:space="preserve"
   inkscape:version="1.2.2 (732a01da63, 2022-12-09)"
   sodipodi:docname="LETERHEAD - Copy (4).svg"
   inkscape:export-filename="LETERHEAD_bluegreen.pdf"
   inkscape:export-xdpi="96"
   inkscape:export-ydpi="96"
   xmlns:inkscape="http://www.inkscape.org/namespaces/inkscape"
   xmlns:sodipodi="http://sodipodi.sourceforge.net/DTD/sodipodi-0.dtd"
   xmlns:xlink="http://www.w3.org/1999/xlink"
   xmlns="http://www.w3.org/2000/svg"
   xmlns:svg="http://www.w3.org/2000/svg"><sodipodi:namedview
     id="namedview440"
     pagecolor="#ffffff"
     bordercolor="#000000"
     borderopacity="0.25"
     inkscape:showpageshadow="2"
     inkscape:pageopacity="0.45098039"
     inkscape:pagecheckerboard="0"
     inkscape:deskcolor="#d1d1d1"
     inkscape:document-units="mm"
     showgrid="false"
     inkscape:zoom="0.70710678"
     inkscape:cx="321.73359"
     inkscape:cy="823.07229"
     inkscape:window-width="1920"
     inkscape:window-height="1017"
     inkscape:window-x="-8"
     inkscape:window-y="-8"
     inkscape:window-maximized="1"
     inkscape:current-layer="layer1"
     showguides="true" /><defs
     id="defs435"><linearGradient
       inkscape:collect="always"
       id="linearGradient4856"><stop
         style="stop-color:#6e7291;stop-opacity:1;"
         offset="0"
         id="stop4852" /><stop
         style="stop-color:#ffffff;stop-opacity:0;"
         offset="1"
         id="stop4854" /></linearGradient><linearGradient
       inkscape:collect="always"
       id="linearGradient4848"><stop
         style="stop-color:#09ccf6;stop-opacity:1;"
         offset="0"
         id="stop4844" /><stop
         style="stop-color:#ffffff;stop-opacity:0;"
         offset="1"
         id="stop4846" /></linearGradient><rect
       x="78.488853"
       y="917.1175"
       width="37.476659"
       height="33.941126"
       id="rect2300" /><rect
       x="895.21117"
       y="-53.105747"
       width="632.52738"
       height="243.71745"
       id="rect81773" /><rect
       x="598.62506"
       y="16.358467"
       width="87.00808"
       height="100.5216"
       id="rect11853" /><rect
       x="610.71613"
       y="92.935059"
       width="170.69705"
       height="18.966339"
       id="rect11847" /><rect
       x="148.88576"
       y="33.191093"
       width="436.2258"
       height="77.761986"
       id="rect11597" /><rect
       x="610.21082"
       y="116.67767"
       width="142.159"
       height="113.99543"
       id="rect28960" /><clipPath
       clipPathUnits="userSpaceOnUse"
       id="clipPath364"><path
         d="M 0,0 H 5185 V 1728 H 0 Z"
         id="path362" /></clipPath><clipPath
       clipPathUnits="userSpaceOnUse"
       id="clipPath668"><path
         d="M 0,0 H 5185 V 1728 H 0 Z"
         id="path666" /></clipPath><linearGradient
       inkscape:collect="always"
       id="linearGradient14071"><stop
         style="stop-color:#4bcec8;stop-opacity:0.80784315;"
         offset="0"
         id="stop14067" /><stop
         style="stop-color:#ffffff;stop-opacity:0.3019608;"
         offset="1"
         id="stop14069" /></linearGradient><linearGradient
       inkscape:collect="always"
       xlink:href="#linearGradient14071"
       id="linearGradient14073-6"
       x1="15.103454"
       y1="291.319"
       x2="93.848785"
       y2="300.09576"
       gradientUnits="userSpaceOnUse"
       gradientTransform="matrix(1.1434887,0.02288473,0.02206617,1.7224754,-76.432407,-333.36377)" /><clipPath
       clipPathUnits="userSpaceOnUse"
       id="clipPath668-6"><path
         d="M 0,0 H 5185 V 1728 H 0 Z"
         id="path666-2" /></clipPath><linearGradient
       inkscape:collect="always"
       xlink:href="#linearGradient4848"
       id="linearGradient4850"
       x1="117.54005"
       y1="26.068972"
       x2="101.68872"
       y2="37.039028"
       gradientUnits="userSpaceOnUse"
       gradientTransform="matrix(3.3701004,3.8721711,-2.6899276,5.5306222,-240.1309,-528.99394)" /><linearGradient
       inkscape:collect="always"
       xlink:href="#linearGradient4856"
       id="linearGradient4858-9"
       x1="102.81294"
       y1="22.978626"
       x2="78.854805"
       y2="24.114344"
       gradientUnits="userSpaceOnUse"
       gradientTransform="matrix(2.2224597,2.5555768,-1.7739102,3.6501305,-139.01255,-323.34716)" /><linearGradient
       inkscape:collect="always"
       xlink:href="#linearGradient4864"
       id="linearGradient4866"
       x1="79.309235"
       y1="30.10652"
       x2="66.920822"
       y2="36.057705"
       gradientUnits="userSpaceOnUse"
       gradientTransform="matrix(1.0042124,-0.00275884,-0.00314515,1.0024739,50.905879,10.772543)" /><linearGradient
       inkscape:collect="always"
       id="linearGradient4864"><stop
         style="stop-color:#47cdc4;stop-opacity:1;"
         offset="0"
         id="stop4860" /><stop
         style="stop-color:#ffffff;stop-opacity:0;"
         offset="1"
         id="stop4862" /></linearGradient></defs><g
     inkscape:label="Layer 1"
     inkscape:groupmode="layer"
     id="layer1"><g
       id="g14910"
       transform="matrix(0.97368322,0,0,0.98916994,76.286071,55.712722)"><rect
         style="fill:#0971c3;fill-opacity:0.890196;stroke-width:0.0410001"
         id="rect4759"
         width="0.06614583"
         height="0.9921875"
         x="81.795502"
         y="34.426125"
         ry="0.033072915" /></g><path
       id="path4656-5-4-3"
       style="opacity:0.255102;fill:url(#linearGradient4858-9);fill-opacity:1;stroke-width:0.145651"
       inkscape:transform-center-x="-12.281396"
       inkscape:transform-center-y="2.536299"
       d="m 0.12314247,-0.35424765 0.0482709,28.79093065 0.12990761,0.11779 v -0.0119 L 44.03157,63.984533 74.21697,33.498042 31.98965,-0.3542517 Z" /><path
       id="path4656-5"
       style="opacity:0.255102;fill:url(#linearGradient4850);fill-opacity:1;stroke-width:0.220264"
       inkscape:transform-center-x="-18.553212"
       inkscape:transform-center-y="3.8396208"
       d="M 74.215247,33.500359 40.50079,67.506795 C 27.083905,81.04767 13.825437,94.942364 0.42335623,108.48485 L 0.43519637,176.79442 111.97797,63.841365 Z"
       sodipodi:nodetypes="cccccc" /><path
       sodipodi:type="star"
       style="opacity:0.255102;fill:url(#linearGradient4866);fill-opacity:1;stroke-width:0.0410001"
       id="path4656-5-4-2"
       inkscape:flatsided="true"
       sodipodi:sides="3"
       sodipodi:cx="128.58749"
       sodipodi:cy="36.909374"
       sodipodi:r1="17.400251"
       sodipodi:r2="8.7001257"
       sodipodi:arg1="1.418147"
       sodipodi:arg2="2.4653445"
       inkscape:rounded="2.5326963e-16"
       inkscape:randomized="3.469447e-18"
       d="M 131.23333,54.10729 112.37075,30.601775 142.15841,26.019057 Z"
       inkscape:transform-center-x="-7.248542"
       inkscape:transform-center-y="1.5134072"
       transform="matrix(1.3082715,1.5258023,-1.0442288,2.1793035,-114.77932,-209.64357)" /><path
       sodipodi:type="star"
       style="fill:url(#linearGradient14073-6);fill-opacity:1;stroke-width:0.0410001"
       id="path11619-9-1"
       inkscape:flatsided="true"
       sodipodi:sides="3"
       sodipodi:cx="6.3870964"
       sodipodi:cy="183.2742"
       sodipodi:r1="24.561529"
       sodipodi:r2="12.280765"
       sodipodi:arg1="1.0068372"
       sodipodi:arg2="2.0540347"
       inkscape:rounded="2.5326963e-16"
       inkscape:randomized="3.469447e-18"
       d="M 19.516128,204.03226 -18.154431,184.26524 17.799592,161.52509 Z"
       inkscape:transform-center-x="6.225739"
       inkscape:transform-center-y="0.012344359"
       transform="matrix(1.0172658,-0.04340173,-0.03871143,-1.0997212,198.35842,226.70119)" /><path
       d="m 34.570336,25.249433 c -0.08012,-0.05996 -0.120507,-0.241595 -0.13075,-0.58798 l -0.01471,-0.501171 -0.333195,-0.09278 c -0.740394,-0.206274 -1.048064,-0.523583 -1.064997,-1.098169 -0.009,-0.301835 0.02405,-0.397131 0.196003,-0.567492 0.221108,-0.219027 0.221273,-0.21844 -0.172132,-0.486819 -0.544721,-0.371624 -0.699507,-1.28956 -0.269264,-1.596942 0.09011,-0.06435 0.163128,-0.141285 0.162301,-0.17095 -0.0012,-0.02967 -0.17692,-0.194057 -0.391175,-0.365327 -0.665232,-0.531798 -0.748323,-0.665881 -0.768476,-1.240631 -0.01628,-0.462861 0.0022,-0.530088 0.212189,-0.776378 0.126455,-0.148328 0.336251,-0.345373 0.466091,-0.437891 l 0.23606,-0.168178 -0.309406,-0.230228 c -0.170233,-0.126616 -0.409018,-0.361486 -0.530683,-0.521926 -0.195754,-0.258299 -0.223754,-0.361967 -0.244236,-0.905131 -0.02008,-0.531955 0.0014,-0.650085 0.160567,-0.889546 0.101098,-0.151905 0.290575,-0.34484 0.421074,-0.428767 0.230033,-0.147903 0.309819,-0.293618 0.159743,-0.29175 -0.04039,4.37e-4 -0.281984,-0.12672 -0.536958,-0.282733 -0.70719,-0.432823 -1.088456,-1.191541 -0.818119,-1.627991 l 0.120428,-0.194481 -0.310893,-0.156814 c -0.30503,-0.153828 -0.475507,-0.319283 -0.729493,-0.708301 l -0.127361,-0.19496 -0.416038,0.09161 c -0.398693,0.08777 -0.434541,0.08712 -0.853799,-0.01544 -0.27422,-0.06711 -0.61146,-0.103724 -0.903191,-0.09806 -0.327328,0.0064 -0.58503,-0.02652 -0.86784,-0.110661 -0.221186,-0.06589 -0.567512,-0.123993 -0.769458,-0.129221 -0.246055,-0.0064 -0.521515,-0.06809 -0.834471,-0.187014 -0.333523,-0.126774 -0.567685,-0.177087 -0.818282,-0.175806 -0.396627,0.0021 -1.047403,-0.1926145 -1.392326,-0.4164941 L 22.87841,9.5428137 23.335663,9.470782 c 0.557112,-0.08777 2.031458,-0.5872335 3.026164,-1.0252316 0.403646,-0.1777271 1.247699,-0.5507375 1.875596,-0.8289345 1.400915,-0.6206358 1.506722,-0.6573963 2.150312,-0.747409 1.490121,-0.20846 2.682315,0.2208943 2.898141,1.0438007 0.08326,0.3171453 -0.04675,0.5975318 -0.399682,0.8622275 -0.149335,0.1119957 -0.270917,0.2254292 -0.27009,0.252055 7.61e-4,0.026678 0.121993,0.1115139 0.269429,0.1886121 0.21665,0.1133265 0.323117,0.1337083 0.555048,0.106444 0.434868,-0.05106 0.500367,-0.1272528 0.494421,-0.5750142 -0.0039,-0.3017816 -0.0484,-0.4526179 -0.182953,-0.6206886 -0.368294,-0.4602473 -0.179646,-0.9575226 0.447343,-1.1792172 0.848925,-0.3001784 1.782344,-0.022675 1.902441,0.5656254 0.03362,0.1646029 -0.0083,0.3009813 -0.163707,0.5318507 -0.18361,0.2728628 -0.204426,0.3669812 -0.171468,0.7759 l 0.03758,0.4654234 0.388448,0.01137 c 0.357148,0.010467 0.88923,-0.1076174 0.88659,-0.1968289 -4.62e-4,-0.018471 -0.09045,-0.1067646 -0.199802,-0.1962959 -0.48773,-0.3991548 -0.547942,-1.0559095 -0.134712,-1.470165 0.512756,-0.514083 1.220278,-0.6885025 2.274701,-0.5608216 0.968029,0.1172205 1.37663,0.2681649 3.749378,1.3851684 0.568016,0.2673655 1.521092,0.6593183 2.118018,0.8709276 1.032866,0.3661274 1.106213,0.383468 1.518202,0.3586036 0.398113,-0.024063 0.433216,-0.016918 0.436359,0.088678 0.0046,0.156546 -0.509374,0.5476971 -0.894275,0.6805521 -0.173284,0.05981 -0.460717,0.110555 -0.638716,0.11274 -0.177995,0.0022 -0.53316,0.06909 -0.789206,0.148649 -0.378952,0.117759 -0.534809,0.138834 -0.83827,0.113223 -0.264476,-0.02231 -0.424958,-0.0085 -0.552568,0.04786 -0.204265,0.09012 -0.706864,0.160601 -1.370772,0.192187 -1.366473,0.06503 -1.824719,0.09557 -1.898477,0.126239 -0.0451,0.01878 -0.131656,0.115248 -0.192365,0.214438 -0.12249,0.200031 -0.451226,0.446532 -0.793587,0.595076 -0.206077,0.08937 -0.223505,0.124961 -0.214335,0.436397 0.01405,0.476681 -0.244488,0.846545 -0.919874,1.316023 l -0.538202,0.374076 0.348311,0.258617 c 0.518458,0.384906 0.686704,0.650725 0.702315,1.109905 0.02444,0.716836 -0.236636,1.1241 -1.002636,1.563593 l -0.385312,0.221106 0.258775,0.172127 c 0.61212,0.407101 0.666633,0.493433 0.678445,1.074156 0.01332,0.656222 -0.115221,0.854066 -0.823072,1.267307 -0.45337,0.264699 -0.608074,0.431273 -0.398032,0.428713 0.0479,-6.64e-4 0.18609,0.135792 0.307012,0.303063 0.381348,0.527474 0.230937,1.082642 -0.429582,1.586426 -0.173207,0.132108 -0.314532,0.25344 -0.314034,0.269662 3.07e-4,0.01617 0.09631,0.116742 0.213099,0.223451 0.171801,0.156976 0.214171,0.25915 0.222267,0.535908 0.01776,0.601533 -0.548437,1.090647 -1.27289,1.099555 l -0.239367,0.003 -0.03866,0.598704 c -0.03544,0.549567 -0.09037,0.6797 -0.289419,0.685302 -0.02842,8.63e-4 -0.103909,-0.0376 -0.167671,-0.08542 z m 0.217562,-1.385115 c -0.02296,-0.778996 -0.06477,-1.196773 -0.119604,-1.196077 -0.05525,6.64e-4 -0.06806,0.42375 -0.03709,1.227233 0.02692,0.69683 0.07855,1.213207 0.119602,1.196132 0.0398,-0.0166 0.0565,-0.568826 0.03709,-1.227288 z m -0.386469,-0.628586 c -0.02379,-0.471346 -0.135459,-0.564824 -0.345667,-0.289508 -0.150571,0.197202 -0.09325,0.555114 0.131493,0.821198 l 0.134468,0.159159 0.05056,-0.134028 c 0.02783,-0.07374 0.04097,-0.324297 0.02916,-0.556821 z m 0.957867,0.494823 c 0.113242,-0.143155 0.08839,-0.662522 -0.03534,-0.739512 -0.188237,-0.11701 -0.220946,-0.06216 -0.234328,0.39259 -0.0098,0.330006 0.01393,0.453525 0.08697,0.452511 0.05516,-8.61e-4 0.137355,-0.04824 0.1827,-0.105589 z m 0.664986,-0.261073 c 0.514162,-0.560981 0.299162,-0.984092 -0.763273,-1.502285 -0.08805,-0.04295 -0.313782,-0.152969 -0.501607,-0.244529 -0.187825,-0.09151 -0.448168,-0.261922 -0.578505,-0.378664 -0.209221,-0.187334 -0.234081,-0.249227 -0.2112,-0.526838 l 0.02593,-0.31464 -0.347566,-0.136162 c -0.191211,-0.07485 -0.407779,-0.135364 -0.48137,-0.134511 -0.351862,0.0044 -0.509951,0.693465 -0.247377,1.078641 0.251837,0.369435 1.022709,0.785824 1.822321,0.984363 0.417938,0.103776 0.902947,0.430368 0.975708,0.656968 0.06022,0.1876 0.03096,0.457952 -0.07781,0.718437 -0.05013,0.12021 -0.04195,0.126397 0.07913,0.0597 0.07426,-0.04088 0.211777,-0.158094 0.305608,-0.260484 z m -2.37886,-0.03666 c -0.07623,-0.35743 -0.0012,-0.592143 0.246883,-0.771685 0.243492,-0.176236 0.206654,-0.288121 -0.110514,-0.335394 -0.184686,-0.02754 -0.260178,-0.0052 -0.418517,0.123626 -0.171138,0.139311 -0.187907,0.197683 -0.147432,0.511788 0.03131,0.242714 0.10539,0.414413 0.234819,0.544121 0.104072,0.104259 0.202941,0.189361 0.21979,0.189147 0.01693,-2.62e-4 0.0055,-0.117917 -0.02502,-0.261603 z m 2.413303,-1.728941 c 0.42157,-0.25509 0.628227,-0.556442 0.618064,-0.901439 -0.01511,-0.511363 -0.515893,-0.940451 -1.566023,-1.341579 -0.606094,-0.231511 -1.192363,-0.552661 -1.348054,-0.738446 -0.191956,-0.229002 -0.166268,-0.585633 0.05822,-0.808285 0.223837,-0.222122 0.230195,-0.215932 -0.525396,-0.508589 -0.508793,-0.196988 -0.543731,-0.188079 -0.874943,0.223509 -0.317584,0.394619 -0.345996,0.79975 -0.08995,1.282513 0.167753,0.316239 0.284956,0.431863 0.716109,0.706696 0.312712,0.199283 0.722306,0.39286 1.041047,0.49194 1.027579,0.319335 1.532079,0.73583 1.246706,1.029237 -0.07203,0.074 -0.124056,0.243033 -0.119765,0.388854 0.0129,0.438372 0.308168,0.499839 0.843972,0.175595 z m -1.169894,-0.332457 c 0.0047,-0.440078 -0.08036,-0.626078 -0.285453,-0.62357 -0.111588,0.0014 -0.0664,0.71689 0.04989,0.789239 0.175023,0.108845 0.233006,0.06803 0.235568,-0.165669 z m -0.542,-0.500315 c -0.03553,-0.08853 -0.04024,-0.08848 -0.09746,0.0012 -0.03312,0.05181 -0.03065,0.135789 0.0055,0.186745 0.06251,0.08815 0.06723,0.08809 0.09746,-0.0012 0.0175,-0.05155 0.01503,-0.135577 -0.0055,-0.186693 z m 2.117853,-1.306843 c 0.573303,-0.234982 0.916157,-0.661614 0.953325,-1.186263 0.02504,-0.35252 0.0034,-0.417936 -0.23746,-0.719395 -0.145702,-0.18237 -0.351615,-0.380265 -0.457586,-0.439703 -0.27711,-0.155535 -1.479713,-0.662575 -1.822983,-0.768593 -0.160486,-0.04956 -0.527377,-0.18664 -0.815309,-0.304663 -0.449818,-0.184341 -0.547777,-0.253919 -0.696121,-0.494604 -0.281985,-0.457528 -0.235401,-0.776168 0.155529,-1.064505 0.223423,-0.164709 0.142479,-0.247838 -0.407368,-0.418521 l -0.473604,-0.147047 -0.28347,0.216944 c -0.440239,0.336994 -0.583296,0.616418 -0.568677,1.111133 0.01081,0.366983 0.04989,0.4762 0.274221,0.765495 0.305852,0.394567 0.875192,0.762134 1.566686,1.011575 1.047157,0.377652 1.895258,0.754237 2.047895,0.909234 0.08787,0.08921 0.162627,0.253225 0.166017,0.36442 0.0066,0.212676 -0.211778,0.559808 -0.427936,0.680286 -0.215325,0.119999 -0.138924,0.257229 0.233503,0.419165 0.424709,0.184663 0.488723,0.189892 0.793338,0.06503 z m -1.495573,-0.795431 c 0.0039,-0.721477 -0.0014,-0.737163 -0.272978,-0.823758 l -0.250186,-0.07971 0.01655,0.55938 c 0.01496,0.507253 0.03369,0.569415 0.200873,0.666308 0.101509,0.05874 0.211283,0.08836 0.244154,0.06573 0.0328,-0.02258 0.06055,-0.197147 0.06162,-0.387948 z M 35.49013,18.59276 c 0.0077,-0.291694 -0.160236,-0.255735 -0.179812,0.03847 -0.01366,0.206221 0.0042,0.252428 0.07872,0.202914 0.05302,-0.03527 0.09846,-0.143901 0.1011,-0.241383 z m -1.261492,-0.30482 c -0.122078,-0.07587 -0.2093,0.14406 -0.127778,0.322003 0.06394,0.139522 0.06649,0.138351 0.13934,-0.06327 0.04939,-0.136804 0.04551,-0.223187 -0.01156,-0.258721 z m 2.571141,-1.754979 c 0.679767,-0.335396 0.994625,-0.773177 0.988264,-1.374232 -0.0026,-0.243676 -0.05345,-0.408758 -0.17122,-0.55506 -0.161229,-0.200298 -0.879737,-0.712779 -0.997355,-0.711339 -0.0314,4.35e-4 -0.298335,-0.09064 -0.593201,-0.202326 -0.300654,-0.11386 -0.968611,-0.28593 -1.520601,-0.391736 -1.112079,-0.213157 -1.852056,-0.463663 -2.227871,-0.754239 -0.204344,-0.15804 -0.264888,-0.261924 -0.300982,-0.516644 -0.04758,-0.335983 0.01437,-0.38939 0.257701,-0.222225 0.33881,0.232789 1.166424,0.15489 1.514651,-0.142515 0.183199,-0.156495 0.162714,-0.268326 -0.05939,-0.324564 -0.607578,-0.153825 -1.324681,-0.09321 -1.867007,0.157773 -0.686789,0.317841 -0.869906,0.840725 -0.465351,1.32888 0.381431,0.460299 0.912526,0.706057 2.713373,1.255676 1.515975,0.462699 1.789039,0.571919 2.027742,0.811113 0.327905,0.32862 0.143138,0.846436 -0.426195,1.194157 -0.31709,0.193626 -0.344923,0.277076 -0.13125,0.393178 0.196744,0.106925 0.620383,0.242663 0.76022,0.243623 0.06211,4.35e-4 0.28636,-0.0849 0.498466,-0.18952 z m -4.215965,-5.024943 c -0.104237,-0.06483 0.02668,-0.127947 0.271577,-0.130988 0.133559,-0.0016 0.243576,0.02102 0.244402,0.05036 0.0012,0.02935 -0.05113,0.05399 -0.115471,0.05479 -0.06442,8.61e-4 -0.168249,0.01485 -0.230608,0.03116 -0.06245,0.01637 -0.138847,0.01397 -0.1699,-0.0054 z m 2.494078,4.04848 c 0.03906,-0.696509 0.03749,-0.704243 -0.157509,-0.797672 -0.25539,-0.122345 -0.489383,-0.168175 -0.563061,-0.110233 -0.03222,0.02534 -0.02774,0.364743 0.0099,0.754292 0.06624,0.686209 0.07492,0.71038 0.27703,0.778462 0.382168,0.1288 0.392081,0.1145 0.433628,-0.624849 z m 0.667462,0.251569 c 0.209876,-0.215662 0.219459,-0.42375 0.02832,-0.613856 -0.09622,-0.09567 -0.211033,-0.158894 -0.255226,-0.140487 -0.104975,0.04376 -0.08095,0.88101 0.02529,0.879732 0.04435,-6.64e-4 0.135128,-0.057 0.201621,-0.125389 z m -1.620046,-0.417562 c -0.01206,-0.409503 -0.03815,-0.506503 -0.135954,-0.505278 -0.140992,0.0016 -0.246052,0.120905 -0.318571,0.361485 -0.03626,0.120158 1.53e-4,0.243465 0.121662,0.41212 0.266789,0.370398 0.349633,0.303543 0.332863,-0.268327 z m 2.782504,-1.775624 c 0.777151,-0.272437 1.43024,-0.901608 1.47955,-1.425295 0.02809,-0.298045 0.01129,-0.33534 -0.238291,-0.530731 -0.414137,-0.324242 -0.851399,-0.461846 -1.452457,-0.456994 -0.547695,0.0044 -0.979675,0.113277 -1.017999,0.256644 -0.01315,0.04898 0.08656,0.16583 0.221524,0.259735 0.213841,0.148813 0.308499,0.172928 0.737091,0.187652 0.437097,0.01505 0.519695,0.0012 0.743366,-0.125226 0.138348,-0.07816 0.274548,-0.142407 0.302631,-0.142779 0.06989,-8.61e-4 -0.02419,0.428981 -0.122906,0.561836 -0.28578,0.384483 -1.031707,0.800177 -1.708751,0.952188 -0.419008,0.09413 -0.365818,0.194057 0.20162,0.378826 0.509951,0.166098 0.59659,0.174632 0.854622,0.08414 z m -0.27554,-2.160963 c -0.234079,-0.03645 -0.169571,-0.121226 0.09466,-0.124481 0.274796,-0.0034 0.403231,0.0741 0.207891,0.125281 -0.07103,0.01862 -0.135537,0.03116 -0.143302,0.02785 -0.0077,-0.0034 -0.07938,-0.01621 -0.159247,-0.02865 z m -1.487311,1.696071 c 0.02855,-0.194856 0.0484,-0.56685 0.09729,-1.828982 0.02966,-0.763467 0.06741,-1.4169173 0.08393,-1.4521301 0.0166,-0.035161 0.02832,-0.3475071 0.02619,-0.6940533 l -0.0038,-0.6301318 -0.566854,-0.029773 c -0.31168,-0.016436 -0.578051,-0.022303 -0.591849,-0.013067 -0.01368,0.00928 -0.01255,1.0269394 0.0026,2.2615372 0.02174,1.761594 0.05013,2.253802 0.132318,2.286722 0.137029,0.05491 0.575531,0.155106 0.707191,0.161615 0.05682,0.0028 0.107787,-0.02497 0.113156,-0.06173 z m 0.916074,-0.207447 c 0.373501,-0.116422 0.953,-0.447653 0.95019,-0.543108 -0.0012,-0.03271 -0.05756,-0.05881 -0.12563,-0.05799 -0.06814,8.62e-4 -0.115386,-0.02605 -0.105064,-0.05975 0.01042,-0.03372 -0.11051,-0.08228 -0.268686,-0.107887 -0.158086,-0.02566 -0.421077,-0.119729 -0.584367,-0.208993 l -0.296933,-0.162414 -0.01495,0.336995 c -0.0082,0.185302 0.0038,0.34868 0.02685,0.36298 0.02304,0.01423 0.209962,-0.01339 0.415459,-0.06146 0.508545,-0.118932 0.474682,-0.03649 -0.05301,0.128961 -0.417359,0.130934 -0.534811,0.240901 -0.432065,0.404544 0.0612,0.09738 0.07689,0.09636 0.488228,-0.03186 z m -2.030795,-0.09546 c -0.06063,-0.09588 -1.067229,-0.45742 -1.266697,-0.454966 -0.143304,0.0018 -0.133556,0.02033 0.08482,0.162093 0.514822,0.334169 1.33682,0.537829 1.181869,0.292873 z m -0.05616,-0.349801 c 0.05699,-0.161509 0.06154,-0.654465 0.006,-0.653769 -0.02907,4.32e-4 -0.169488,0.05991 -0.311967,0.132377 -0.14256,0.07245 -0.38531,0.166522 -0.539601,0.208994 l -0.280414,0.07721 0.493842,0.15724 c 0.609397,0.193999 0.591886,0.191812 0.63211,0.07794 z m 4.958093,-1.167158 c 0.191126,-0.133815 0.407363,-0.304929 0.480629,-0.380214 0.131158,-0.134829 0.12703,-0.140911 -0.276039,-0.411267 -0.224993,-0.150942 -0.438011,-0.282092 -0.473277,-0.291428 -0.03527,-0.0093 -0.229453,0.08062 -0.431484,0.199977 -0.546622,0.322963 -0.885186,0.415911 -1.554874,0.426899 -0.317916,0.0052 -0.671263,-0.0015 -0.785241,-0.01469 -0.189483,-0.02204 -0.206741,-0.0082 -0.201701,0.162573 0.006,0.205741 -0.0046,0.204192 0.655398,0.09497 0.521844,-0.08633 1.237127,0.03335 1.691574,0.283053 0.172049,0.09454 0.365573,0.172233 0.430161,0.172657 0.0646,3.47e-4 0.273806,-0.108735 0.464854,-0.242554 z m -7.326955,0.09481 c 0.05121,-0.04146 0.284463,-0.131363 0.518371,-0.199763 0.34889,-0.102071 0.518294,-0.119946 0.943997,-0.09951 0.285369,0.01366 0.589158,0.04808 0.675224,0.07646 0.195339,0.06452 0.259766,0.02326 0.254313,-0.162734 l -0.0042,-0.145609 -0.681256,0.0097 c -0.521826,0.0076 -0.771018,-0.01547 -1.065062,-0.09828 -0.356649,-0.100416 -0.915167,-0.427274 -1.134461,-0.66396 -0.0873,-0.09417 -0.121663,-0.08174 -0.470055,0.169299 -0.206739,0.148968 -0.374904,0.301887 -0.373831,0.339768 0.0043,0.148063 0.35566,0.485005 0.69249,0.664174 0.385474,0.205045 0.502762,0.225163 0.64458,0.110392 z m 9.190986,-0.711548 c 0.19658,-0.05155 0.155943,-0.10954 -0.162134,-0.231192 -0.159079,-0.06083 -0.465593,-0.275154 -0.681253,-0.476253 -0.350043,-0.3264826 -0.420497,-0.365272 -0.658211,-0.3623925 -0.579331,0.00714 -0.601056,0.2331135 -0.05726,0.5947045 0.413563,0.274888 0.729079,0.401556 1.152135,0.462648 0.136945,0.01974 0.255228,0.03831 0.262991,0.04119 0.0077,0.003 0.07235,-0.01 0.143715,-0.0287 z m -7.09064,-0.123354 c 0.22342,-0.03175 0.270996,-0.163001 0.256378,-0.7066426 l -0.01181,-0.4393327 -0.49368,0.039484 -0.493678,0.039483 -0.379528,-0.235993 C 32.111693,8.9937909 32.085348,8.8400194 32.46975,8.6239811 32.839616,8.4161065 33.004149,8.1776077 32.994817,7.8627018 32.988127,7.6343904 32.945918,7.5717516 32.67087,7.3819653 32.252026,7.0929372 31.710772,6.971873 30.936926,6.9941218 30.431024,7.0086439 30.256663,7.0426228 29.663785,7.2423345 29.285908,7.3695884 28.770259,7.5667361 28.517846,7.6804383 28.265431,7.7941397 27.751764,8.0254895 27.376364,8.1945213 25.889136,8.8641906 25.116199,9.155564 23.670351,9.59143 l -0.326504,0.098495 0.23631,0.076298 c 0.43239,0.1396324 1.072182,0.138725 1.642178,-0.00234 0.962745,-0.2382866 3.52455,-1.3231697 3.759866,-1.5922446 0.192698,-0.2203588 0.299329,-0.1653485 0.308911,0.1593222 0.01833,0.6215411 0.911615,1.1561129 1.91318,1.1449081 0.147597,-0.00162 0.269096,0.021022 0.269924,0.050368 9.63e-4,0.029346 -0.04047,0.053835 -0.09185,0.054475 -0.149747,0.00182 -0.0175,0.4008638 0.193771,0.5851023 0.244236,0.212887 0.764429,0.413345 1.197399,0.461525 0.319318,0.03549 0.458904,0.02994 0.932018,-0.0373 z m 9.032727,-0.08035 C 42.737191,10.481033 42.633395,10.418714 42.5071,10.371223 41.910675,10.14697 41.495959,9.9556354 41.18036,9.7590736 40.489936,9.3290263 40.518679,9.3383625 40.2343,9.4516903 c -0.137688,0.054796 -0.249193,0.1388845 -0.247788,0.1867447 0.0039,0.1371242 0.961338,0.670043 1.446429,0.805299 0.448744,0.12512 1.308408,0.168552 1.305349,0.06595 z m -13.047247,-0.0036 c 0.16032,-0.05491 0.464686,-0.203874 0.676299,-0.330965 0.626824,-0.3765335 0.647886,-0.4978109 0.0968,-0.5576217 -0.302302,-0.032813 -0.326833,-0.022943 -0.857103,0.34361 -0.300235,0.2075537 -0.646893,0.4214037 -0.770209,0.4751877 -0.259106,0.11306 -0.281903,0.174901 -0.07649,0.207605 0.211282,0.03363 0.596678,-0.02342 0.930696,-0.137816 z m 7.47117,0.0119 c 0.481371,-0.08463 0.974306,-0.376423 1.141149,-0.6754822 0.108615,-0.194749 0.113984,-0.2557873 0.02825,-0.319975 -0.05822,-0.043644 -0.09209,-0.080355 -0.07524,-0.081528 0.01693,-0.00121 0.315023,-0.010893 0.662505,-0.021502 0.562399,-0.017181 0.670518,-0.038148 0.985704,-0.1912809 0.547943,-0.2662975 0.831414,-0.7188618 0.685714,-1.0948605 -0.07037,-0.1814617 0.205666,-0.065145 0.336333,0.1417674 0.143554,0.2272965 0.80482,0.5920883 2.176247,1.2003991 1.112659,0.4935398 2.456415,0.6867421 3.025504,0.4350085 C 46.435386,9.7748001 46.406972,9.6909787 46.030909,9.623216 45.222542,9.4775015 43.663123,8.8891477 41.939174,8.0793668 39.720057,7.0370074 38.952326,6.8461008 37.701237,7.0256966 37.438004,7.0634718 36.940279,7.3732024 36.815556,7.5769157 36.586932,7.950085 36.755182,8.381894 37.25365,8.7012814 l 0.314525,0.2015247 -0.180143,0.1781553 C 37.02023,9.4446875 36.544806,9.5637253 35.912367,9.4504511 l -0.22838,-0.040925 0.01577,0.5377198 0.01588,0.5377201 0.269845,0.04678 c 0.375315,0.06498 0.754104,0.06062 1.176751,-0.0137 z m 6.927849,-0.165348 c 0.13901,-0.03639 0.177085,-0.183224 0.04707,-0.181622 -0.159821,0.002 -1.824552,-0.7258004 -2.421806,-1.0587405 -0.639794,-0.3566299 -0.794497,-0.4020903 -0.875691,-0.2571747 -0.120998,0.2159312 -0.03122,0.3552437 0.402001,0.6239948 1.010401,0.6268264 2.29114,1.0196304 2.848416,0.8735414 z m -15.812489,-0.01187 c 0.203104,-0.07006 0.653417,-0.269979 1.000737,-0.4442919 L 29.909757,9.5795746 29.63876,9.4057414 c -0.149005,-0.095616 -0.300404,-0.1734597 -0.336416,-0.173034 -0.03601,3.574e-4 -0.257701,0.1172229 -0.492686,0.2595242 -0.544805,0.3300581 -1.146189,0.6231424 -1.588742,0.7744054 -0.416285,0.142246 -0.438089,0.210061 -0.07575,0.235191 0.396793,0.02753 0.718339,-0.01819 1.132397,-0.161027 z m -1.372259,-0.271047 c 0.439991,-0.1424607 2.244888,-0.9132919 2.243566,-0.9581635 -0.0023,-0.079607 -0.292391,-0.5137629 -0.342858,-0.5131753 -0.03535,3.571e-4 -0.535967,0.2383397 -1.112571,0.5286488 -0.911203,0.4589128 -2.037073,0.897551 -2.312284,0.900965 -0.19592,0.0024 -0.06723,0.107779 0.184933,0.151479 0.477573,0.08276 0.835132,0.05346 1.339214,-0.109754 z m 8.666671,-1.9797126 c 0.576273,-0.4636097 0.115882,-1.0704246 -0.80358,-1.0591128 -0.356238,0.0044 -0.446186,0.029293 -0.685469,0.1898407 -0.235974,0.1584113 -0.274384,0.2211574 -0.267939,0.438476 0.0067,0.2282018 0.04261,0.2744625 0.357144,0.4605686 0.332038,0.1963474 0.370938,0.2052592 0.766326,0.1758062 0.342942,-0.025559 0.454776,-0.061839 0.633518,-0.2055787 z m -0.78756,-0.03719 c -0.02925,-0.029293 0.02338,-0.069948 0.116957,-0.090383 0.25192,-0.055065 0.461385,-0.3810688 0.329063,-0.5122705 -0.211857,-0.2101674 -0.01275,-0.3014064 0.255638,-0.1170612 0.198727,0.1365369 0.183447,0.4026763 -0.03254,0.5649288 -0.19922,0.1496643 -0.585108,0.2389283 -0.669118,0.1547859 z"
       id="path567-5"
       style="fill:#0962aa;fill-opacity:0.890196;stroke-width:0.0663847" /><text
       xml:space="preserve"
       style="font-style:normal;font-variant:normal;font-weight:normal;font-stretch:normal;font-size:14.8161px;font-family:Arial;-inkscape-font-specification:Arial;text-align:end;letter-spacing:0.155797px;text-anchor:end;opacity:0.887755;fill:#0963aa;fill-opacity:1;stroke-width:0.202489"
       x="198.94144"
       y="16.987911"
       id="text2036"
       transform="scale(1.0177564,0.9825534)"><tspan
         sodipodi:role="line"
         style="font-style:normal;font-variant:normal;font-weight:normal;font-stretch:normal;font-family:Dubai;-inkscape-font-specification:Dubai;text-align:end;text-anchor:end;fill:#0963aa;fill-opacity:1;stroke-width:0.202489"
         x="199.09723"
         y="16.987911"
         id="tspan24231">EVOLVE SKIN CLINIC</tspan></text><text
       xml:space="preserve"
       style="font-style:normal;font-variant:normal;font-weight:normal;font-stretch:condensed;font-size:7.73474px;font-family:Arial;-inkscape-font-specification:'Arial Condensed';letter-spacing:0.155797px;fill:#288b84;fill-opacity:1;stroke-width:0.105708"
       x="90.247124"
       y="26.772818"
       id="text2040"
       transform="scale(1.0524304,0.9501816)"><tspan
         sodipodi:role="line"
         id="tspan2038"
         style="font-style:normal;font-variant:normal;font-weight:normal;font-stretch:normal;font-family:Dubai;-inkscape-font-specification:Dubai;fill:#288b84;fill-opacity:1;stroke-width:0.105708"
         x="90.247124"
         y="26.772818">DR. JIGISHA NANAVATI SHAH</tspan></text><path
       d="m 124.5143,264.72312 c -0.50863,-0.54368 -0.76506,-2.19021 -0.83008,-5.33042 l -0.0933,-4.54345 -2.11534,-0.84114 c -4.70052,-1.87002 -6.65381,-4.74662 -6.76132,-9.95561 -0.0565,-2.73633 0.1526,-3.60024 1.24437,-5.14469 1.40374,-1.98563 1.40478,-1.9803 -1.09282,-4.41333 -3.45826,-3.36901 -4.44094,-11.69067 -1.70946,-14.4773 0.57208,-0.58333 1.03564,-1.28084 1.03039,-1.54977 -0.007,-0.26893 -1.12321,-1.75925 -2.48345,-3.31193 -4.22332,-4.82108 -4.75084,-6.03663 -4.87881,-11.24711 -0.10335,-4.19614 0.0131,-4.80558 1.34713,-7.03838 0.80282,-1.3447 2.13474,-3.13102 2.95906,-3.96977 l 1.49868,-1.52461 -1.96433,-2.0872 c -1.08074,-1.14784 -2.5967,-3.2771 -3.36912,-4.73158 -1.24277,-2.34165 -1.42054,-3.28147 -1.55057,-8.20558 -0.12743,-4.82253 0.009,-5.89346 1.01938,-8.06433 0.64184,-1.37712 1.84476,-3.12618 2.67328,-3.88705 1.46038,-1.34084 1.96692,-2.66183 1.01413,-2.6449 -0.25641,0.004 -1.79021,-1.14881 -3.40896,-2.56317 -4.48973,-3.9238 -6.91025,-10.80207 -5.19397,-14.75877 l 0.76455,-1.7631 -1.97376,-1.42162 c -1.936528,-1.39454 -3.018832,-2.89448 -4.6313,-6.42118 l -0.808586,-1.76744 -2.641288,0.8305 c -2.531169,0.79568 -2.758747,0.78991 -5.420487,-0.13985 -1.740933,-0.60849 -3.881963,-0.94034 -5.734064,-0.88905 -2.078105,0.0576 -3.714161,-0.24041 -5.50963,-1.0032 -1.404273,-0.59738 -3.602988,-1.12414 -4.885088,-1.17154 -1.562121,-0.0571 -3.31092,-0.61721 -5.297784,-1.69539 -2.117433,-1.14929 -3.604044,-1.60541 -5.195005,-1.59381 -2.518057,0.0189 -6.649625,-1.74617 -8.839423,-3.77579 l -1.391174,-1.28907 2.902952,-0.653 c 3.536924,-0.79571 12.897057,-5.32366 19.212129,-9.29439 2.562632,-1.61121 7.921241,-4.99279 11.907556,-7.51484 8.893961,-5.626457 9.565689,-5.959712 13.651632,-6.775736 9.4603,-1.889823 17.02914,2.002546 18.39934,9.462736 0.52857,2.87513 -0.29679,5.417 -2.53744,7.81663 -0.94808,1.01533 -1.71997,2.04368 -1.71472,2.28506 0.005,0.24183 0.77449,1.01093 1.71051,1.70989 1.37544,1.02737 2.05137,1.21214 3.52382,0.96497 2.76084,-0.46288 3.17667,-1.15362 3.13892,-5.21287 -0.0252,-2.73584 -0.3073,-4.10328 -1.16149,-5.62695 -2.33819,-4.17244 -1.14053,-8.68056 2.84003,-10.690357 5.38953,-2.72131 11.31552,-0.205561 12.07798,5.127747 0.2134,1.49225 -0.0529,2.72861 -1.03934,4.82158 -1.16568,2.47368 -1.29783,3.32693 -1.0886,7.03403 l 0.23861,4.21938 2.46613,0.10306 c 2.26742,0.0949 5.64544,-0.97562 5.62867,-1.78438 -0.003,-0.16745 -0.5742,-0.96789 -1.26847,-1.77955 -3.09644,-3.61859 -3.4787,-9.57251 -0.85525,-13.328 3.25532,-4.660487 7.74715,-6.241713 14.44133,-5.084205 6.14571,1.062679 8.73978,2.431095 23.80358,12.557445 3.60615,2.42384 9.65692,5.97714 13.4466,7.89552 6.55734,3.31918 7.02299,3.47639 9.63858,3.25097 2.52748,-0.21815 2.75034,-0.15339 2.7703,0.80392 0.0294,1.41919 -3.23386,4.96523 -5.67746,6.16966 -1.10013,0.54223 -2.92496,1.00223 -4.05501,1.02205 -1.13001,0.02 -3.38484,0.6264 -5.01039,1.34759 -2.40585,1.06756 -3.39535,1.25861 -5.32191,1.02645 -1.67907,-0.20221 -2.69792,-0.0765 -3.50809,0.43387 -1.2968,0.81698 -4.48764,1.45596 -8.70257,1.7423 -8.67529,0.58964 -11.58454,0.86633 -12.05282,1.14445 -0.28631,0.17021 -0.83583,1.0448 -1.22126,1.94402 -0.77764,1.81341 -2.86468,4.0481 -5.03823,5.39474 -1.3083,0.81022 -1.41896,1.13286 -1.36075,3.95624 0.0892,4.32141 -1.55216,7.67445 -5.83996,11.93057 l -3.41687,3.39125 2.21132,2.34452 c 3.29151,3.48943 4.35965,5.89925 4.45876,10.06201 0.15518,6.49859 -1.50234,10.19069 -6.36542,14.17497 l -2.44622,2.00448 1.64288,1.56044 c 3.88616,3.69065 4.23224,4.4733 4.30723,9.73793 0.0846,5.94907 -0.73149,7.74265 -5.22541,11.48896 -2.87829,2.39966 -3.86047,3.90975 -2.52697,3.88655 0.30414,-0.006 1.18142,1.23103 1.94912,2.74747 2.42104,4.78189 1.46613,9.81485 -2.7273,14.38197 -1.09962,1.19765 -1.99684,2.29759 -1.99367,2.44465 0.002,0.14662 0.61142,1.05835 1.35287,2.02573 1.09071,1.42308 1.35972,2.34936 1.4111,4.85836 0.11275,5.45329 -3.48184,9.8874 -8.08116,9.96817 l -1.51966,0.0266 -0.24539,5.42766 c -0.22497,4.98217 -0.57369,6.16192 -1.83742,6.2127 -0.18036,0.008 -0.65969,-0.34101 -1.0645,-0.77441 z m 1.38124,-12.55697 c -0.14567,-7.0621 -0.41114,-10.84952 -0.75932,-10.84322 -0.35079,0.006 -0.43207,3.84158 -0.23545,11.12568 0.17085,6.3172 0.49869,10.99851 0.75931,10.8437 0.25275,-0.15045 0.35866,-5.15677 0.23546,-11.12616 z m -2.45358,-5.69853 c -0.15101,-4.27305 -0.85997,-5.12049 -2.19452,-2.6246 -0.95592,1.78779 -0.59202,5.03249 0.83481,7.44472 l 0.85369,1.44287 0.32092,-1.21506 c 0.17673,-0.66846 0.26009,-2.93994 0.1851,-5.04793 z m 6.08119,4.48589 c 0.71894,-1.2978 0.56109,-6.00619 -0.22441,-6.70415 -1.19505,-1.06077 -1.40272,-0.56352 -1.48767,3.55909 -0.0619,2.9917 0.0885,4.11148 0.55219,4.1023 0.35026,-0.008 0.87201,-0.43728 1.15989,-0.95724 z m 4.22179,-2.36678 c 3.26425,-5.08566 1.89928,-8.92147 -4.84577,-13.61919 -0.55901,-0.3894 -1.9921,-1.38678 -3.18455,-2.21681 -1.19243,-0.82955 -2.84528,-2.3745 -3.67273,-3.43284 -1.32826,-1.69829 -1.4861,-2.2594 -1.34083,-4.77612 l 0.16464,-2.85241 -2.20658,-1.23441 c -1.21392,-0.67864 -2.58884,-1.22715 -3.05606,-1.21943 -2.23386,0.0397 -3.23751,6.28671 -1.57052,9.77857 1.59884,3.34918 6.49285,7.12401 11.56934,8.92388 2.65334,0.9408 5.7325,3.90157 6.19444,5.95586 0.38231,1.70071 0.19662,4.15163 -0.49393,6.51308 -0.31832,1.08979 -0.26638,1.14589 0.50235,0.54127 0.47141,-0.37053 1.3445,-1.43324 1.9402,-2.36145 z m -15.1026,-0.3323 c -0.48399,-3.24035 -0.008,-5.36818 1.56738,-6.99584 1.54584,-1.59766 1.31198,-2.612 -0.70162,-3.04056 -1.17253,-0.24959 -1.6518,-0.0472 -2.65704,1.12075 -1.08649,1.26296 -1.19295,1.79212 -0.93601,4.63969 0.19876,2.20038 0.66911,3.75694 1.49082,4.93282 0.66071,0.94517 1.28839,1.71667 1.39536,1.71473 0.10746,-0.002 0.0356,-1.069 -0.15889,-2.37159 z m 15.32125,-15.67397 c 2.67643,-2.31259 3.98843,-5.04456 3.92391,-8.17218 -0.0959,-4.63585 -3.27524,-8.5258 -9.94218,-12.16227 -3.84788,-2.09879 -7.56991,-5.01024 -8.55836,-6.6945 -1.21866,-2.07604 -1.05557,-5.30913 0.3697,-7.32761 1.42104,-2.01369 1.46142,-1.95758 -3.33558,-4.61069 -3.23016,-1.78585 -3.45197,-1.70507 -5.55473,2.02625 -2.01623,3.57748 -2.19661,7.25025 -0.57104,11.62681 1.06502,2.86689 1.80909,3.9151 4.54634,6.40666 1.9853,1.80664 4.58569,3.56151 6.60926,4.45975 6.52377,2.89497 9.72668,6.67076 7.91494,9.33067 -0.45725,0.6709 -0.7876,2.20327 -0.76036,3.52522 0.0819,3.97414 1.95645,4.53137 5.3581,1.59189 z m -7.42726,-3.01397 c 0.0303,-3.98959 -0.51024,-5.67579 -1.81225,-5.65305 -0.70844,0.0128 -0.42159,6.49906 0.31672,7.15495 1.11115,0.98677 1.47927,0.61674 1.49553,-1.5019 z m -3.44098,-4.53568 c -0.22548,-0.8025 -0.25538,-0.80199 -0.61877,0.011 -0.21026,0.46968 -0.19453,1.23101 0.0346,1.69296 0.39696,0.79909 0.42685,0.79859 0.61877,-0.0109 0.11118,-0.46726 0.0954,-1.22909 -0.0346,-1.69247 z m 13.44555,-11.84738 c 3.63972,-2.13024 5.81638,-5.99795 6.05235,-10.75423 0.15897,-3.19584 0.0216,-3.78886 -1.50756,-6.52177 -0.92501,-1.65331 -2.23229,-3.44736 -2.90505,-3.9862 -1.75929,-1.41001 -9.39422,-6.00667 -11.57353,-6.9678 -1.01887,-0.44934 -3.34814,-1.69198 -5.17613,-2.76195 -2.85576,-1.67118 -3.47766,-2.30193 -4.41944,-4.48392 -1.79023,-4.14778 -1.49449,-7.03646 0.98739,-9.65041 1.41843,-1.4932 0.90456,-2.24682 -2.58624,-3.79417 l -3.00675,-1.33308 -1.79966,1.96674 c -2.79494,3.05508 -3.70317,5.58824 -3.61034,10.07314 0.0687,3.32694 0.31672,4.31708 1.74092,6.93971 1.94177,3.577 5.55631,6.90923 9.94638,9.17059 6.64806,3.42363 12.03238,6.83762 13.00142,8.24278 0.55791,0.80874 1.03248,2.29565 1.054,3.3037 0.0419,1.92805 -1.34451,5.07501 -2.71684,6.16724 -1.36702,1.08785 -0.88198,2.33195 1.48244,3.79999 2.69634,1.67409 3.10275,1.7215 5.03664,0.58964 z m -9.4949,-7.21108 c 0.0258,-6.54066 -0.009,-6.68288 -1.73305,-7.46792 l -1.58835,-0.72264 0.10499,5.07115 c 0.0949,4.59856 0.21393,5.1621 1.27526,6.04052 0.64445,0.53253 1.34136,0.80099 1.55006,0.5959 0.20819,-0.20461 0.38439,-1.78728 0.39121,-3.51701 z m 3.30778,-1.59623 c 0.0492,-2.6444 -1.01728,-2.3184 -1.14156,0.34876 -0.0866,1.86952 0.0273,2.2884 0.49971,1.83953 0.33666,-0.31973 0.62507,-1.30455 0.64185,-2.18829 z m -8.00881,-2.76339 c -0.77504,-0.68784 -1.32876,1.30599 -0.81123,2.91916 0.40588,1.26486 0.42214,1.25423 0.88464,-0.57368 0.31359,-1.24022 0.28893,-2.02335 -0.0734,-2.34548 z m 16.32335,-15.91003 c 4.3156,-3.04057 6.31454,-7.00936 6.27416,-12.4583 -0.0159,-2.20907 -0.33927,-3.70565 -1.08702,-5.03198 -1.0236,-1.81582 -5.58517,-6.4618 -6.33188,-6.44875 -0.19926,0.004 -1.89404,-0.82181 -3.76605,-1.83421 -1.90876,-1.03222 -6.14939,-2.59216 -9.6538,-3.55135 -7.06023,-1.9324 -11.7581,-4.20338 -14.14403,-6.83764 -1.29729,-1.43274 -1.68167,-2.37451 -1.91082,-4.68371 -0.30205,-3.0459 0.0913,-3.53008 1.63607,-2.01462 2.15098,2.11038 7.40523,1.40417 9.61602,-1.29199 1.16306,-1.41872 1.03302,-2.43256 -0.37704,-2.94237 -3.85731,-1.39454 -8.40997,-0.84504 -11.85302,1.43031 -4.36019,2.88141 -5.52274,7.62172 -2.95434,12.04716 2.42156,4.1729 5.79332,6.40086 17.22631,11.3835 9.62444,4.19468 11.35802,5.18483 12.87347,7.35324 2.08177,2.97917 0.90874,7.67351 -2.70577,10.82581 -2.01311,1.75535 -2.1898,2.51189 -0.83326,3.56444 1.24907,0.96932 3.93861,2.19988 4.82637,2.20859 0.39432,0.004 1.81801,-0.76958 3.16463,-1.71813 z m -26.76579,-45.55434 c -0.66178,-0.58768 0.16936,-1.15993 1.72415,-1.1875 0.84792,-0.0146 1.54639,0.19059 1.55163,0.45663 0.007,0.26605 -0.32459,0.48951 -0.73308,0.49676 -0.40902,0.008 -1.06817,0.13458 -1.46407,0.28249 -0.39642,0.14843 -0.88149,0.12668 -1.07863,-0.0484 z m 15.83409,36.70206 c 0.24802,-6.31428 0.23806,-6.38442 -0.99998,-7.23139 -1.62139,-1.10913 -3.10693,-1.52461 -3.57469,-0.99934 -0.20452,0.22977 -0.17619,3.30664 0.0628,6.83816 0.42056,6.2209 0.47561,6.44003 1.75877,7.05724 2.42626,1.16765 2.4892,1.03802 2.75298,-5.66467 z m 4.23749,2.28066 c 1.33242,-1.95512 1.39327,-3.84156 0.17975,-5.56502 -0.61089,-0.86728 -1.33977,-1.44047 -1.62033,-1.2736 -0.66646,0.39664 -0.51389,7.98693 0.16053,7.97535 0.2816,-0.006 0.85789,-0.51662 1.28001,-1.13673 z m -10.28515,-3.78548 c -0.0766,-3.71242 -0.24224,-4.59177 -0.86311,-4.58066 -0.89512,0.0147 -1.56212,1.09609 -2.02252,3.2771 -0.23021,1.08929 9.8e-4,2.20714 0.7724,3.73612 1.69375,3.35789 2.21971,2.75181 2.11323,-2.43256 z m 17.66523,-16.09718 c 4.93386,-2.46981 9.08012,-8.17364 9.39317,-12.9212 0.17837,-2.70197 0.0716,-3.04009 -1.51284,-4.81141 -2.62923,-2.93947 -5.40525,-4.18694 -9.22116,-4.14294 -3.47714,0.0397 -6.21964,1.02691 -6.46295,2.32662 -0.0835,0.44405 0.54955,1.50337 1.40638,2.35468 1.3576,1.34906 1.95855,1.56769 4.67954,1.70119 2.775,0.13638 3.29938,0.011 4.71939,-1.13527 0.87833,-0.70862 1.74303,-1.291 1.92132,-1.29437 0.44362,-0.008 -0.15361,3.88898 -0.78029,5.09337 -1.81433,3.48559 -6.54998,7.25414 -10.8483,8.63222 -2.66015,0.85326 -2.32247,1.75925 1.28001,3.43431 3.23752,1.50576 3.78755,1.58314 5.42573,0.7628 z m -1.74932,-19.59051 c -1.48609,-0.33037 -1.07655,-1.099 0.60095,-1.12852 1.74459,-0.0304 2.55999,0.67189 1.31983,1.13578 -0.45095,0.16873 -0.86048,0.28246 -0.90979,0.25247 -0.0487,-0.0299 -0.50392,-0.14697 -1.01099,-0.25973 z m -9.44247,15.37597 c 0.18134,-1.7665 0.3073,-5.13885 0.61772,-16.5809 0.18829,-6.92133 0.42789,-12.84527 0.53277,-13.16449 0.10541,-0.31878 0.17978,-3.15037 0.16629,-6.29205 l -0.0247,-5.71254 -3.59879,-0.26992 c -1.97899,-0.14899 -3.6701,-0.20217 -3.75768,-0.11846 -0.0869,0.084 -0.0797,9.30988 0.0163,20.50231 0.13791,15.96998 0.31829,20.43215 0.84004,20.73061 0.86996,0.49774 3.65387,1.40613 4.48973,1.46512 0.36075,0.0253 0.6843,-0.22636 0.71839,-0.55964 z m 5.81587,-1.88063 c 2.37123,-1.05543 6.05028,-4.05826 6.03243,-4.92363 -0.007,-0.2965 -0.36548,-0.53304 -0.79758,-0.52578 -0.4326,0.008 -0.73254,-0.23605 -0.66699,-0.54174 0.0661,-0.30571 -0.70161,-0.74589 -1.70581,-0.97808 -1.00365,-0.23265 -2.67328,-1.08542 -3.70996,-1.89466 l -1.88513,-1.47239 -0.0949,3.05509 c -0.052,1.67989 0.0247,3.16099 0.17044,3.29062 0.14627,0.12908 1.33299,-0.12139 2.63762,-0.55722 3.22858,-1.07817 3.0136,-0.33085 -0.33664,1.16911 -2.64969,1.18701 -3.39535,2.18392 -2.74305,3.66746 0.38859,0.88276 0.48823,0.87359 3.09962,-0.28878 z m -12.89286,-0.86534 c -0.38489,-0.86922 -6.77547,-4.1468 -8.04184,-4.12455 -0.9098,0.0165 -0.84791,0.18431 0.53853,1.46947 3.26844,3.02946 8.48705,4.87576 7.50331,2.65508 z m -0.35657,-3.17117 c 0.36182,-1.46419 0.39065,-5.93313 0.0383,-5.92685 -0.18455,0.004 -1.07603,0.54321 -1.98056,1.20008 -0.90508,0.65688 -2.44621,1.50965 -3.42577,1.89468 l -1.78025,0.69992 3.13524,1.42548 c 3.86887,1.75874 3.75769,1.73892 4.01306,0.70669 z m 31.4773,-10.58104 c 1.21342,-1.21313 2.58622,-2.76438 3.05137,-3.44688 0.83269,-1.22233 0.80648,-1.27746 -1.75248,-3.7284 -1.42842,-1.36839 -2.78079,-2.55735 -3.00467,-2.642 -0.22392,-0.0846 -1.45674,0.73089 -2.73935,1.81294 -3.47035,2.92786 -5.61978,3.77049 -9.8714,3.8701 -2.01835,0.0473 -4.26163,-0.0128 -4.98525,-0.13308 -1.20294,-0.19977 -1.31251,-0.0735 -1.28053,1.47384 0.0383,1.86517 -0.0294,1.85114 4.16091,0.86101 3.31302,-0.78264 7.85411,0.30231 10.73925,2.56605 1.09229,0.85713 2.32091,1.56139 2.73097,1.56525 0.41007,0.003 1.7383,-0.98577 2.95118,-2.19891 z m -46.51643,0.85954 c 0.32511,-0.37584 1.80594,-1.1909 3.29097,-1.81098 2.21498,-0.92535 3.29048,-1.08739 5.99312,-0.90211 1.81172,0.12377 3.74039,0.43581 4.28678,0.69314 1.24015,0.5848 1.64917,0.21091 1.61455,-1.47529 l -0.0273,-1.32005 -4.32507,0.0885 c -3.31302,0.0681 -4.89506,-0.14022 -6.76185,-0.89098 -2.26424,-0.91035 -5.81009,-3.87352 -7.20232,-6.01923 -0.55426,-0.85375 -0.7724,-0.74103 -2.984218,1.53481 -1.312521,1.35048 -2.380147,2.73678 -2.373336,3.0802 0.02779,1.3423 2.257966,4.39689 4.396384,6.02118 2.44726,1.85887 3.19189,2.04124 4.09224,1.00077 z m 58.35058,-6.45068 c 1.24801,-0.46724 0.99003,-0.99306 -1.02934,-2.09591 -1.00995,-0.55141 -2.95593,-2.49445 -4.32507,-4.31754 -2.22231,-2.95978 -2.66961,-3.31144 -4.17876,-3.28533 -3.67799,0.0647 -3.81591,2.11332 -0.36341,5.39139 2.62558,2.49204 4.62869,3.64036 7.31453,4.1942 0.86942,0.17898 1.62035,0.3473 1.66964,0.37341 0.0487,0.0268 0.45935,-0.0905 0.91241,-0.26022 z m -45.01619,-1.11832 c 1.41843,-0.2878 1.72048,-1.47772 1.62766,-6.40618 l -0.075,-3.98284 -3.1342,0.35795 -3.13419,0.35793 -2.40952,-2.13941 c -2.99367,-2.65845 -3.16092,-4.05249 -0.72048,-6.01102 2.34815,-1.88451 3.39272,-4.04667 3.33347,-6.90149 -0.0424,-2.06979 -0.31044,-2.63765 -2.05662,-4.35818 -2.65911,-2.62023 -6.09536,-3.71775 -11.00824,-3.516049 -3.211818,0.131629 -4.318777,0.43969 -8.082758,2.250209 -2.399026,1.15362 -5.672714,2.94091 -7.275208,3.9717 -1.602496,1.03076 -4.8636,3.1281 -7.246893,4.66048 -9.441933,6.07099 -14.349057,8.71248 -23.528278,12.66388 l -2.072863,0.89291 1.500245,0.69169 c 2.745114,1.26586 6.806938,1.25764 10.425665,-0.0213 6.112141,-2.16022 22.376222,-11.99539 23.870171,-14.43473 1.223372,-1.99769 1.900342,-1.49898 1.961171,1.44435 0.116411,5.63469 5.787547,10.48092 12.146158,10.37933 0.93704,-0.0146 1.70841,0.19058 1.71366,0.45663 0.006,0.26605 -0.25695,0.48805 -0.5831,0.49385 -0.9507,0.0165 -0.11119,3.63409 1.23017,5.30432 1.55059,1.92997 4.85312,3.74725 7.6019,4.18404 2.02724,0.32167 2.91344,0.27134 5.91709,-0.3381 z m 57.34586,-0.72845 c -0.007,-0.25977 -0.66595,-0.82474 -1.46773,-1.25523 -3.78651,-2.03301 -6.41942,-3.76759 -8.42305,-5.54954 -4.38328,-3.89866 -4.20079,-3.81401 -6.00622,-2.78664 -0.87415,0.49677 -1.58205,1.25909 -1.57313,1.69298 0.0258,1.24311 6.10323,6.07436 9.1829,7.30055 2.84894,1.1343 8.30665,1.52804 8.28723,0.59788 z m -82.8327,-0.032 c 1.017818,-0.49773 2.95014,-1.84824 4.293603,-3.00041 3.979487,-3.41353 4.113217,-4.51298 0.614569,-5.0552 -1.919229,-0.29748 -2.07496,-0.20801 -5.441463,3.11505 -1.906111,1.88161 -4.106921,3.82031 -4.889815,4.30789 -1.644973,1.02496 -1.789701,1.58559 -0.485576,1.88206 1.341359,0.30475 3.7881,-0.21232 5.908682,-1.24939 z m 47.43202,0.10787 c 3.05606,-0.76716 6.18554,-3.41255 7.24477,-6.1237 0.68956,-1.76553 0.72365,-2.31888 0.17937,-2.90079 -0.36968,-0.39566 -0.58468,-0.72847 -0.47769,-0.7391 0.10743,-0.0109 1.99997,-0.0988 4.20601,-0.19493 3.57049,-0.15576 4.25692,-0.34584 6.25793,-1.73409 3.47869,-2.41415 5.27836,-6.51694 4.35336,-9.92561 -0.44677,-1.64508 1.30571,-0.5906 2.13528,1.2852 0.91137,2.06059 5.10953,5.36767 13.81627,10.8824 7.06391,4.47424 15.59498,6.22577 19.20795,3.94363 1.94912,-1.23102 1.76871,-1.99091 -0.61877,-2.60523 -5.13208,-1.321 -15.03231,-6.6548 -25.97711,-13.99599 -14.08844,-9.44966 -18.96253,-11.180345 -26.90528,-9.552199 -1.67117,0.342455 -4.83107,3.150369 -5.62289,4.997169 -1.45146,3.38302 -0.38331,7.29765 2.7813,10.19309 l 1.99683,1.82694 -1.14366,1.6151 c -2.33507,3.29741 -5.35338,4.37656 -9.36853,3.34967 l -1.44989,-0.37101 0.10008,4.87477 0.10074,4.87477 1.71316,0.42421 c 2.38275,0.58918 4.78755,0.5495 7.47081,-0.12431 z m 43.98266,-1.49901 c 0.88252,-0.32988 1.12424,-1.66105 0.29888,-1.64653 -1.01466,0.0182 -11.58348,-6.57985 -15.37525,-9.59815 -4.06185,-3.23309 -5.04401,-3.64521 -5.55947,-2.33145 -0.76819,1.95755 -0.1982,3.22051 2.55216,5.65691 6.41471,5.68257 14.54571,9.24361 18.08368,7.91922 z m -100.388345,-0.1079 c 1.289443,-0.63509 4.148347,-2.44754 6.353354,-4.02779 l 4.008861,-2.87321 -1.720481,-1.57592 c -0.945975,-0.8668 -1.907159,-1.57252 -2.135787,-1.56866 -0.228629,0.003 -1.636058,1.06269 -3.12791,2.35275 -3.458791,2.99219 -7.276781,5.6492 -10.086395,7.02049 -2.64286,1.28955 -2.781295,1.90432 -0.480853,2.13216 2.519109,0.2496 4.56051,-0.16491 7.189211,-1.45982 z m -8.712001,-2.45721 c 2.793356,-1.2915 14.252046,-8.27957 14.243653,-8.68638 -0.01466,-0.72169 -1.856294,-4.65758 -2.176688,-4.65226 -0.224434,0.003 -3.402683,2.1607 -7.063358,4.79254 -5.784932,4.16035 -12.932716,8.13688 -14.679939,8.16783 -1.243823,0.0218 -0.426844,0.97708 1.174079,1.37325 3.031949,0.75022 5.301977,0.48467 8.502253,-0.99498 z m 55.021866,-17.94738 c 3.65855,-4.20291 0.73567,-9.704082 -5.10167,-9.601538 -2.26166,0.03968 -2.8327,0.265546 -4.35183,1.721028 -1.49812,1.43611 -1.74198,2.00493 -1.70106,3.97508 0.0425,2.06878 0.27057,2.48818 2.2674,4.17534 2.108,1.78002 2.35496,1.86082 4.86516,1.59381 2.17722,-0.2317 2.88722,-0.56061 4.022,-1.86372 z m -4.99998,-0.33714 c -0.1857,-0.26557 0.14845,-0.63414 0.74253,-0.8194 1.59936,-0.49919 2.92919,-3.45464 2.08912,-4.64406 -1.34502,-1.90531 -0.0809,-2.73245 1.62296,-1.06124 1.26166,1.23781 1.16465,3.65053 -0.20661,5.12146 -1.26479,1.3568 -3.71467,2.16603 -4.248,1.40324 z"
       id="path567"
       style="opacity:0.5;fill:#33d4f7;fill-opacity:0.254902;stroke-width:0.50363" /><text
       xml:space="preserve"
       style="font-style:normal;font-variant:normal;font-weight:normal;font-stretch:normal;font-size:2.90039px;font-family:Arial;-inkscape-font-specification:Arial;letter-spacing:0.211667px;fill:#000000;fill-opacity:1;stroke-width:0.0396386"
       x="103.24538"
       y="29.676222"
       id="text2094"
       transform="scale(0.97738105,1.0231424)"><tspan
         sodipodi:role="line"
         style="font-style:normal;font-variant:normal;font-weight:normal;font-stretch:normal;font-family:Arial;-inkscape-font-specification:Arial;fill:#000000;fill-opacity:1;stroke-width:0.0396386"
         x="103.24538"
         y="29.676222"
         id="tspan2098">B.H.M.S (MUMBAI) ,P.G.D.E.M.S (MUMBAI), P.G.D.C.C (AUSTRALIA)</tspan></text><text
       xml:space="preserve"
       style="font-style:normal;font-variant:normal;font-weight:normal;font-stretch:normal;font-size:3.04623px;font-family:Arial;-inkscape-font-specification:Arial;letter-spacing:0.155797px;fill:#0962aa;fill-opacity:0.890196;stroke-width:0.041632"
       x="22.395094"
       y="30.570906"
       id="text2102"
       transform="scale(1.0265292,0.97415644)"><tspan
         sodipodi:role="line"
         id="tspan2100"
         style="font-style:normal;font-variant:normal;font-weight:bold;font-stretch:normal;font-family:Dubai;-inkscape-font-specification:'Dubai Bold';fill:#0962aa;fill-opacity:0.890196;stroke-width:0.0416319"
         x="22.395094"
         y="30.570906">REG. NO. 43463</tspan></text><text
       xml:space="preserve"
       transform="matrix(1.0120104,0,0,1.4100631,-5.5650312,-96.886415)"
       style="font-style:normal;font-variant:normal;font-weight:normal;font-stretch:normal;font-size:2.54616px;font-family:Arial;-inkscape-font-specification:Arial;letter-spacing:0.177191px;writing-mode:lr-tb;white-space:pre;inline-size:151.984;display:inline;fill:#000000;fill-opacity:1;fill-rule:nonzero;stroke:none;stroke-width:0.036541"
       id="text756"
       x="53.589008"
       y="272.14896"><tspan
         x="53.589008"
         y="272.14896"
         id="tspan4225"><tspan
           style="font-family:Dubai;-inkscape-font-specification:Dubai"
           id="tspan4223">SHOP NO 5, INDRAPRASTH 3, OPP ASHOKA HOSPITAL BUS STOP, RAHEJA TOWNSHIP, JITENDRA ROAD, MALAD EAST, </tspan></tspan><tspan
         x="53.589008"
         y="275.38456"
         id="tspan4231"><tspan
           style="font-family:Dubai;-inkscape-font-specification:Dubai"
           id="tspan4227">MUMBAI 400097. </tspan><tspan
           style="font-family:Dubai;-inkscape-font-specification:Dubai"
           id="tspan4229">PHONE 9969028110</tspan></tspan></text><text
       xml:space="preserve"
       style="font-style:normal;font-variant:normal;font-weight:normal;font-stretch:normal;font-size:5.19492px;font-family:Arial;-inkscape-font-specification:Arial;fill:#2c939d;fill-opacity:1;stroke-width:0.0709976"
       x="3.5486822"
       y="41.389626"
       id="text4875"
       transform="scale(0.88435174,1.1307718)"><tspan
         sodipodi:role="line"
         id="tspan4873"
         style="font-style:normal;font-variant:normal;font-weight:normal;font-stretch:normal;font-family:Arial;-inkscape-font-specification:Arial;fill:#2c939d;fill-opacity:1;stroke-width:0.0709971"
         x="3.5486822"
         y="41.389626" /></text><text
       xml:space="preserve"
       style="font-style:normal;font-variant:normal;font-weight:normal;font-stretch:normal;font-size:2.94419px;font-family:Arial;-inkscape-font-specification:Arial;letter-spacing:0.21166666px;fill:#000000;fill-opacity:1;stroke-width:0.0578538"
       x="239.36682"
       y="32.904507"
       id="text6489"
       transform="scale(0.84572856,1.1824125)"><tspan
         sodipodi:role="line"
         id="tspan6487"
         style="font-style:normal;font-variant:normal;font-weight:normal;font-stretch:normal;font-size:2.94419px;font-family:Dubai;-inkscape-font-specification:Dubai;text-align:end;text-anchor:end;fill:#000000;fill-opacity:1;stroke-width:0.0578537"
         x="239.36682"
         y="32.904507">FAMILY PHYSICIAN</tspan><tspan
         sodipodi:role="line"
         style="font-style:normal;font-variant:normal;font-weight:normal;font-stretch:normal;font-size:2.94419px;font-family:Dubai;-inkscape-font-specification:Dubai;text-align:end;text-anchor:end;fill:#000000;fill-opacity:1;stroke-width:0.0578537"
         x="239.36682"
         y="36.645912"
         id="tspan6491">COSMETIC SKIN SPECIALIST</tspan><tspan
         sodipodi:role="line"
         style="font-style:normal;font-variant:normal;font-weight:normal;font-stretch:normal;font-size:2.94419px;font-family:Dubai;-inkscape-font-specification:Dubai;text-align:end;text-anchor:end;fill:#000000;fill-opacity:1;stroke-width:0.0578537"
         x="239.36682"
         y="40.387314"
         id="tspan29906">FEMALE PROBLEM SPECIALIST</tspan><tspan
         sodipodi:role="line"
         style="font-style:normal;font-variant:normal;font-weight:normal;font-stretch:normal;font-size:2.94419px;font-family:Dubai;-inkscape-font-specification:Dubai;text-align:end;text-anchor:end;fill:#000000;fill-opacity:1;stroke-width:0.0578537"
         x="239.36682"
         y="44.128719"
         id="tspan29908">VACCINATION</tspan><tspan
         sodipodi:role="line"
         style="font-style:normal;font-variant:normal;font-weight:normal;font-stretch:normal;font-size:2.94419px;font-family:Dubai;-inkscape-font-specification:Dubai;text-align:end;text-anchor:end;fill:#000000;fill-opacity:1;stroke-width:0.0578537"
         x="239.36682"
         y="47.870125"
         id="tspan24226" /></text><text
       xml:space="preserve"
       style="font-style:normal;font-variant:normal;font-weight:normal;font-stretch:normal;font-size:5.07384px;font-family:Arial;-inkscape-font-specification:Arial;fill:#006a6a;fill-opacity:1;stroke:none;stroke-width:0.658191"
       x="1.887566"
       y="121.7952"
       id="text532"
       transform="scale(0.99433963,1.0056926)"><tspan
         sodipodi:role="line"
         style="font-style:normal;font-variant:normal;font-weight:normal;font-stretch:normal;font-size:5.07384px;font-family:Arial;-inkscape-font-specification:Arial;fill:#006a6a;fill-opacity:1;stroke:none;stroke-width:0.658191"
         x="1.887566"
         y="121.7952"
         id="tspan544" /></text><text
       xml:space="preserve"
       style="font-style:normal;font-variant:normal;font-weight:normal;font-stretch:condensed;font-size:3.17879px;line-height:1.4;font-family:Arial;-inkscape-font-specification:'Arial Condensed';fill:#000000;fill-opacity:1;stroke:none;stroke-width:0.497723"
       x="9.1592112"
       y="278.54803"
       id="text532-0"
       transform="scale(1.0895084,0.91784514)"><tspan
         sodipodi:role="line"
         style="font-style:normal;font-variant:normal;font-weight:normal;font-stretch:normal;font-size:3.17879px;font-family:'Bradley Hand ITC';-inkscape-font-specification:'Bradley Hand ITC';direction:ltr;baseline-shift:baseline;fill:#000000;fill-opacity:1;stroke:none;stroke-width:0.497723"
         x="9.1592112"
         y="278.54803"
         id="tspan36692" /></text><text
       xml:space="preserve"
       style="font-style:normal;font-variant:normal;font-weight:normal;font-stretch:normal;font-size:3.00954px;line-height:1.4;font-family:Arial;-inkscape-font-specification:Arial;fill:#000000;fill-opacity:1;stroke:none;stroke-width:0.404255"
       x="9.5216322"
       y="212.49565"
       id="text532-0-19"
       transform="scale(0.97801671,1.0224774)"><tspan
         sodipodi:role="line"
         style="font-style:normal;font-variant:normal;font-weight:normal;font-stretch:normal;font-family:'Bradley Hand ITC';-inkscape-font-specification:'Bradley Hand ITC';direction:ltr;baseline-shift:baseline;fill:#000000;fill-opacity:1;stroke:none;stroke-width:0.404255"
         x="9.5216322"
         y="212.49565"
         id="tspan36692-16" /></text><text
       xml:space="preserve"
       style="font-variant:normal;font-weight:normal;font-stretch:normal;font-size:3.0069px;line-height:1.4;font-family:Arial;-inkscape-font-specification:Arial;letter-spacing:0.21166667px;opacity:1;fill:#000000;fill-opacity:1;stroke:none;stroke-width:0.403902"
       x="52.323833"
       y="34.533848"
       id="text532-0-1"
       transform="scale(0.8938143,1.1188006)"><tspan
         sodipodi:role="line"
         style="font-style:normal;font-variant:normal;font-weight:bold;font-stretch:normal;font-family:Dubai;-inkscape-font-specification:Dubai;text-align:end;direction:ltr;baseline-shift:baseline;text-anchor:end;fill:#000000;fill-opacity:1;stroke:none;stroke-width:0.403902"
         x="52.323833"
         y="34.533848"
         id="tspan536-3-9">SKIN</tspan><tspan
         sodipodi:role="line"
         style="font-style:normal;font-variant:normal;font-weight:normal;font-stretch:normal;font-family:Dubai;-inkscape-font-specification:Dubai;text-align:end;direction:ltr;baseline-shift:baseline;text-anchor:end;fill:#000000;fill-opacity:1;stroke:none;stroke-width:0.403902"
         x="52.323833"
         y="38.805977"
         id="tspan28948">LASER HAIR REMOVAL</tspan><tspan
         sodipodi:role="line"
         style="font-style:normal;font-variant:normal;font-weight:normal;font-stretch:normal;font-family:Dubai;-inkscape-font-specification:Dubai;text-align:end;direction:ltr;baseline-shift:baseline;text-anchor:end;fill:#000000;fill-opacity:1;stroke:none;stroke-width:0.403902"
         x="52.323833"
         y="43.078106"
         id="tspan142136-8">BOTOX - BARBIE BOTOX</tspan><tspan
         sodipodi:role="line"
         style="font-style:normal;font-variant:normal;font-weight:normal;font-stretch:normal;font-family:Dubai;-inkscape-font-specification:Dubai;text-align:end;direction:ltr;baseline-shift:baseline;text-anchor:end;fill:#000000;fill-opacity:1;stroke:none;stroke-width:0.403902"
         x="52.323833"
         y="47.350231"
         id="tspan12943">DERMAL FILLERS</tspan><tspan
         sodipodi:role="line"
         style="font-style:normal;font-variant:normal;font-weight:normal;font-stretch:normal;font-family:Dubai;-inkscape-font-specification:Dubai;text-align:end;direction:ltr;baseline-shift:baseline;text-anchor:end;fill:#000000;fill-opacity:1;stroke:none;stroke-width:0.403902"
         x="52.323833"
         y="51.62236"
         id="tspan13671">THREAD LIFTS</tspan><tspan
         sodipodi:role="line"
         style="font-style:normal;font-variant:normal;font-weight:normal;font-stretch:normal;font-family:Dubai;-inkscape-font-specification:Dubai;text-align:end;direction:ltr;baseline-shift:baseline;text-anchor:end;fill:#000000;fill-opacity:1;stroke:none;stroke-width:0.403902"
         x="52.323833"
         y="55.894489"
         id="tspan14399">VAMPIRE / MEDI / E - FACIAL</tspan><tspan
         sodipodi:role="line"
         style="font-style:normal;font-variant:normal;font-weight:normal;font-stretch:normal;font-family:Dubai;-inkscape-font-specification:Dubai;text-align:end;direction:ltr;baseline-shift:baseline;text-anchor:end;fill:#000000;fill-opacity:1;stroke:none;stroke-width:0.403902"
         x="52.323833"
         y="60.166615"
         id="tspan14401">BB GLOW</tspan><tspan
         sodipodi:role="line"
         style="font-style:normal;font-variant:normal;font-weight:normal;font-stretch:normal;font-family:Dubai;-inkscape-font-specification:Dubai;text-align:end;direction:ltr;baseline-shift:baseline;text-anchor:end;fill:#000000;fill-opacity:1;stroke:none;stroke-width:0.403902"
         x="52.323833"
         y="64.438744"
         id="tspan15131">SEMI PERMENANT MAKEUP</tspan><tspan
         sodipodi:role="line"
         style="font-style:normal;font-variant:normal;font-weight:normal;font-stretch:normal;font-family:Dubai;-inkscape-font-specification:Dubai;text-align:end;direction:ltr;baseline-shift:baseline;text-anchor:end;fill:#000000;fill-opacity:1;stroke:none;stroke-width:0.403902"
         x="52.323833"
         y="68.710876"
         id="tspan15859">MEDICAL MICRO BLADING</tspan><tspan
         sodipodi:role="line"
         style="font-style:normal;font-variant:normal;font-weight:normal;font-stretch:normal;font-family:Dubai;-inkscape-font-specification:Dubai;text-align:end;direction:ltr;baseline-shift:baseline;text-anchor:end;fill:#000000;fill-opacity:1;stroke:none;stroke-width:0.403902"
         x="52.323833"
         y="72.983002"
         id="tspan21440">KOREAN GLASS THERAPY</tspan><tspan
         sodipodi:role="line"
         style="font-style:normal;font-variant:normal;font-weight:normal;font-stretch:normal;font-family:Dubai;-inkscape-font-specification:Dubai;text-align:end;direction:ltr;baseline-shift:baseline;text-anchor:end;fill:#000000;fill-opacity:1;stroke:none;stroke-width:0.403902"
         x="52.323833"
         y="77.255127"
         id="tspan21444">CO2 FRACTIONAL LASER</tspan><tspan
         sodipodi:role="line"
         style="font-style:normal;font-variant:normal;font-weight:normal;font-stretch:normal;font-family:Dubai;-inkscape-font-specification:Dubai;text-align:end;direction:ltr;baseline-shift:baseline;text-anchor:end;fill:#000000;fill-opacity:1;stroke:none;stroke-width:0.403902"
         x="52.323833"
         y="81.527252"
         id="tspan540-9-4">ACNE / ACNE SCARS</tspan><tspan
         sodipodi:role="line"
         style="font-style:normal;font-variant:normal;font-weight:normal;font-stretch:normal;font-family:Dubai;-inkscape-font-specification:Dubai;text-align:end;direction:ltr;baseline-shift:baseline;text-anchor:end;fill:#000000;fill-opacity:1;stroke:none;stroke-width:0.403902"
         x="52.323833"
         y="85.799377"
         id="tspan35944-3">WARTS / SKIN TAGS / MOLES</tspan><tspan
         sodipodi:role="line"
         style="font-style:normal;font-variant:normal;font-weight:normal;font-stretch:normal;font-family:Dubai;-inkscape-font-specification:Dubai;text-align:end;direction:ltr;baseline-shift:baseline;text-anchor:end;fill:#000000;fill-opacity:1;stroke:none;stroke-width:0.403902"
         x="52.323833"
         y="90.07151"
         id="tspan142138-9">DRY / PATCHY SKIN</tspan><tspan
         sodipodi:role="line"
         style="font-style:normal;font-variant:normal;font-weight:normal;font-stretch:normal;font-family:Dubai;-inkscape-font-specification:Dubai;text-align:end;direction:ltr;baseline-shift:baseline;text-anchor:end;fill:#000000;fill-opacity:1;stroke:none;stroke-width:0.403902"
         x="52.323833"
         y="94.343636"
         id="tspan12045-8">AGE / DARK SPOTS</tspan><tspan
         sodipodi:role="line"
         style="font-style:normal;font-variant:normal;font-weight:normal;font-stretch:normal;font-family:Dubai;-inkscape-font-specification:Dubai;text-align:end;direction:ltr;baseline-shift:baseline;text-anchor:end;fill:#000000;fill-opacity:1;stroke:none;stroke-width:0.403902"
         x="52.323833"
         y="98.615761"
         id="tspan12047-2">TATTOO REMOVAL</tspan><tspan
         sodipodi:role="line"
         style="font-style:normal;font-variant:normal;font-weight:normal;font-stretch:normal;font-family:Dubai;-inkscape-font-specification:Dubai;text-align:end;direction:ltr;baseline-shift:baseline;text-anchor:end;fill:#000000;fill-opacity:1;stroke:none;stroke-width:0.403902"
         x="52.323833"
         y="102.88789"
         id="tspan12049-0">CHEMICAL PEELS</tspan><tspan
         sodipodi:role="line"
         style="font-style:normal;font-variant:normal;font-weight:normal;font-stretch:normal;font-family:Dubai;-inkscape-font-specification:Dubai;text-align:end;direction:ltr;baseline-shift:baseline;text-anchor:end;fill:#000000;fill-opacity:1;stroke:none;stroke-width:0.403902"
         x="52.323833"
         y="107.16002"
         id="tspan12051-6">PIGMENTATION / MELASMA</tspan><tspan
         sodipodi:role="line"
         style="font-style:normal;font-variant:normal;font-weight:normal;font-stretch:normal;font-family:Dubai;-inkscape-font-specification:Dubai;text-align:end;direction:ltr;baseline-shift:baseline;text-anchor:end;fill:#000000;fill-opacity:1;stroke:none;stroke-width:0.403902"
         x="52.323833"
         y="111.43215"
         id="tspan12053-3">TANNING</tspan><tspan
         sodipodi:role="line"
         style="font-style:normal;font-variant:normal;font-weight:normal;font-stretch:normal;font-family:Dubai;-inkscape-font-specification:Dubai;text-align:end;direction:ltr;baseline-shift:baseline;text-anchor:end;fill:#000000;fill-opacity:1;stroke:none;stroke-width:0.403902"
         x="52.323833"
         y="115.70428"
         id="tspan12079-9">SKIN WHITENING</tspan><tspan
         sodipodi:role="line"
         style="font-style:normal;font-variant:normal;font-weight:normal;font-stretch:normal;font-family:Dubai;-inkscape-font-specification:Dubai;text-align:end;direction:ltr;baseline-shift:baseline;text-anchor:end;fill:#000000;fill-opacity:1;stroke:none;stroke-width:0.403902"
         x="52.323833"
         y="119.97641"
         id="tspan12081-7">CARBON LASER PEEL</tspan><tspan
         sodipodi:role="line"
         style="font-style:normal;font-variant:normal;font-weight:normal;font-stretch:normal;font-family:Dubai;-inkscape-font-specification:Dubai;text-align:end;direction:ltr;baseline-shift:baseline;text-anchor:end;fill:#000000;fill-opacity:1;stroke:none;stroke-width:0.403902"
         x="52.323833"
         y="124.24853"
         id="tspan12083-6">MICRONEEDLING</tspan><tspan
         sodipodi:role="line"
         style="font-style:normal;font-variant:normal;font-weight:normal;font-stretch:normal;font-family:Dubai;-inkscape-font-specification:Dubai;text-align:end;direction:ltr;baseline-shift:baseline;text-anchor:end;fill:#000000;fill-opacity:1;stroke:none;stroke-width:0.403902"
         x="52.323833"
         y="128.52066"
         id="tspan12085-6">KELOID</tspan><tspan
         sodipodi:role="line"
         style="font-style:normal;font-variant:normal;font-weight:normal;font-stretch:normal;font-family:Dubai;-inkscape-font-specification:Dubai;text-align:end;direction:ltr;baseline-shift:baseline;text-anchor:end;fill:#000000;fill-opacity:1;stroke:none;stroke-width:0.403902"
         x="52.323833"
         y="132.79279"
         id="tspan12087-4">LARGE PORES</tspan><tspan
         sodipodi:role="line"
         style="font-style:normal;font-variant:normal;font-weight:normal;font-stretch:normal;font-family:Dubai;-inkscape-font-specification:Dubai;text-align:end;direction:ltr;baseline-shift:baseline;text-anchor:end;fill:#000000;fill-opacity:1;stroke:none;stroke-width:0.403902"
         x="52.323833"
         y="137.06493"
         id="tspan36694-7">PRP SKIN</tspan><tspan
         sodipodi:role="line"
         style="font-style:normal;font-variant:normal;font-weight:normal;font-stretch:normal;font-family:Dubai;-inkscape-font-specification:Dubai;text-align:end;direction:ltr;baseline-shift:baseline;text-anchor:end;fill:#000000;fill-opacity:1;stroke:none;stroke-width:0.403902"
         x="52.323833"
         y="141.33704"
         id="tspan35958-2">BIO GEL FILLER</tspan><tspan
         sodipodi:role="line"
         style="font-style:normal;font-variant:normal;font-weight:normal;font-stretch:normal;font-family:Dubai;-inkscape-font-specification:Dubai;text-align:end;direction:ltr;baseline-shift:baseline;text-anchor:end;fill:#000000;fill-opacity:1;stroke:none;stroke-width:0.403902"
         x="52.323833"
         y="145.60916"
         id="tspan35960-2">HIFU SKIN TIGHTENING</tspan><tspan
         sodipodi:role="line"
         style="font-style:normal;font-variant:normal;font-weight:normal;font-stretch:normal;font-family:Dubai;-inkscape-font-specification:Dubai;text-align:end;direction:ltr;baseline-shift:baseline;text-anchor:end;fill:#000000;fill-opacity:1;stroke:none;stroke-width:0.403902"
         x="52.323833"
         y="149.8813"
         id="tspan21436">WRINKLES</tspan><tspan
         sodipodi:role="line"
         style="font-style:normal;font-variant:normal;font-weight:normal;font-stretch:normal;font-family:Dubai;-inkscape-font-specification:Dubai;text-align:end;direction:ltr;baseline-shift:baseline;text-anchor:end;fill:#000000;fill-opacity:1;stroke:none;stroke-width:0.403902"
         x="52.323833"
         y="154.15341"
         id="tspan18547">MESOTHERAPY</tspan><tspan
         sodipodi:role="line"
         style="font-style:normal;font-variant:normal;font-weight:normal;font-stretch:normal;font-family:Dubai;-inkscape-font-specification:Dubai;text-align:end;direction:ltr;baseline-shift:baseline;text-anchor:end;fill:#000000;fill-opacity:1;stroke:none;stroke-width:0.403902"
         x="52.323833"
         y="158.42555"
         id="tspan37567-4">UNDER EYE BAGS</tspan><tspan
         sodipodi:role="line"
         style="font-style:normal;font-variant:normal;font-weight:normal;font-stretch:normal;font-family:Dubai;-inkscape-font-specification:Dubai;text-align:end;direction:ltr;baseline-shift:baseline;text-anchor:end;fill:#000000;fill-opacity:1;stroke:none;stroke-width:0.403902"
         x="52.323833"
         y="162.69768"
         id="tspan35962-7">VAGINAL REJUVENATION</tspan><tspan
         sodipodi:role="line"
         style="font-style:normal;font-variant:normal;font-weight:normal;font-stretch:normal;font-family:Dubai;-inkscape-font-specification:Dubai;text-align:end;direction:ltr;baseline-shift:baseline;text-anchor:end;fill:#000000;fill-opacity:1;stroke:none;stroke-width:0.403902"
         x="52.323833"
         y="166.96982"
         id="tspan36700-0">URINARY-INCONTINENCE (SUI)</tspan><tspan
         sodipodi:role="line"
         style="font-style:normal;font-variant:normal;font-weight:normal;font-stretch:normal;font-family:Dubai;-inkscape-font-specification:Dubai;text-align:end;direction:ltr;baseline-shift:baseline;text-anchor:end;fill:#000000;fill-opacity:1;stroke:none;stroke-width:0.403902"
         x="52.323833"
         y="171.24193"
         id="tspan36696-5">IV VITAMIN BOOSTER</tspan><tspan
         sodipodi:role="line"
         style="font-style:normal;font-variant:normal;font-weight:normal;font-stretch:normal;font-family:Dubai;-inkscape-font-specification:Dubai;text-align:end;direction:ltr;baseline-shift:baseline;text-anchor:end;fill:#000000;fill-opacity:1;stroke:none;stroke-width:0.403902"
         x="52.323833"
         y="175.51407"
         id="tspan21442">IV GLUTATHIONE</tspan><tspan
         sodipodi:role="line"
         style="font-style:normal;font-variant:normal;font-weight:bold;font-stretch:normal;font-family:Dubai;-inkscape-font-specification:Dubai;text-align:end;direction:ltr;baseline-shift:baseline;text-anchor:end;fill:#000000;fill-opacity:1;stroke:none;stroke-width:0.403902"
         x="52.323833"
         y="179.78619"
         id="tspan28829">HAIR</tspan><tspan
         sodipodi:role="line"
         style="font-style:normal;font-variant:normal;font-weight:normal;font-stretch:normal;font-family:Dubai;-inkscape-font-specification:Dubai;text-align:end;direction:ltr;baseline-shift:baseline;text-anchor:end;fill:#000000;fill-opacity:1;stroke:none;stroke-width:0.403902"
         x="52.323833"
         y="184.05832"
         id="tspan36692-1">PRP</tspan><tspan
         sodipodi:role="line"
         style="font-style:normal;font-variant:normal;font-weight:normal;font-stretch:normal;font-family:Dubai;-inkscape-font-specification:Dubai;text-align:end;direction:ltr;baseline-shift:baseline;text-anchor:end;fill:#000000;fill-opacity:1;stroke:none;stroke-width:0.403902"
         x="52.323833"
         y="188.33044"
         id="tspan28885">GFC -  GROWTH FACTOR</tspan><tspan
         sodipodi:role="line"
         style="font-style:normal;font-variant:normal;font-weight:normal;font-stretch:normal;font-family:Dubai;-inkscape-font-specification:Dubai;text-align:end;direction:ltr;baseline-shift:baseline;text-anchor:end;fill:#000000;fill-opacity:1;stroke:none;stroke-width:0.403902"
         x="52.323833"
         y="192.60257"
         id="tspan28887">HAIR GROWTH</tspan><tspan
         sodipodi:role="line"
         style="font-style:normal;font-variant:normal;font-weight:normal;font-stretch:normal;font-family:Dubai;-inkscape-font-specification:Dubai;text-align:end;direction:ltr;baseline-shift:baseline;text-anchor:end;fill:#000000;fill-opacity:1;stroke:none;stroke-width:0.403902"
         x="52.323833"
         y="196.87469"
         id="tspan28889">HAIR FALL</tspan><tspan
         sodipodi:role="line"
         style="font-style:normal;font-variant:normal;font-weight:normal;font-stretch:normal;font-family:Dubai;-inkscape-font-specification:Dubai;text-align:end;direction:ltr;baseline-shift:baseline;text-anchor:end;fill:#000000;fill-opacity:1;stroke:none;stroke-width:0.403902"
         x="52.323833"
         y="201.14682"
         id="tspan28891">EXOSOMES</tspan><tspan
         sodipodi:role="line"
         style="font-style:normal;font-variant:normal;font-weight:normal;font-stretch:normal;font-family:Dubai;-inkscape-font-specification:Dubai;text-align:end;direction:ltr;baseline-shift:baseline;text-anchor:end;fill:#000000;fill-opacity:1;stroke:none;stroke-width:0.403902"
         x="52.323833"
         y="205.41896"
         id="tspan28893">STEMCELL</tspan><tspan
         sodipodi:role="line"
         style="font-style:normal;font-variant:normal;font-weight:normal;font-stretch:normal;font-family:Dubai;-inkscape-font-specification:Dubai;text-align:end;direction:ltr;baseline-shift:baseline;text-anchor:end;fill:#000000;fill-opacity:1;stroke:none;stroke-width:0.403902"
         x="52.323833"
         y="209.69109"
         id="tspan28895">DANDRUFF</tspan><tspan
         sodipodi:role="line"
         style="font-style:normal;font-variant:normal;font-weight:bold;font-stretch:normal;font-family:Dubai;-inkscape-font-specification:Dubai;text-align:end;direction:ltr;baseline-shift:baseline;text-anchor:end;fill:#000000;fill-opacity:1;stroke:none;stroke-width:0.403902"
         x="52.323833"
         y="213.96321"
         id="tspan28903">OBESITY</tspan><tspan
         sodipodi:role="line"
         style="font-style:normal;font-variant:normal;font-weight:normal;font-stretch:normal;font-family:Dubai;-inkscape-font-specification:Dubai;text-align:end;direction:ltr;baseline-shift:baseline;text-anchor:end;fill:#000000;fill-opacity:1;stroke:none;stroke-width:0.403902"
         x="52.323833"
         y="218.23534"
         id="tspan28897">NECK TIGHTENING</tspan><tspan
         sodipodi:role="line"
         style="font-style:normal;font-variant:normal;font-weight:normal;font-stretch:normal;font-family:Dubai;-inkscape-font-specification:Dubai;text-align:end;direction:ltr;baseline-shift:baseline;text-anchor:end;fill:#000000;fill-opacity:1;stroke:none;stroke-width:0.403902"
         x="52.323833"
         y="222.50748"
         id="tspan28932">DOUBLE CHIN</tspan><tspan
         sodipodi:role="line"
         style="font-style:normal;font-variant:normal;font-weight:normal;font-stretch:normal;font-family:Dubai;-inkscape-font-specification:Dubai;text-align:end;direction:ltr;baseline-shift:baseline;text-anchor:end;fill:#000000;fill-opacity:1;stroke:none;stroke-width:0.403902"
         x="52.323833"
         y="226.77959"
         id="tspan28934">TUMMY TIGHTENING</tspan><tspan
         sodipodi:role="line"
         style="font-style:normal;font-variant:normal;font-weight:normal;font-stretch:normal;font-family:Dubai;-inkscape-font-specification:Dubai;text-align:end;direction:ltr;baseline-shift:baseline;text-anchor:end;fill:#000000;fill-opacity:1;stroke:none;stroke-width:0.403902"
         x="52.323833"
         y="231.05173"
         id="tspan28936">ARM TIGHTENING</tspan><tspan
         sodipodi:role="line"
         style="font-style:normal;font-variant:normal;font-weight:normal;font-stretch:normal;font-family:Dubai;-inkscape-font-specification:Dubai;text-align:end;direction:ltr;baseline-shift:baseline;text-anchor:end;fill:#000000;fill-opacity:1;stroke:none;stroke-width:0.403902"
         x="52.323833"
         y="235.32385"
         id="tspan28938">LIPO DISSOLVE</tspan><tspan
         sodipodi:role="line"
         style="font-style:normal;font-variant:normal;font-weight:normal;font-stretch:normal;font-family:Dubai;-inkscape-font-specification:Dubai;text-align:end;direction:ltr;baseline-shift:baseline;text-anchor:end;fill:#000000;fill-opacity:1;stroke:none;stroke-width:0.403902"
         x="52.323833"
         y="239.59598"
         id="tspan28942">EMS</tspan><tspan
         sodipodi:role="line"
         style="font-style:normal;font-variant:normal;font-weight:normal;font-stretch:normal;font-family:Dubai;-inkscape-font-specification:Dubai;text-align:end;direction:ltr;baseline-shift:baseline;text-anchor:end;fill:#000000;fill-opacity:1;stroke:none;stroke-width:0.403902"
         x="52.323833"
         y="243.8681"
         id="tspan28899" /><tspan
         sodipodi:role="line"
         style="font-style:normal;font-variant:normal;font-weight:normal;font-stretch:normal;font-family:Dubai;-inkscape-font-specification:Dubai;text-align:end;direction:ltr;baseline-shift:baseline;text-anchor:end;fill:#000000;fill-opacity:1;stroke:none;stroke-width:0.403902"
         x="52.323833"
         y="248.14023"
         id="tspan28901" /></text><text
       xml:space="preserve"
       style="font-style:normal;font-variant:normal;font-weight:normal;font-stretch:normal;font-size:4.9px;font-family:Arial;-inkscape-font-specification:Arial;fill:#006a6a;fill-opacity:1;stroke:none;stroke-width:1.52215;stroke-opacity:1"
       x="2.3195484"
       y="86.214157"
       id="text6403-6"
       transform="scale(1.0161609,0.98409612)"><tspan
         sodipodi:role="line"
         style="font-style:normal;font-variant:normal;font-weight:normal;font-stretch:normal;font-size:4.9px;font-family:Arial;-inkscape-font-specification:Arial;fill:#006a6a;fill-opacity:1;stroke-width:1.52215"
         x="2.3195484"
         y="86.214157"
         id="tspan6495" /></text><text
       xml:space="preserve"
       style="font-style:normal;font-variant:normal;font-weight:normal;font-stretch:normal;font-size:3px;font-family:Arial;-inkscape-font-specification:Arial;fill:#2d949d;fill-opacity:0.0899654;stroke-width:0.0410001"
       x="33.177422"
       y="66"
       id="text12041"><tspan
         sodipodi:role="line"
         id="tspan12039"
         style="stroke-width:0.041"
         x="33.177422"
         y="66" /><tspan
         sodipodi:role="line"
         style="stroke-width:0.041"
         id="tspan12043"
         x="33.177422"
         y="69.75" /></text><text
       xml:space="preserve"
       transform="scale(0.26458333)"
       id="text28958"
       style="font-style:normal;font-variant:normal;font-weight:normal;font-stretch:condensed;font-size:18.8976px;font-family:Arial;-inkscape-font-specification:'Arial Condensed';direction:ltr;white-space:pre;shape-inside:url(#rect28960);display:inline;fill:#2d949d;fill-opacity:0.06;stroke-width:0.154961" /><text
       xml:space="preserve"
       style="font-style:normal;font-variant:normal;font-weight:normal;font-stretch:condensed;font-size:4.99999px;font-family:Arial;-inkscape-font-specification:'Arial Condensed';direction:ltr;fill:#ec7345;fill-opacity:1;stroke-width:0.0410001"
       x="25.814516"
       y="125.52419"
       id="text35950"><tspan
         sodipodi:role="line"
         id="tspan35948"
         style="stroke-width:0.041"
         x="25.814516"
         y="125.52419" /><tspan
         sodipodi:role="line"
         style="stroke-width:0.041"
         id="tspan35952"
         x="25.814516"
         y="131.77419" /></text><text
       xml:space="preserve"
       transform="scale(0.26458333)"
       id="text11595"
       style="font-style:normal;font-variant:normal;font-weight:normal;font-stretch:condensed;font-size:11.3386px;font-family:Arial;-inkscape-font-specification:'Arial Condensed';white-space:pre;shape-inside:url(#rect11597);display:inline;fill:#3d8c95;fill-opacity:0.06;stroke-width:0.154961" /><text
       xml:space="preserve"
       transform="scale(0.26458333)"
       id="text11851"
       style="font-style:normal;font-variant:normal;font-weight:normal;font-stretch:condensed;font-size:11.3386px;font-family:Arial;-inkscape-font-specification:'Arial Condensed';white-space:pre;shape-inside:url(#rect11853);display:inline;fill:#225675;fill-opacity:1;stroke-width:0.154961" /><text
       xml:space="preserve"
       style="font-style:normal;font-variant:normal;font-weight:normal;font-stretch:normal;font-size:4.02069px;font-family:Arial;-inkscape-font-specification:Arial;text-decoration:underline;text-decoration-line:underline;fill:#000000;fill-opacity:1;stroke-width:0.0507227"
       x="2.7684264"
       y="34.112896"
       id="text12042"
       transform="scale(0.87312521,1.1453111)"><tspan
         sodipodi:role="line"
         id="tspan12040"
         style="font-style:normal;font-variant:normal;font-weight:bold;font-stretch:normal;font-size:4.02069px;font-family:'Bradley Hand ITC';-inkscape-font-specification:'Bradley Hand ITC Bold';fill:#000000;fill-opacity:1;stroke-width:0.0507226"
         x="2.7684264"
         y="34.112896" /></text><text
       xml:space="preserve"
       style="font-style:normal;font-variant:normal;font-weight:normal;font-stretch:normal;font-size:4.02069px;font-family:Arial;-inkscape-font-specification:Arial;text-decoration:underline;text-decoration-line:underline;fill:#000000;fill-opacity:1;stroke-width:0.0507227"
       x="16.154127"
       y="219.12103"
       id="text12042-9"
       transform="scale(0.87312521,1.1453111)"><tspan
         sodipodi:role="line"
         id="tspan12040-1"
         style="font-style:normal;font-variant:normal;font-weight:bold;font-stretch:normal;font-size:4.02069px;font-family:'Bradley Hand ITC';-inkscape-font-specification:'Bradley Hand ITC Bold';fill:#000000;fill-opacity:1;stroke-width:0.0507226"
         x="16.154127"
         y="219.12103" /></text><text
       xml:space="preserve"
       style="font-style:normal;font-variant:normal;font-weight:normal;font-stretch:normal;font-size:4.02069px;font-family:Arial;-inkscape-font-specification:Arial;text-decoration:underline;text-decoration-line:underline;fill:#000000;fill-opacity:1;stroke-width:0.0507227"
       x="20.325136"
       y="186.29318"
       id="text12042-0"
       transform="scale(0.87312521,1.1453111)"><tspan
         sodipodi:role="line"
         id="tspan12040-7"
         style="font-style:normal;font-variant:normal;font-weight:bold;font-stretch:normal;font-size:4.02069px;font-family:'Bradley Hand ITC';-inkscape-font-specification:'Bradley Hand ITC Bold';fill:#000000;fill-opacity:1;stroke-width:0.0507226"
         x="20.325136"
         y="186.29318" /></text><g
       style="font-style:normal;font-variant:normal;font-weight:normal;font-stretch:normal;font-size:200px;line-height:125%;font-family:'Palatino Linotype';-inkscape-font-specification:'Palatino Linotype';letter-spacing:0px;word-spacing:0px;fill:#000000;fill-opacity:1;stroke:none"
       id="text2989"
       transform="matrix(0.26458333,0,0,0.26458333,-43.667913,68.827343)" /><g
       style="font-style:normal;font-variant:normal;font-weight:normal;font-stretch:normal;font-size:200px;line-height:125%;font-family:'Palatino Linotype';-inkscape-font-specification:'Palatino Linotype';text-align:start;letter-spacing:0px;word-spacing:0px;writing-mode:lr-tb;text-anchor:start;fill:#0963aa;fill-opacity:0.890196;stroke:none"
       id="text2985"
       transform="matrix(0.0589676,0,0,0.04976945,39.11024,21.856112)"><path
         d="m 318.28125,282.84375 c -2.08341,1.3e-4 -5.44017,0.0574 -10.0625,0.1875 -12.50005,0.45587 -22.42452,0.68764 -29.78125,0.6875 -6.64065,1.4e-4 -15.92971,-0.26028 -27.84375,-0.78125 l -0.78125,0.6875 v 4.875 l 0.78125,0.6875 c 6.90103,0.26055 11.24217,0.63815 13,1.09375 1.75779,0.45586 2.94399,1.03399 3.5625,1.75 0.61847,0.71628 1.08201,2.13294 1.375,4.28125 0.29294,2.14856 0.46615,6.95324 0.53125,14.375 l 0.1875,19.03125 v 45.21875 l -0.0937,20.59375 c -0.0651,6.96616 -0.32684,11.48179 -0.75,13.5 -0.4232,2.01824 -0.97268,3.31902 -1.65625,3.9375 -0.68362,0.6185 -2.01304,1.14063 -4.03125,1.53125 -2.01824,0.39063 -6.07033,0.70834 -12.125,0.96875 l -0.78125,0.59375 v 4.875 l 0.78125,0.78125 c 16.60154,-0.52083 25.91924,-0.78125 27.9375,-0.78125 2.60414,0 6.22131,0.0573 10.84375,0.1875 11.13276,0.39062 16.86192,0.59375 17.1875,0.59375 l 0.78125,-0.78125 v -4.875 l -0.78125,-0.59375 c -6.9011,-0.26041 -11.24224,-0.63672 -13,-1.125 -1.75786,-0.48828 -2.94405,-1.09635 -3.5625,-1.8125 -0.61853,-0.71614 -1.08077,-2.1328 -1.40625,-4.28125 -0.32557,-2.14842 -0.52865,-6.92446 -0.59375,-14.28125 l -0.0937,-19.03125 v -45.21875 c -4e-5,-22.98166 0.49214,-35.19258 1.46875,-36.625 6.05464,-1.88789 12.4765,-2.81237 19.3125,-2.8125 9.76555,1.3e-4 17.52076,2.19935 23.25,6.59375 5.72908,4.39465 8.59366,10.87511 8.59375,19.46875 -9e-5,9.57041 -3.18238,17.06519 -9.5625,22.46875 -6.38029,5.40372 -15.2058,8.09382 -26.46875,8.09375 -1.88808,7e-5 -4.52089,-0.0859 -7.90625,-0.28125 l -0.96875,3.03125 c 11.71869,13.34641 23.17701,27.81255 34.375,43.4375 9.18651,12.84885 15.95732,21.96162 20.46875,27.53125 l 3.0625,5.125 -26.65625,37.46875 c -6.83596,9.50523 -11.43752,15.75653 -13.78125,18.71875 -2.34377,2.96225 -4.25262,4.81381 -5.75,5.5625 -1.49741,0.7487 -4.45053,1.15365 -8.8125,1.21875 L 297.75,489.5 v 4.6875 l 0.875,0.875 c 4.10155,-0.26042 7.40103,-0.375 9.875,-0.375 2.40883,0 5.73696,0.11458 9.96875,0.375 12.69528,-21.28904 23.71871,-38.39059 33.09375,-51.28125 l 7.125,-9.84375 29.6875,43.84375 c 3.32022,5.72918 6.9374,11.48698 10.84375,17.28125 6.70562,-0.26042 11.71082,-0.375 15.03125,-0.375 2.53894,0 6.90873,0.11458 13.09375,0.375 l 0.78125,-0.78125 V 489.5 l -0.78125,-0.78125 c -4.16679,-0.0651 -6.82824,-0.35547 -8,-0.84375 -1.17199,-0.48828 -2.73579,-1.96223 -4.65625,-4.46875 -1.92069,-2.5065 -4.43761,-6.29685 -7.5625,-11.375 L 370.59375,419.3125 c -0.0745,-0.35621 -0.21081,-0.71075 -0.375,-1.09375 L 377.34375,408.75 395.5,384.125 c 6.5103,-8.78894 10.8215,-14.28633 12.9375,-16.5 2.11577,-2.21341 3.85275,-3.60273 5.1875,-4.15625 1.33451,-0.55325 4.05456,-0.92956 8.15625,-1.125 l 0.78125,-0.78125 v -4.375 l -0.78125,-0.90625 c -5.53398,0.19547 -8.57304,0.31264 -9.09375,0.3125 -1.172,1.4e-4 -4.49751,-0.11705 -10.03125,-0.3125 l -37.3125,54.75 c -1.46152,-1.87128 -3.53556,-4.88231 -6.75,-9.09375 -5.14334,-6.73825 -9.94541,-13.13278 -14.4375,-19.1875 l -13.875,-18.34375 c -4.75269,-6.24994 -8.05216,-10.64837 -9.875,-13.1875 9.83064,-1.88795 17.5572,-4.72519 23.15625,-8.46875 5.59885,-3.74341 9.82281,-8.22648 12.6875,-13.5 2.86447,-5.27335 4.31239,-10.65614 4.3125,-16.125 -1.1e-4,-8.203 -2.92198,-15.29154 -8.78125,-21.28125 -5.85947,-5.98945 -17.02874,-8.99987 -33.5,-9 z"
         id="path2997"
         inkscape:connector-curvature="0"
         style="fill:#0963aa;fill-opacity:0.890196" /></g><path
       style="fill:#3b77a8;fill-opacity:1;stroke-width:0.0402373"
       d="m 29.478853,250.97112 -3.664587,-0.37229"
       id="path18532" /><text
       xml:space="preserve"
       style="font-weight:bold;font-stretch:condensed;font-size:3.25001px;font-family:Arial;-inkscape-font-specification:'Arial Bold Condensed';fill:#3b77a8;fill-opacity:1;stroke-width:0.0410001"
       x="2.6345429"
       y="266.08884"
       id="text19405"><tspan
         sodipodi:role="line"
         id="tspan19403"
         style="stroke-width:0.041"
         x="2.6345429"
         y="266.08884" /></text><rect
       style="opacity:1;fill:#0971c3;fill-opacity:0.890196;stroke-width:0.0236541"
       id="rect65084"
       width="105.68305"
       height="0.17805061"
       x="96.579704"
       y="33.725594" /><rect
       style="opacity:1;fill:#000000;fill-opacity:1;stroke-width:0.0352681"
       id="rect65084-8"
       width="234.94089"
       height="0.17805061"
       x="-16.253925"
       y="281.11227" /><text
       xml:space="preserve"
       transform="scale(0.26458333)"
       id="text81771"
       style="font-style:normal;font-variant:normal;font-weight:bold;font-stretch:normal;font-size:9.44882px;font-family:Dubai;-inkscape-font-specification:'Dubai Bold';text-align:end;white-space:pre;shape-inside:url(#rect81773);display:inline;opacity:0.4;fill:#777b97;fill-opacity:1;stroke-width:0.154961" /><g
       id="g106133"
       transform="matrix(0.0838382,0,0,0.09956407,-15.074443,128.29404)"
       style="fill:#108ff5;fill-opacity:1" /><text
       xml:space="preserve"
       transform="scale(0.26458333)"
       id="text2298"
       style="font-style:normal;font-variant:normal;font-weight:normal;font-stretch:normal;font-size:9.44882px;font-family:Dubai;-inkscape-font-specification:Dubai;text-align:end;white-space:pre;shape-inside:url(#rect2300);display:inline;opacity:0.926121;fill:#4d4d4d;fill-opacity:1;stroke-width:0.154961" /></g></svg>
