<?xml version="1.0" encoding="UTF-8" standalone="no"?>
<!-- Created with Inkscape (http://www.inkscape.org/) -->

<svg
   width="210mm"
   height="297mm"
   viewBox="0 0 210 297"
   version="1.1"
   id="svg438"
   xml:space="preserve"
   inkscape:version="1.2.2 (732a01da63, 2022-12-09)"
   sodipodi:docname="LETERHEAD - Copy (3).svg"
   inkscape:export-filename="LETERHEAD_blue.pdf"
   inkscape:export-xdpi="96"
   inkscape:export-ydpi="96"
   xmlns:inkscape="http://www.inkscape.org/namespaces/inkscape"
   xmlns:sodipodi="http://sodipodi.sourceforge.net/DTD/sodipodi-0.dtd"
   xmlns:xlink="http://www.w3.org/1999/xlink"
   xmlns="http://www.w3.org/2000/svg"
   xmlns:svg="http://www.w3.org/2000/svg"><sodipodi:namedview
     id="namedview440"
     pagecolor="#ffffff"
     bordercolor="#000000"
     borderopacity="0.25"
     inkscape:showpageshadow="2"
     inkscape:pageopacity="0"
     inkscape:pagecheckerboard="0"
     inkscape:deskcolor="#d1d1d1"
     inkscape:document-units="mm"
     showgrid="false"
     inkscape:zoom="0.5272499"
     inkscape:cx="55.950698"
     inkscape:cy="567.09352"
     inkscape:window-width="1920"
     inkscape:window-height="1017"
     inkscape:window-x="-8"
     inkscape:window-y="-8"
     inkscape:window-maximized="1"
     inkscape:current-layer="g88810"
     showguides="true" /><defs
     id="defs435"><linearGradient
       inkscape:collect="always"
       id="linearGradient39282"><stop
         style="stop-color:#2d5ea8;stop-opacity:0.90588236;"
         offset="0"
         id="stop39278" /><stop
         style="stop-color:#b5dffc;stop-opacity:0.30980393;"
         offset="1"
         id="stop39280" /></linearGradient><linearGradient
       inkscape:collect="always"
       id="linearGradient38723"><stop
         style="stop-color:#0f91f5;stop-opacity:1;"
         offset="0"
         id="stop38719" /><stop
         style="stop-color:#0f91f5;stop-opacity:0;"
         offset="1"
         id="stop38721" /></linearGradient><rect
       x="598.62506"
       y="16.358467"
       width="87.00808"
       height="100.5216"
       id="rect11853" /><rect
       x="610.71613"
       y="92.935059"
       width="170.69705"
       height="18.966339"
       id="rect11847" /><rect
       x="148.88576"
       y="33.191093"
       width="436.2258"
       height="77.761986"
       id="rect11597" /><rect
       x="610.21082"
       y="116.67767"
       width="142.159"
       height="113.99543"
       id="rect28960" /><clipPath
       clipPathUnits="userSpaceOnUse"
       id="clipPath364"><path
         d="M 0,0 H 5185 V 1728 H 0 Z"
         id="path362" /></clipPath><clipPath
       clipPathUnits="userSpaceOnUse"
       id="clipPath668"><path
         d="M 0,0 H 5185 V 1728 H 0 Z"
         id="path666" /></clipPath><linearGradient
       inkscape:collect="always"
       xlink:href="#linearGradient13928"
       id="linearGradient13930"
       x1="196.00053"
       y1="134.85144"
       x2="-95.154541"
       y2="144.50682"
       gradientUnits="userSpaceOnUse"
       gradientTransform="matrix(0.99988315,0.00332595,0.03476354,0.99823243,-0.2491121,1.0168254)" /><linearGradient
       inkscape:collect="always"
       id="linearGradient13928"><stop
         style="stop-color:#0f91f5;stop-opacity:1;"
         offset="0"
         id="stop13926" /><stop
         style="stop-color:#ffffff;stop-opacity:0;"
         offset="1"
         id="stop40442" /><stop
         style="stop-color:#ffffff;stop-opacity:0;"
         offset="1"
         id="stop13924" /></linearGradient><linearGradient
       inkscape:collect="always"
       xlink:href="#linearGradient38723"
       id="linearGradient38725"
       x1="133.21072"
       y1="109.77894"
       x2="13.899053"
       y2="-4.1453881"
       gradientUnits="userSpaceOnUse" /><linearGradient
       inkscape:collect="always"
       xlink:href="#linearGradient39282"
       id="linearGradient39284"
       x1="-21.799135"
       y1="175.24609"
       x2="19.59717"
       y2="175.07794"
       gradientUnits="userSpaceOnUse" /><linearGradient
       inkscape:collect="always"
       xlink:href="#linearGradient14071-1"
       id="linearGradient14073-6"
       x1="21.213039"
       y1="282.70374"
       x2="100.51208"
       y2="301.65616"
       gradientUnits="userSpaceOnUse"
       gradientTransform="matrix(1.2219569,0.0190513,0.01836986,1.7039573,-81.317895,-328.48559)" /><linearGradient
       inkscape:collect="always"
       id="linearGradient14071-1"><stop
         style="stop-color:#95cffa;stop-opacity:0.43529412;"
         offset="0"
         id="stop14067-9" /><stop
         style="stop-color:#ffffff;stop-opacity:0.3019608;"
         offset="1"
         id="stop14069-3" /></linearGradient><linearGradient
       inkscape:collect="always"
       xlink:href="#linearGradient81256"
       id="linearGradient14073"
       x1="37.684582"
       y1="182.07277"
       x2="81.806168"
       y2="183.12878"
       gradientUnits="userSpaceOnUse"
       gradientTransform="matrix(2.1883147,0.02284692,0.02202966,2.7663445,-142.46796,-269.5932)" /><linearGradient
       inkscape:collect="always"
       id="linearGradient81256"><stop
         style="stop-color:#3f6fb2;stop-opacity:0.83137256;"
         offset="0"
         id="stop81252" /><stop
         style="stop-color:#ffffff;stop-opacity:0.3019608;"
         offset="1"
         id="stop81254" /></linearGradient></defs><g
     inkscape:label="Layer 1"
     inkscape:groupmode="layer"
     id="layer1"><g
       id="g14910"
       transform="translate(-0.53534943,-0.89018813)"><g
         id="g24227"><rect
           style="fill:url(#linearGradient13930);fill-opacity:1;stroke-width:0.0531096"
           id="rect8019"
           width="109.40556"
           height="49.176788"
           x="-70.517082"
           y="70.733353"
           transform="matrix(0.73169439,-0.68163284,0.70574659,0.70846437,0,0)" /><path
           id="rect8017"
           style="fill:url(#linearGradient38725);fill-opacity:1;stroke-width:0.0380783"
           d="m 0.730853,0.96651 1e-6,14.58154 L 43.686888,56.00244 78.394339,23.648331 53.298188,0.96651 Z"
           sodipodi:nodetypes="cccccc" /><path
           sodipodi:type="star"
           style="fill:url(#linearGradient39284);fill-opacity:1;stroke-width:0.0410001"
           id="path11619"
           inkscape:flatsided="true"
           sodipodi:sides="3"
           sodipodi:cx="6.3870964"
           sodipodi:cy="183.2742"
           sodipodi:r1="24.561529"
           sodipodi:r2="12.280765"
           sodipodi:arg1="1.0068372"
           sodipodi:arg2="2.0540347"
           inkscape:rounded="2.5326963e-16"
           inkscape:randomized="3.469447e-18"
           d="M 19.516128,204.03226 -18.154431,184.26524 17.799592,161.52509 Z"
           inkscape:transform-center-x="-7.1136398"
           inkscape:transform-center-y="0.021300934"
           transform="matrix(-1.1623461,-0.0747962,0.04423237,-1.8952003,14.460604,403.83751)" /></g></g><path
       d="m 125.144,266.01782 c -0.52239,-0.54964 -0.78574,-2.21419 -0.85252,-5.38878 l -0.0959,-4.59319 -2.17252,-0.85036 c -4.82756,-1.89048 -6.83365,-4.79858 -6.94406,-10.06461 -0.0581,-2.76629 0.15672,-3.63966 1.27799,-5.20101 1.44169,-2.00737 1.44276,-2.00198 -1.12234,-4.46165 -3.55174,-3.40589 -4.56098,-11.81867 -1.75568,-14.6358 0.58756,-0.58973 1.06364,-1.29488 1.05825,-1.56675 -0.007,-0.27187 -1.15357,-1.77851 -2.55057,-3.34819 -4.33748,-4.87386 -4.87926,-6.10273 -5.01067,-11.37025 -0.10615,-4.24208 0.0135,-4.8582 1.38353,-7.11544 0.82452,-1.35942 2.19244,-3.1653 3.03904,-4.01323 l 1.53918,-1.54131 -2.01741,-2.11004 c -1.10996,-1.16042 -2.6669,-3.31298 -3.46018,-4.7834 -1.27637,-2.36727 -1.45894,-3.31739 -1.59249,-8.29542 -0.13087,-4.87533 0.009,-5.95798 1.04694,-8.15261 0.65918,-1.3922 1.89462,-3.16042 2.74552,-3.92961 1.49986,-1.35552 2.0201,-2.69097 1.04155,-2.67386 -0.26335,0.004 -1.83859,-1.16139 -3.5011,-2.59123 -4.61107,-3.96676 -7.09702,-10.92035 -5.33435,-14.92037 l 0.78521,-1.7824 -2.0271,-1.43718 c -1.988871,-1.4098 -3.10043,-2.92618 -4.756479,-6.49148 l -0.830441,-1.7868 -2.712677,0.8396 c -2.599582,0.8044 -2.833311,0.79855 -5.566992,-0.14139 -1.787987,-0.61515 -3.986885,-0.95062 -5.889045,-0.89877 -2.134272,0.0582 -3.814548,-0.24305 -5.658545,-1.0142 -1.442228,-0.60392 -3.700369,-1.13644 -5.017122,-1.18436 -1.604342,-0.0577 -3.400408,-0.62397 -5.440973,-1.71395 -2.174663,-1.16187 -3.701454,-1.62299 -5.335416,-1.61125 -2.586115,0.0191 -6.829352,-1.76529 -9.078336,-3.81713 l -1.428774,-1.30319 2.981413,-0.66016 c 3.63252,-0.80441 13.245639,-5.38194 19.731396,-9.39615 2.631895,-1.62885 8.135337,-5.04745 12.229394,-7.5971 9.134347,-5.688069 9.824231,-6.024972 14.020609,-6.849932 9.715988,-1.910513 17.489408,2.024475 18.896648,9.566332 0.54285,2.90661 -0.30482,5.47632 -2.60604,7.90223 -0.9737,1.02643 -1.76645,2.06604 -1.76106,2.31006 0.005,0.24449 0.79543,1.02201 1.75675,1.72861 1.41262,1.03863 2.10681,1.22542 3.61906,0.97555 2.83546,-0.46796 3.26253,-1.16626 3.22376,-5.26995 -0.0258,-2.7658 -0.3156,-4.1482 -1.19289,-5.68855 -2.40139,-4.21812 -1.17135,-8.7756 2.91679,-10.807409 5.53521,-2.751104 11.62136,-0.207811 12.40442,5.183899 0.21918,1.50857 -0.0543,2.75847 -1.06742,4.87436 -1.19718,2.50076 -1.33291,3.36335 -1.11802,7.11105 l 0.24505,4.26556 2.53279,0.1042 c 2.3287,0.0959 5.79802,-0.9863 5.7808,-1.80392 -0.003,-0.16929 -0.58971,-0.97849 -1.30276,-1.79903 -3.18012,-3.65821 -3.57272,-9.67731 -0.87836,-13.47392 3.34331,-4.711519 7.95654,-6.310057 14.83166,-5.139875 6.31181,1.074313 8.976,2.457705 24.44694,12.694935 3.70361,2.45038 9.91792,6.04258 13.81004,7.98196 6.73456,3.35552 7.2128,3.51445 9.89908,3.28657 2.5958,-0.22055 2.82468,-0.15507 2.84518,0.81272 0.0302,1.43473 -3.32126,5.01959 -5.83091,6.2372 -1.12986,0.54817 -3.00401,1.01321 -4.1646,1.03325 -1.16057,0.0202 -3.47634,0.63326 -5.14583,1.36235 -2.47087,1.07924 -3.48711,1.27239 -5.46575,1.03767 -1.72445,-0.20441 -2.77084,-0.0773 -3.60289,0.43863 -1.33186,0.82592 -4.60894,1.4719 -8.93779,1.76138 -8.90977,0.5961 -11.89765,0.87581 -12.37858,1.15697 -0.29405,0.17207 -0.85843,1.05624 -1.25428,1.9653 -0.79866,1.83327 -2.9421,4.09244 -5.17439,5.45382 -1.34367,0.81908 -1.45732,1.14526 -1.39753,3.99954 0.0916,4.36873 -1.59412,7.75849 -5.99781,12.06121 l -3.50922,3.42837 2.27108,2.3702 c 3.38047,3.52763 4.47749,5.96383 4.57928,10.17217 0.15938,6.56973 -1.54294,10.30227 -6.53746,14.33017 l -2.51234,2.02642 1.68728,1.57752 c 3.9912,3.73107 4.34663,4.52228 4.42365,9.84455 0.0868,6.01421 -0.75127,7.82743 -5.36665,11.61474 -2.95609,2.42594 -3.96481,3.95257 -2.59527,3.92911 0.31236,-0.006 1.21336,1.24451 2.0018,2.77755 2.48648,4.83425 1.50577,9.92231 -2.801,14.53943 -1.12934,1.21077 -2.05082,2.32275 -2.04757,2.47143 0.002,0.14822 0.62796,1.06993 1.38945,2.04791 1.12019,1.43866 1.39646,2.37508 1.44924,4.91154 0.11579,5.51299 -3.57596,9.99566 -8.29958,10.07731 l -1.56074,0.0268 -0.25203,5.48708 c -0.23105,5.03671 -0.58919,6.22938 -1.88708,6.28072 -0.18522,0.008 -0.67751,-0.34475 -1.09326,-0.78289 z m 1.41856,-12.69445 c -0.14961,-7.13942 -0.42224,-10.9683 -0.77984,-10.96194 -0.36027,0.006 -0.44375,3.88364 -0.24181,11.2475 0.17547,6.38636 0.51217,11.11891 0.77983,10.96242 0.25959,-0.15211 0.36836,-5.21323 0.24182,-11.24798 z m -2.51988,-5.76093 c -0.15511,-4.31983 -0.88323,-5.17655 -2.25384,-2.65332 -0.98176,1.80735 -0.60802,5.08757 0.85737,7.52622 l 0.87677,1.45867 0.32958,-1.22836 c 0.18151,-0.67578 0.26713,-2.97214 0.19012,-5.10321 z m 6.24555,4.53501 c 0.73836,-1.312 0.57625,-6.07195 -0.23049,-6.77755 -1.22735,-1.07239 -1.44062,-0.5697 -1.52787,3.59805 -0.0635,3.02446 0.0909,4.1565 0.56711,4.14722 0.35974,-0.008 0.89559,-0.44206 1.19125,-0.96772 z m 4.33589,-2.3927 c 3.35247,-5.14134 1.95062,-9.01913 -4.97675,-13.76829 -0.57411,-0.39366 -2.04594,-1.40196 -3.27061,-2.24109 -1.22467,-0.83863 -2.92218,-2.4005 -3.77201,-3.47042 -1.36416,-1.71689 -1.52626,-2.28414 -1.37707,-4.82842 l 0.1691,-2.88363 -2.26622,-1.24793 c -1.24674,-0.68606 -2.65882,-1.24059 -3.13866,-1.23277 -2.29424,0.0401 -3.32501,6.35553 -1.61296,9.88563 1.64204,3.38584 6.66833,7.20201 11.88202,9.02158 2.72506,0.9511 5.88744,3.94429 6.36188,6.02106 0.39263,1.71933 0.20192,4.19709 -0.50729,6.5844 -0.32692,1.10171 -0.27358,1.15843 0.51593,0.54719 0.48415,-0.37459 1.38084,-1.44892 1.99264,-2.38731 z m -15.5108,-0.33594 c -0.49707,-3.27581 -0.008,-5.42694 1.60974,-7.07242 1.58764,-1.61516 1.34744,-2.6406 -0.72058,-3.07386 -1.20421,-0.25231 -1.69644,-0.0478 -2.72884,1.13303 -1.11587,1.27678 -1.22521,1.81174 -0.96131,4.69049 0.20412,2.22446 0.68719,3.79806 1.5311,4.98682 0.67857,0.95551 1.32321,1.73547 1.43308,1.73351 0.11036,-0.002 0.0366,-1.0807 -0.16319,-2.39757 z m 15.73537,-15.84557 c 2.74875,-2.33791 4.09621,-5.09978 4.02995,-8.26166 -0.0985,-4.68659 -3.36376,-8.61914 -10.2109,-12.29543 -3.95188,-2.12177 -7.77451,-5.06508 -8.78966,-6.76778 -1.2516,-2.09878 -1.08411,-5.36727 0.37968,-7.40785 1.45946,-2.03573 1.50092,-1.979 -3.42573,-4.66117 -3.31747,-1.80539 -3.54527,-1.72373 -5.70486,2.04843 -2.07073,3.61666 -2.25599,7.32963 -0.58648,11.75411 1.0938,2.89829 1.85799,3.95798 4.66922,6.4768 2.03896,1.82642 4.70963,3.60051 6.7879,4.50859 6.70009,2.92667 9.98957,6.7438 8.12886,9.43283 -0.46961,0.67824 -0.80888,2.22739 -0.7809,3.56382 0.0841,4.01764 2.00933,4.58097 5.50292,1.60931 z m -7.62802,-3.04697 c 0.0311,-4.03327 -0.52402,-5.73793 -1.86123,-5.71495 -0.72758,0.013 -0.43299,6.57022 0.32528,7.23329 1.14119,0.99757 1.51925,0.6235 1.53595,-1.51834 z m -3.53398,-4.58534 c -0.23158,-0.81128 -0.26228,-0.81077 -0.63549,0.0112 -0.21594,0.47482 -0.19979,1.24449 0.0356,1.7115 0.40768,0.80783 0.43839,0.80733 0.63549,-0.0111 0.11418,-0.47238 0.098,-1.24255 -0.0356,-1.71101 z m 13.80896,-11.97708 c 3.73809,-2.15358 5.97359,-6.06363 6.21594,-10.87199 0.16326,-3.23082 0.0222,-3.83034 -1.54832,-6.59317 -0.95001,-1.67141 -2.29261,-3.4851 -2.98357,-4.02984 -1.80683,-1.42545 -9.64812,-6.07243 -11.88633,-7.04408 -1.04641,-0.45426 -3.43864,-1.71052 -5.31603,-2.79219 -2.93294,-1.68948 -3.57166,-2.32715 -4.5389,-4.53302 -1.83861,-4.1932 -1.53487,-7.1135 1.01409,-9.75607 1.45677,-1.50954 0.929,-2.27142 -2.65614,-3.83571 l -3.08803,-1.34768 -1.8483,1.98828 c -2.87048,3.08852 -3.80325,5.64942 -3.70792,10.18342 0.0705,3.36336 0.32528,4.36434 1.78798,7.01569 1.99425,3.61616 5.70649,6.98489 10.21522,9.27099 6.82774,3.46113 12.35758,6.9125 13.35282,8.33304 0.57299,0.8176 1.06038,2.32079 1.08248,3.33986 0.0431,1.94917 -1.38085,5.13059 -2.79026,6.23477 -1.40398,1.09976 -0.90582,2.35748 1.5225,3.8416 2.76922,1.69241 3.18661,1.74034 5.17277,0.5961 z m -9.75153,-7.29004 c 0.0265,-6.61228 -0.009,-6.75604 -1.77989,-7.54968 l -1.63128,-0.73056 0.10782,5.12667 c 0.0975,4.64892 0.21972,5.21862 1.30974,6.10666 0.66187,0.53837 1.37762,0.80977 1.59196,0.60242 0.21381,-0.20685 0.39477,-1.80684 0.40177,-3.55551 z m 3.39718,-1.61371 c 0.0506,-2.67336 -1.04478,-2.34378 -1.17242,0.35258 -0.089,1.88998 0.0281,2.31346 0.51323,1.85967 0.34576,-0.32323 0.64197,-1.31883 0.65919,-2.21225 z m -8.22527,-2.79365 c -0.79598,-0.69536 -1.36468,1.32029 -0.83315,2.95112 0.41684,1.27872 0.43354,1.26797 0.90854,-0.57996 0.32207,-1.2538 0.29675,-2.04549 -0.0754,-2.37116 z m 16.76453,-16.08421 c 4.43226,-3.07387 6.48522,-7.0861 6.44374,-12.5947 -0.0163,-2.23327 -0.34843,-3.74623 -1.1164,-5.08708 -1.05126,-1.8357 -5.73611,-6.53254 -6.50301,-6.51935 -0.20465,0.004 -1.94523,-0.83081 -3.86784,-1.85429 -1.96034,-1.04352 -6.31559,-2.62054 -9.91472,-3.59023 -7.25105,-1.95356 -12.0759,-4.24942 -14.52631,-6.91252 -1.33237,-1.44842 -1.72713,-2.40051 -1.96248,-4.73499 -0.31021,-3.07924 0.0937,-3.56872 1.68029,-2.03668 2.20912,2.1335 7.60539,1.41955 9.87592,-1.30613 1.1945,-1.43424 1.06094,-2.45918 -0.38722,-2.97459 -3.96157,-1.4098 -8.63727,-0.85428 -12.17338,1.44597 -4.47805,2.91297 -5.67202,7.70518 -3.0342,12.17906 2.48702,4.2186 5.9499,6.47094 17.69191,11.50814 9.88456,4.2406 11.665,5.24159 13.22141,7.43376 2.13803,3.01177 0.9333,7.75751 -2.77891,10.94433 -2.06751,1.77457 -2.24898,2.53939 -0.85578,3.60346 1.28283,0.97994 4.04507,2.22396 4.95683,2.23277 0.40498,0.004 1.86715,-0.778 3.25015,-1.73693 z m -27.48921,-46.0531 c -0.67966,-0.59412 0.17394,-1.17263 1.77075,-1.2005 0.87084,-0.0148 1.58819,0.19267 1.59357,0.46163 0.007,0.26895 -0.33337,0.49487 -0.7529,0.5022 -0.42006,0.008 -1.09703,0.13604 -1.50363,0.28557 -0.40714,0.15007 -0.90531,0.12808 -1.10779,-0.049 z m 16.26205,37.1039 c 0.25474,-6.38342 0.2445,-6.45432 -1.027,-7.31057 -1.66521,-1.12127 -3.19091,-1.54131 -3.67131,-1.01028 -0.21004,0.23229 -0.18095,3.34284 0.0646,6.91302 0.43192,6.28902 0.48847,6.51055 1.80631,7.13452 2.49184,1.18043 2.55648,1.04938 2.82738,-5.72669 z m 4.35203,2.30562 c 1.36844,-1.97652 1.43093,-3.88362 0.18461,-5.62594 -0.62741,-0.87678 -1.37599,-1.45625 -1.66413,-1.28754 -0.68448,0.40098 -0.52777,8.07437 0.16487,8.06265 0.28922,-0.006 0.88107,-0.52226 1.31461,-1.14917 z m -10.56313,-3.82692 c -0.0786,-3.75306 -0.2488,-4.64205 -0.88645,-4.63082 -0.91932,0.0149 -1.60434,1.10809 -2.07718,3.31298 -0.23643,1.10123 10e-4,2.23132 0.79328,3.77704 1.73953,3.39465 2.27969,2.78193 2.17035,-2.4592 z m 18.14267,-16.27342 c 5.06722,-2.49685 9.32554,-8.26314 9.64705,-13.06268 0.18319,-2.73155 0.0736,-3.07337 -1.55372,-4.86409 -2.70029,-2.97165 -5.55135,-4.23278 -9.4704,-4.1883 -3.57112,0.0401 -6.38774,1.03817 -6.63763,2.3521 -0.0857,0.44891 0.56441,1.51983 1.4444,2.38046 1.3943,1.36384 2.01149,1.58485 4.80602,1.71981 2.85,0.13788 3.38856,0.0112 4.84695,-1.14769 0.90207,-0.71638 1.79013,-1.30514 1.97324,-1.30855 0.45562,-0.008 -0.15775,3.93156 -0.80137,5.14915 -1.86337,3.52375 -6.72702,7.33356 -11.14152,8.72672 -2.73205,0.8626 -2.38523,1.77851 1.31461,3.47191 3.32502,1.52226 3.88993,1.60048 5.57237,0.77116 z m -1.7966,-19.80501 c -1.52625,-0.33399 -1.10565,-1.11102 0.61719,-1.14086 1.79175,-0.0308 2.62919,0.67923 1.35551,1.1482 -0.46313,0.17059 -0.88374,0.28556 -0.93437,0.25525 -0.0501,-0.0303 -0.51754,-0.14859 -1.03833,-0.26259 z m -9.69767,15.54433 c 0.18624,-1.78584 0.3156,-5.19513 0.63442,-16.76244 0.19337,-6.99711 0.43945,-12.98591 0.54717,-13.30863 0.10825,-0.32226 0.18462,-3.18487 0.17077,-6.36093 l -0.0253,-5.7751 -3.69605,-0.27286 c -2.03249,-0.15063 -3.7693,-0.20439 -3.85926,-0.11976 -0.0893,0.085 -0.0819,9.4118 0.0167,20.72677 0.14165,16.14484 0.3269,20.65587 0.86276,20.95759 0.89346,0.50318 3.75261,1.42153 4.61107,1.48116 0.37051,0.0255 0.7028,-0.22884 0.73781,-0.56576 z m 5.97305,-1.90123 c 2.43533,-1.06699 6.21382,-4.1027 6.19549,-4.97753 -0.007,-0.29976 -0.37536,-0.53888 -0.81914,-0.53154 -0.4443,0.008 -0.75234,-0.23863 -0.68503,-0.54768 0.0679,-0.30905 -0.72057,-0.75405 -1.75191,-0.98878 -1.03077,-0.23519 -2.74554,-1.0973 -3.81024,-1.9154 l -1.93607,-1.48851 -0.0975,3.08853 c -0.0534,1.69829 0.0253,3.19561 0.17504,3.32666 0.15023,0.13048 1.36901,-0.12273 2.7089,-0.56332 3.31586,-1.08999 3.09506,-0.33449 -0.34573,1.18191 -2.7213,1.19999 -3.48712,2.20782 -2.81718,3.7076 0.39909,0.89242 0.50141,0.88315 3.18338,-0.29194 z m -13.24132,-0.87482 c -0.39529,-0.87872 -6.95861,-4.1922 -8.2592,-4.16971 -0.93438,0.0167 -0.87083,0.18633 0.55309,1.48557 3.35678,3.06262 8.71643,4.92914 7.70611,2.68414 z m -0.36621,-3.20589 c 0.3716,-1.48021 0.40121,-5.99809 0.0393,-5.99173 -0.18955,0.004 -1.10511,0.54915 -2.0341,1.21322 -0.92954,0.66406 -2.51233,1.52617 -3.51835,1.91542 l -1.82837,0.70758 3.21998,1.4411 c 3.97343,1.77798 3.85925,1.75794 4.12152,0.71441 z m 32.32808,-10.69688 c 1.2462,-1.22641 2.65612,-2.79464 3.13383,-3.48462 0.85519,-1.23571 0.82828,-1.29144 -1.79984,-3.76922 -1.46702,-1.38337 -2.85595,-2.58535 -3.08589,-2.67092 -0.22996,-0.0856 -1.4961,0.73889 -2.81339,1.83278 -3.56413,2.95992 -5.77166,3.81177 -10.1382,3.91248 -2.07289,0.0479 -4.37681,-0.013 -5.11999,-0.13454 -1.23546,-0.20195 -1.34799,-0.0743 -1.31513,1.48998 0.0393,1.88559 -0.0302,1.8714 4.27337,0.87043 3.40256,-0.7912 8.06639,0.30563 11.02951,2.59415 1.12181,0.86651 2.38363,1.57849 2.80477,1.58239 0.42116,0.003 1.78528,-0.99657 3.03096,-2.22299 z m -47.77369,0.86896 c 0.33389,-0.37996 1.85476,-1.20394 3.37993,-1.83082 2.27484,-0.93547 3.3794,-1.09929 6.1551,-0.91199 1.86068,0.12513 3.84147,0.44059 4.40264,0.70074 1.27367,0.5912 1.69374,0.21321 1.65819,-1.49145 l -0.0281,-1.33449 -4.44197,0.0895 c -3.40256,0.0689 -5.02736,-0.14176 -6.94461,-0.90074 -2.32544,-0.92031 -5.96713,-3.91592 -7.39698,-6.08513 -0.56924,-0.86309 -0.79328,-0.74915 -3.064887,1.55161 -1.347992,1.36528 -2.444474,2.76676 -2.437479,3.11394 0.02854,1.35698 2.318997,4.44503 4.515216,6.0871 2.5134,1.87921 3.27815,2.06358 4.20284,1.01173 z m 59.92768,-6.52132 c 1.28175,-0.47236 1.01679,-1.00392 -1.05716,-2.11885 -1.03725,-0.55745 -3.03581,-2.52177 -4.44197,-4.36482 -2.28237,-2.99218 -2.74175,-3.34768 -4.2917,-3.32129 -3.77739,0.0654 -3.91905,2.13646 -0.37323,5.45041 2.69654,2.51932 4.75379,3.68022 7.51223,4.24012 0.89292,0.18094 1.66415,0.3511 1.71476,0.37751 0.0501,0.027 0.47177,-0.0915 0.93707,-0.26308 z M 119.5054,131.6659 c 1.45677,-0.29096 1.76698,-1.4939 1.67166,-6.47632 l -0.077,-4.02644 -3.21892,0.36187 -3.21891,0.36185 -2.47464,-2.16285 c -3.07458,-2.68755 -3.24636,-4.09685 -0.73995,-6.07682 2.41162,-1.90515 3.48441,-4.09097 3.42356,-6.97705 -0.0436,-2.09245 -0.31882,-2.66653 -2.1122,-4.4059 -2.73098,-2.648911 -6.2601,-3.758454 -11.30578,-3.554545 -3.298618,0.133069 -4.435496,0.4445 -8.30121,2.274845 -2.463868,1.16626 -5.826036,2.97311 -7.471843,4.01518 -1.645809,1.04206 -4.995053,3.16236 -7.442762,4.71152 -9.697131,6.13745 -14.736885,8.80786 -24.164202,12.80252 l -2.128889,0.90269 1.540793,0.69927 c 2.81931,1.27972 6.990917,1.2714 10.707451,-0.0215 6.277341,-2.18388 22.981008,-12.12673 24.515336,-14.59277 1.256437,-2.01957 1.951705,-1.5154 2.014178,1.46017 0.119557,5.69637 5.943973,10.59566 12.474438,10.49297 0.96238,-0.0148 1.75459,0.19266 1.75998,0.46163 0.006,0.26895 -0.26389,0.49339 -0.59886,0.49925 -0.9764,0.0167 -0.11419,3.67387 1.26343,5.3624 1.59249,1.95109 4.98428,3.78827 7.80736,4.22984 2.08204,0.32519 2.99218,0.27432 6.07701,-0.3418 z m 58.89582,-0.73643 c -0.007,-0.26261 -0.68395,-0.83376 -1.50741,-1.26897 -3.88885,-2.05527 -6.59292,-3.80883 -8.65071,-5.6103 -4.50174,-3.94134 -4.31433,-3.85577 -6.16856,-2.81714 -0.89777,0.50221 -1.62481,1.27287 -1.61565,1.7115 0.0265,1.25673 6.26819,6.14088 9.4311,7.38049 2.92594,1.14672 8.53117,1.54476 8.51123,0.60442 z m -85.071516,-0.0324 c 1.045328,-0.50319 3.029877,-1.86848 4.409651,-3.03327 4.087055,-3.45089 4.224385,-4.56238 0.631179,-5.11054 -1.971101,-0.30074 -2.131042,-0.21029 -5.588535,3.14915 -1.957629,1.90221 -4.217923,3.86213 -5.021977,4.35505 -1.689433,1.03618 -1.838073,1.60295 -0.4987,1.90268 1.377613,0.30809 3.890486,-0.21466 6.068382,-1.26307 z m 48.714016,0.10905 c 3.13866,-0.77556 6.35272,-3.44991 7.44059,-6.19076 0.7082,-1.78485 0.74321,-2.34426 0.18421,-2.93254 -0.37968,-0.39999 -0.60048,-0.73644 -0.49061,-0.74719 0.11035,-0.0111 2.05403,-0.0998 4.31971,-0.19707 3.66699,-0.15746 4.37196,-0.34962 6.42705,-1.75307 3.57273,-2.44059 5.42104,-6.5883 4.47104,-10.03429 -0.45885,-1.66308 1.34099,-0.59706 2.19298,1.29928 0.93601,2.08315 5.24763,5.42643 14.18971,11.00154 7.25483,4.52324 16.01648,6.29393 19.72709,3.98681 2.0018,-1.2445 1.81653,-2.01271 -0.63549,-2.63375 -5.27078,-1.33546 -15.43861,-6.72766 -26.67921,-14.14923 -14.46924,-9.553115 -19.47505,-11.302753 -27.63248,-9.656777 -1.71635,0.346203 -4.96165,3.184857 -5.77487,5.051867 -1.4907,3.42006 -0.39367,7.37755 2.85648,10.3047 l 2.05079,1.84695 -1.17458,1.63278 c -2.39817,3.33351 -5.49806,4.42448 -9.62173,3.38634 l -1.48909,-0.37508 0.1028,4.92815 0.10346,4.92815 1.75946,0.42885 c 2.44715,0.59562 4.91695,0.55552 7.67273,-0.12567 z m 45.17142,-1.51543 c 0.90638,-0.33348 1.15464,-1.67923 0.30696,-1.66455 -1.04208,0.0184 -11.89656,-6.65189 -15.79081,-9.70325 -4.17163,-3.26847 -5.18033,-3.68511 -5.70973,-2.35697 -0.78895,1.97899 -0.20356,3.25577 2.62114,5.71885 6.58809,5.74479 14.93885,9.34481 18.57244,8.00592 z M 84.113499,129.38167 c 1.324293,-0.64205 4.260469,-2.47434 6.525072,-4.07189 l 4.117213,-2.90467 -1.766983,-1.59316 c -0.971542,-0.8763 -1.958705,-1.58974 -2.193513,-1.58584 -0.234807,0.003 -1.680276,1.07433 -3.21245,2.37851 -3.552277,3.02495 -7.473459,5.71104 -10.359011,7.09735 -2.714292,1.30367 -2.856469,1.92518 -0.493851,2.1555 2.587197,0.25234 4.683772,-0.16671 7.383523,-1.4758 z m -8.947471,-2.48411 c 2.868856,-1.30564 14.637252,-8.37023 14.628633,-8.78148 -0.01506,-0.72959 -1.906466,-4.70858 -2.23552,-4.7032 -0.2305,0.003 -3.494651,2.18436 -7.254268,4.84502 -5.941286,4.20589 -13.282262,8.22596 -15.076709,8.25725 -1.277441,0.022 -0.43838,0.98778 1.205813,1.38829 3.113897,0.75842 5.445279,0.48997 8.732051,-1.00588 z m 56.508992,-18.14388 c 3.75745,-4.24893 0.75557,-9.810328 -5.23955,-9.706657 -2.32278,0.04011 -2.90926,0.268451 -4.46945,1.739867 -1.53862,1.45183 -1.78906,2.02689 -1.74704,4.0186 0.0437,2.09144 0.27789,2.51542 2.32868,4.22106 2.16498,1.7995 2.41862,1.88118 4.99666,1.61125 2.23606,-0.23424 2.96526,-0.56675 4.1307,-1.88412 z m -5.1351,-0.34084 c -0.19072,-0.26847 0.15245,-0.64108 0.76259,-0.82836 1.64258,-0.50465 3.00835,-3.49246 2.14558,-4.6949 -1.38136,-1.92617 -0.0831,-2.76237 1.66682,-1.07286 1.29576,1.25135 1.19613,3.69049 -0.21219,5.17752 -1.29897,1.37166 -3.81507,2.18975 -4.3628,1.4186 z"
       id="path567"
       style="fill:#0f91f5;fill-opacity:0.08077994;stroke-width:0.513177;opacity:0.4" /><path
       d="m 27.020881,22.863891 c -0.08228,-0.06062 -0.123765,-0.244241 -0.134284,-0.594418 l -0.01511,-0.506659 -0.342201,-0.0938 c -0.760404,-0.208532 -1.07639,-0.529315 -1.093781,-1.110191 -0.0092,-0.305141 0.02469,-0.401479 0.201301,-0.573706 0.227084,-0.221425 0.227253,-0.220832 -0.176784,-0.492149 -0.559445,-0.375692 -0.718415,-1.303678 -0.276542,-1.614426 0.09255,-0.06505 0.167536,-0.142833 0.166687,-0.172822 -0.0012,-0.02999 -0.181702,-0.196181 -0.401747,-0.369327 -0.683212,-0.53762 -0.768549,-0.673171 -0.789247,-1.254214 -0.01672,-0.467928 0.0022,-0.535891 0.217924,-0.784879 0.129873,-0.149952 0.345339,-0.349153 0.478689,-0.442685 l 0.24244,-0.170018 -0.317768,-0.23275 c -0.174834,-0.128002 -0.420073,-0.365444 -0.545026,-0.52764 -0.201044,-0.261127 -0.229802,-0.36593 -0.250838,-0.915041 -0.02062,-0.537779 0.0014,-0.657203 0.164907,-0.899286 0.10383,-0.153567 0.298429,-0.348614 0.432456,-0.433461 0.236249,-0.149522 0.318193,-0.296832 0.164059,-0.294944 -0.04148,4.41e-4 -0.289604,-0.128108 -0.55147,-0.285829 -0.726304,-0.437561 -1.117875,-1.2045867 -0.840231,-1.6458144 l 0.123682,-0.19661 -0.319295,-0.158531 C 22.845428,8.9391809 22.670343,8.7719139 22.409493,8.3786372 l -0.130805,-0.197095 -0.427282,0.09261 c -0.409469,0.08873 -0.446285,0.08808 -0.876875,-0.0156 -0.281632,-0.06785 -0.627988,-0.104859 -0.927603,-0.09914 -0.336176,0.0064 -0.600842,-0.02681 -0.891296,-0.111873 -0.227164,-0.06661 -0.582851,-0.125351 -0.790257,-0.130636 C 18.11267,7.9105032 17.829766,7.8480742 17.50835,7.7278417 17.165812,7.5996802 16.925322,7.5488156 16.667951,7.5501105 16.260604,7.5522142 15.592238,7.3553874 15.237993,7.1290567 l -0.22505,-0.1437511 0.469612,-0.07282 c 0.572169,-0.088731 2.086364,-0.5936629 3.107956,-1.0364565 0.414557,-0.179673 1.281422,-0.5567673 1.926291,-0.8380102 1.438779,-0.6274309 1.547446,-0.6645939 2.20843,-0.7555921 1.530397,-0.2107423 2.754813,0.2233128 2.976473,1.0552289 0.08551,0.3206176 -0.04801,0.604074 -0.410486,0.8716677 -0.153371,0.1132219 -0.278239,0.2278974 -0.27739,0.2548147 7.83e-4,0.02697 0.125291,0.1127348 0.276711,0.1906771 0.222506,0.1145673 0.331851,0.1351722 0.57005,0.1076094 0.446622,-0.051619 0.513891,-0.128646 0.507785,-0.5813098 -0.004,-0.3050857 -0.04971,-0.4575734 -0.187897,-0.6274843 -0.37825,-0.4652864 -0.184502,-0.9680061 0.459433,-1.192128 0.871869,-0.3034649 1.830518,-0.022923 1.953861,0.5718182 0.03452,0.1664051 -0.0085,0.3042767 -0.168133,0.5376738 -0.188572,0.2758502 -0.20995,0.3709991 -0.176102,0.784395 l 0.0386,0.4705191 0.398947,0.011494 c 0.366801,0.010581 0.913265,-0.1087957 0.910553,-0.198984 -4.74e-4,-0.018673 -0.09289,-0.1079335 -0.205202,-0.198445 -0.500912,-0.403525 -0.562752,-1.0674703 -0.138354,-1.4862613 0.526616,-0.5197115 1.25326,-0.6960407 2.336183,-0.5669619 0.994193,0.1185039 1.413838,0.271101 3.850716,1.4003341 0.583368,0.2702928 1.562204,0.666537 2.175264,0.8804631 1.060782,0.370136 1.136111,0.3876664 1.559236,0.3625298 0.408873,-0.024327 0.444924,-0.017104 0.448153,0.089648 0.0048,0.15826 -0.523142,0.5536939 -0.918445,0.6880041 -0.177968,0.060466 -0.473171,0.1117649 -0.65598,0.1139742 -0.182805,0.00222 -0.54757,0.069852 -0.810536,0.1502765 -0.389196,0.119048 -0.549265,0.140354 -0.860928,0.114462 -0.271624,-0.02255 -0.436444,-0.0085 -0.567502,0.04838 -0.209787,0.0911 -0.72597,0.16236 -1.407822,0.194291 -1.403405,0.06575 -1.874037,0.09661 -1.949789,0.1276217 -0.04632,0.01898 -0.135214,0.116509 -0.197565,0.216785 -0.1258,0.202221 -0.46342,0.4514217 -0.815035,0.6015917 -0.211647,0.09035 -0.229547,0.126329 -0.220129,0.4411747 0.01443,0.4818997 -0.251096,0.8558127 -0.944736,1.3304307 l -0.552748,0.378172 0.357725,0.261449 c 0.53247,0.38912 0.705264,0.657849 0.721297,1.122057 0.0251,0.724684 -0.243032,1.136408 -1.029736,1.580711 l -0.395726,0.223528 0.265769,0.174011 c 0.628666,0.411559 0.684651,0.498835 0.696783,1.085916 0.01368,0.663408 -0.118335,0.863418 -0.845318,1.281183 -0.465624,0.267597 -0.62451,0.435995 -0.40879,0.433407 0.0492,-6.72e-4 0.19112,0.137278 0.31531,0.306381 0.391654,0.53325 0.237179,1.094496 -0.441194,1.603796 -0.177887,0.133554 -0.323032,0.256214 -0.32252,0.272614 3.15e-4,0.01635 0.09891,0.11802 0.218857,0.225897 0.176445,0.158694 0.219961,0.261988 0.228275,0.541776 0.01824,0.608119 -0.563261,1.102587 -1.307294,1.111593 l -0.245837,0.003 -0.0397,0.60526 c -0.0364,0.555583 -0.09281,0.687142 -0.297241,0.692805 -0.02918,8.72e-4 -0.106717,-0.03802 -0.172203,-0.08636 z m 0.223442,-1.400281 c -0.02358,-0.787524 -0.06651,-1.209875 -0.122836,-1.209173 -0.05675,6.72e-4 -0.0699,0.42839 -0.03809,1.240671 0.02764,0.704458 0.08067,1.226489 0.122834,1.209228 0.04088,-0.01678 0.05802,-0.575054 0.03809,-1.240726 z m -0.396915,-0.635468 c -0.02443,-0.476506 -0.139119,-0.571008 -0.355009,-0.292678 -0.154641,0.199362 -0.09577,0.561192 0.135047,0.83019 l 0.138102,0.160901 0.05192,-0.135496 c 0.02859,-0.07454 0.04207,-0.327847 0.02994,-0.562917 z m 0.983757,0.500241 c 0.116302,-0.144723 0.09077,-0.669776 -0.0363,-0.747609 -0.193323,-0.118291 -0.226917,-0.06284 -0.24066,0.396889 -0.01,0.333618 0.01431,0.458489 0.08932,0.457465 0.05666,-8.71e-4 0.141067,-0.04876 0.187638,-0.106745 z m 0.68296,-0.263931 c 0.528058,-0.567123 0.307248,-0.994868 -0.783903,-1.518733 -0.09043,-0.04343 -0.322264,-0.154645 -0.515165,-0.247207 -0.192901,-0.09251 -0.460282,-0.26479 -0.594141,-0.38281 -0.214875,-0.189384 -0.240407,-0.251955 -0.216908,-0.532606 l 0.02663,-0.318084 -0.35696,-0.137654 c -0.196379,-0.07567 -0.418799,-0.136846 -0.49438,-0.135983 -0.361372,0.0044 -0.523733,0.701057 -0.254063,1.090451 0.258643,0.373479 1.050351,0.794427 1.871575,0.995139 0.429234,0.104912 0.927351,0.43508 1.00208,0.664162 0.06184,0.189654 0.0318,0.462966 -0.07991,0.726303 -0.05149,0.121526 -0.04309,0.127781 0.08127,0.06036 0.07626,-0.04132 0.217501,-0.159826 0.313868,-0.263336 z m -2.443156,-0.03706 c -0.07829,-0.361344 -0.0012,-0.598627 0.253555,-0.780134 0.250074,-0.178165 0.21224,-0.291276 -0.1135,-0.339067 -0.189678,-0.02784 -0.267212,-0.0052 -0.429829,0.12498 -0.175764,0.140837 -0.192987,0.199847 -0.151418,0.517392 0.03215,0.245372 0.10824,0.418951 0.241167,0.550079 0.106884,0.105399 0.208425,0.191433 0.22573,0.191217 0.01739,-2.64e-4 0.0057,-0.119208 -0.0257,-0.264467 z m 2.478529,-1.747871 c 0.432964,-0.257882 0.645207,-0.562534 0.63477,-0.911309 -0.01551,-0.516961 -0.529837,-0.950747 -1.608351,-1.356267 -0.622474,-0.234045 -1.224589,-0.558711 -1.384488,-0.74653 -0.197144,-0.23151 -0.170762,-0.592045 0.0598,-0.817135 0.229885,-0.224554 0.236415,-0.218296 -0.539598,-0.514157 -0.522545,-0.199146 -0.558427,-0.190139 -0.898591,0.225955 -0.326168,0.398941 -0.355347,0.808506 -0.09238,1.296555 0.172287,0.319701 0.292658,0.436591 0.735463,0.714434 0.321164,0.201465 0.74183,0.39716 1.069185,0.497326 1.055353,0.322831 1.573489,0.743886 1.280402,1.040505 -0.07397,0.07481 -0.127408,0.245695 -0.123001,0.393112 0.01324,0.443172 0.316496,0.505311 0.866782,0.177517 z m -1.201514,-0.336097 c 0.0049,-0.444896 -0.08254,-0.632932 -0.293169,-0.630396 -0.114603,0.0014 -0.0682,0.724738 0.05123,0.797879 0.179753,0.110037 0.239302,0.06877 0.241933,-0.167483 z m -0.556649,-0.505793 c -0.03649,-0.08949 -0.04132,-0.08944 -0.100097,0.0012 -0.03402,0.05237 -0.03147,0.137275 0.0057,0.188789 0.06421,0.08911 0.06905,0.08905 0.100098,-0.0012 0.01798,-0.05211 0.01543,-0.137063 -0.0057,-0.188737 z m 2.175094,-1.321151 c 0.588799,-0.237554 0.940919,-0.668858 0.979093,-1.199251 0.02572,-0.35638 0.0034,-0.422512 -0.24388,-0.727271 -0.14964,-0.184366 -0.361117,-0.384429 -0.469952,-0.444517 -0.2846,-0.157237 -1.519707,-0.669829 -1.872255,-0.777008 -0.164824,-0.0501 -0.541631,-0.188683 -0.837345,-0.307998 -0.461976,-0.186359 -0.562583,-0.256699 -0.714937,-0.50002 -0.289605,-0.462538 -0.241763,-0.784666 0.159733,-1.076159 0.229461,-0.166513 0.146331,-0.250552 -0.418378,-0.423104 l -0.486404,-0.148657 -0.291132,0.219319 c -0.452139,0.340684 -0.599062,0.623168 -0.584047,1.123299 0.01111,0.371001 0.05123,0.481414 0.281631,0.773875 0.31412,0.398887 0.898848,0.77048 1.609032,1.022651 1.075459,0.381786 1.946482,0.762495 2.103245,0.919189 0.09025,0.09019 0.167023,0.255998 0.170505,0.368409 0.0068,0.215006 -0.217502,0.565938 -0.439503,0.687736 -0.221144,0.121311 -0.142679,0.260045 0.239814,0.423753 0.436189,0.186685 0.501933,0.191972 0.81478,0.06575 z m -1.535995,-0.804139 c 0.0041,-0.729377 -0.0014,-0.745235 -0.280356,-0.832778 l -0.256948,-0.08059 0.01699,0.565504 c 0.01536,0.512807 0.0346,0.575649 0.206301,0.673604 0.104253,0.05938 0.216993,0.08932 0.250754,0.06645 0.03368,-0.02282 0.06219,-0.199307 0.06328,-0.392196 z m 0.535101,-0.178003 c 0.0079,-0.294888 -0.164566,-0.258535 -0.184672,0.03889 -0.01402,0.208478 0.0044,0.255191 0.08084,0.205135 0.05446,-0.03565 0.101119,-0.145475 0.103832,-0.244025 z M 26.669947,15.82618 c -0.125378,-0.0767 -0.214956,0.145638 -0.131232,0.325529 0.06566,0.14105 0.06829,0.139865 0.143106,-0.06397 0.05073,-0.138302 0.04674,-0.225631 -0.01188,-0.261555 z m 2.640635,-1.774193 c 0.698139,-0.339068 1.021507,-0.781643 1.014974,-1.389278 -0.0026,-0.246344 -0.05489,-0.413234 -0.175848,-0.561138 -0.165587,-0.20249 -0.903513,-0.720583 -1.024311,-0.719127 -0.03224,4.41e-4 -0.306399,-0.09164 -0.609235,-0.20454 -0.30878,-0.115108 -0.994789,-0.289062 -1.561699,-0.396026 C 25.812326,10.566387 25.052349,10.313139 24.666376,10.019381 24.45651,9.8596113 24.39433,9.7545893 24.35726,9.4970813 24.3084,9.1574206 24.37201,9.1034276 24.621927,9.2724226 c 0.347966,0.2353387 1.19795,0.156586 1.555589,-0.144075 0.188149,-0.158207 0.167112,-0.2712637 -0.06099,-0.3281167 -0.624,-0.15551 -1.360485,-0.09423 -1.917469,0.1594997 -0.705351,0.321321 -0.893418,0.8499307 -0.477927,1.3434294 0.391739,0.465339 0.937188,0.713787 2.786709,1.269424 1.556949,0.467765 1.837393,0.578181 2.082548,0.819993 0.336767,0.332218 0.147006,0.855704 -0.437715,1.207231 -0.32566,0.195746 -0.354245,0.28011 -0.134796,0.397484 0.202062,0.108095 0.637151,0.245319 0.780766,0.246289 0.06379,4.41e-4 0.2941,-0.08582 0.51194,-0.191594 z M 24.980667,8.9720286 c -0.107055,-0.06554 0.0274,-0.1293487 0.278917,-0.1324227 0.137169,-0.0016 0.25016,0.02125 0.251008,0.05092 0.0012,0.02967 -0.05251,0.05459 -0.118592,0.05539 -0.06616,8.71e-4 -0.172796,0.01501 -0.236841,0.0315 -0.06413,0.01655 -0.142599,0.01413 -0.174492,-0.0054 z m 2.561488,4.0928034 c 0.04012,-0.704133 0.03851,-0.711953 -0.161766,-0.806404 -0.262293,-0.123685 -0.50261,-0.170017 -0.57828,-0.111441 -0.03309,0.02562 -0.02849,0.368737 0.01018,0.762552 0.06803,0.693721 0.07694,0.718156 0.284518,0.786984 0.392498,0.13021 0.402679,0.115754 0.445348,-0.631691 z m 0.685502,0.254325 c 0.215548,-0.218024 0.225391,-0.42839 0.02908,-0.620578 -0.09882,-0.09671 -0.216737,-0.160634 -0.262124,-0.142025 -0.107813,0.04424 -0.08313,0.890656 0.02597,0.889364 0.04555,-6.72e-4 0.138781,-0.05762 0.207069,-0.126761 z m -1.663832,-0.422134 c -0.01238,-0.413987 -0.03919,-0.512049 -0.139628,-0.51081 -0.144804,0.0016 -0.252704,0.122229 -0.327183,0.365443 -0.03724,0.121472 1.57e-4,0.246129 0.124952,0.416632 0.273999,0.374452 0.359081,0.306865 0.341859,-0.271265 z m 2.85771,-1.795066 c 0.798155,-0.275419 1.468896,-0.911478 1.519538,-1.4408987 0.02885,-0.3013087 0.01159,-0.3390117 -0.244731,-0.5365407 -0.425331,-0.3277927 -0.874411,-0.4669037 -1.491713,-0.4619977 -0.562499,0.0044 -1.006155,0.114517 -1.045515,0.259453 -0.01351,0.04952 0.0889,0.1676467 0.227512,0.2625797 0.219621,0.150441 0.316837,0.17482 0.757013,0.189706 0.448911,0.01521 0.533741,0.0012 0.763458,-0.126598 0.142088,-0.07902 0.281968,-0.143965 0.310811,-0.144341 0.07177,-8.71e-4 -0.02485,0.4336767 -0.126228,0.5679857 -0.293504,0.3886927 -1.059593,0.8089387 -1.754935,0.9626137 -0.430334,0.09515 -0.375706,0.196181 0.207068,0.382974 0.523735,0.167916 0.612716,0.176544 0.877722,0.08506 z M 29.138547,8.9173359 c -0.240405,-0.03685 -0.174155,-0.122553 0.09722,-0.125844 0.282224,-0.0034 0.414131,0.07492 0.213511,0.126653 -0.07295,0.01882 -0.139201,0.0315 -0.147176,0.02815 -0.0079,-0.0034 -0.08152,-0.01639 -0.163551,-0.02897 z m -1.527511,1.7146391 c 0.02933,-0.196989 0.04971,-0.573057 0.09993,-1.8490061 0.03046,-0.7718257 0.06923,-1.4324308 0.08619,-1.4680291 0.01705,-0.035546 0.02908,-0.3513118 0.0269,-0.7016522 l -0.004,-0.6370309 -0.582176,-0.030099 c -0.320104,-0.016616 -0.593674,-0.022547 -0.607845,-0.013211 -0.01406,0.00938 -0.01289,1.038183 0.0026,2.2862985 0.02232,1.7808798 0.05149,2.2784768 0.135895,2.3117578 0.140732,0.05551 0.591086,0.156804 0.726305,0.163383 0.05836,0.0028 0.1107,-0.02525 0.116215,-0.06241 z m 0.940834,-0.209718 c 0.383597,-0.117696 0.978758,-0.4525547 0.975872,-0.5490537 -0.0012,-0.03307 -0.05912,-0.05945 -0.129026,-0.05863 -0.06998,8.72e-4 -0.118504,-0.02633 -0.107902,-0.06041 0.0107,-0.03409 -0.113498,-0.08318 -0.275948,-0.109068 -0.16236,-0.02594 -0.432459,-0.12104 -0.600163,-0.2112817 l -0.304957,-0.164192 -0.01535,0.3406847 c -0.0084,0.187332 0.004,0.352498 0.02757,0.366954 0.02366,0.01439 0.215638,-0.01353 0.426689,-0.06214 0.522291,-0.120234 0.487512,-0.03689 -0.05445,0.1303727 -0.428641,0.132367 -0.549267,0.243537 -0.443743,0.408972 0.06286,0.09844 0.07897,0.09742 0.501424,-0.0322 z m -2.085683,-0.0965 c -0.06227,-0.09693 -1.096073,-0.4624277 -1.300933,-0.4599457 -0.147178,0.0018 -0.137166,0.02055 0.08712,0.1638667 0.528738,0.337827 1.372952,0.543717 1.213813,0.296079 z m -0.05768,-0.3536307 c 0.05853,-0.163277 0.0632,-0.6616287 0.0062,-0.6609267 -0.02985,4.38e-4 -0.174069,0.06057 -0.320398,0.133827 -0.146414,0.07325 -0.395725,0.1683457 -0.554186,0.2112817 l -0.287993,0.07805 0.50719,0.158962 c 0.625867,0.1961227 0.607883,0.1939117 0.649194,0.0788 z m 5.092101,-1.1799354 c 0.196292,-0.135281 0.418373,-0.308268 0.493619,-0.3843767 0.134704,-0.136306 0.130464,-0.142454 -0.283499,-0.41577 -0.231075,-0.1525943 -0.44985,-0.2851804 -0.486069,-0.2946187 -0.03623,-0.00944 -0.235655,0.081504 -0.443146,0.2021667 -0.561396,0.326499 -0.909112,0.420464 -1.5969,0.431573 -0.326508,0.0052 -0.689405,-0.0015 -0.806465,-0.01485 -0.194603,-0.02228 -0.212327,-0.0082 -0.207151,0.1643537 0.0062,0.207993 -0.0048,0.206428 0.673112,0.09601 0.535948,-0.08727 1.270563,0.03371 1.737294,0.286152 0.176699,0.09558 0.375453,0.1741177 0.441787,0.1745477 0.06634,3.51e-4 0.281206,-0.1099267 0.477418,-0.2452097 z m -7.524989,0.09585 c 0.05259,-0.04192 0.292151,-0.132801 0.532383,-0.201951 0.358318,-0.103188 0.532302,-0.121258 0.969511,-0.100598 0.293081,0.0138 0.605082,0.0486 0.693474,0.0773 0.200619,0.06522 0.266786,0.02352 0.261187,-0.164516 l -0.0044,-0.1472027 -0.699669,0.0099 c -0.53593,0.0076 -0.791857,-0.01564 -1.093849,-0.09936 -0.366288,-0.101515 -0.939902,-0.4319518 -1.165123,-0.6712296 -0.08966,-0.095205 -0.124951,-0.082636 -0.48276,0.171153 -0.212327,0.1505986 -0.385037,0.3051916 -0.383935,0.3434876 0.0045,0.149684 0.365273,0.4903157 0.711207,0.6714467 0.395893,0.2072887 0.516351,0.2276267 0.662002,0.1116 z m 9.439402,-0.7193387 c 0.201892,-0.05211 0.160157,-0.110739 -0.166518,-0.233723 -0.163377,-0.06149 -0.478177,-0.2781667 -0.699665,-0.4814673 -0.359504,-0.3300575 -0.431863,-0.3692715 -0.676001,-0.3663605 -0.594989,0.00722 -0.617302,0.2356658 -0.0588,0.6012162 0.424741,0.2778976 0.748785,0.4059516 1.183275,0.4677126 0.140647,0.01996 0.262126,0.03873 0.270099,0.04164 0.0079,0.003 0.07431,-0.01008 0.147599,-0.02902 z m -7.282288,-0.124708 c 0.22946,-0.03209 0.278322,-0.1647862 0.263308,-0.71438 l -0.01213,-0.4441428 -0.507022,0.039916 -0.507022,0.039915 -0.389786,-0.2385768 C 24.495786,6.4302718 24.468729,6.2748167 24.863521,6.0564131 25.243383,5.8462625 25.412362,5.6051525 25.402778,5.2867988 25.395908,5.0559877 25.352559,4.9926631 25.070077,4.8007989 24.639911,4.5086064 24.084029,4.3862167 23.289267,4.4087091 c -0.519576,0.014681 -0.698649,0.049032 -1.307551,0.2509302 -0.388091,0.1286472 -0.917677,0.3279534 -1.176913,0.4429005 -0.259237,0.1149463 -0.786786,0.348829 -1.172334,0.5197115 -1.527425,0.6770012 -2.321254,0.9715648 -3.806181,1.4122029 l -0.335328,0.099573 0.242696,0.077134 c 0.444078,0.1411612 1.101162,0.1402438 1.686565,-0.00236 0.988765,-0.2408955 3.619813,-1.3376566 3.861489,-1.6096775 0.197906,-0.2227715 0.307419,-0.1671588 0.317259,0.1610665 0.01883,0.6283462 0.936255,1.1687708 1.96489,1.1574433 0.151587,-0.00164 0.27637,0.021252 0.27722,0.05092 9.89e-4,0.029668 -0.04157,0.054425 -0.09433,0.055071 -0.153795,0.00184 -0.01798,0.4052524 0.199007,0.5915078 0.250838,0.2152187 0.785091,0.4178709 1.229763,0.4665789 0.327948,0.03587 0.471308,0.03026 0.957208,-0.0377 z m 9.276865,-0.08123 c -0.0011,-0.02897 -0.107732,-0.091972 -0.237439,-0.1399785 -0.612545,-0.2267095 -1.038471,-0.4201386 -1.3626,-0.6188524 -0.709084,-0.4347557 -0.679565,-0.4253173 -0.97163,-0.3107487 -0.14141,0.055396 -0.255929,0.140405 -0.254486,0.1887893 0.0041,0.1386255 0.987322,0.677379 1.485523,0.8141163 0.460874,0.12649 1.343772,0.170397 1.340631,0.06667 z m -13.399889,-0.0036 c 0.164654,-0.05551 0.477246,-0.2061061 0.694579,-0.3345896 0.643764,-0.3806555 0.665396,-0.5032607 0.09942,-0.5637263 -0.310474,-0.033173 -0.335667,-0.023195 -0.880269,0.3473716 -0.308351,0.209827 -0.664377,0.426018 -0.791027,0.4803903 -0.266108,0.114298 -0.289521,0.176816 -0.07855,0.209879 0.216992,0.03399 0.612804,-0.02368 0.95585,-0.139325 z m 7.673102,0.01203 c 0.494381,-0.08555 1.000638,-0.3805443 1.171991,-0.6828779 0.111551,-0.1968813 0.117066,-0.2585878 0.02901,-0.3234783 -0.0598,-0.044122 -0.09458,-0.081235 -0.07728,-0.08242 0.01739,-0.00123 0.323537,-0.011013 0.680411,-0.021738 0.5776,-0.017369 0.688642,-0.038566 1.012346,-0.1933752 0.562753,-0.2692131 0.853886,-0.7267323 0.704248,-1.1068477 -0.07227,-0.1834485 0.211224,-0.065859 0.345423,0.1433195 0.147434,0.2297851 0.826572,0.5985709 2.235067,1.2135419 1.142731,0.4989431 2.522807,0.6942613 3.107278,0.4397712 C 39.206621,7.219832 39.177439,7.1350928 38.791212,7.0665882 37.960995,6.9192784 36.359428,6.3244829 34.588885,5.505836 32.309789,4.4520642 31.521307,4.2590674 30.236404,4.4406296 c -0.270347,0.038189 -0.781526,0.3513105 -0.909619,0.5572541 -0.234804,0.377255 -0.06201,0.8137918 0.449934,1.136676 l 0.323027,0.2037311 -0.185013,0.1801059 c -0.377742,0.3677084 -0.866016,0.4880495 -1.515549,0.3735351 l -0.234552,-0.041373 0.01619,0.5436071 0.0163,0.5436073 0.277138,0.0473 c 0.385459,0.0657 0.774486,0.06128 1.208557,-0.01386 z M 36.797906,7.8040359 C 36.940672,7.7672509 36.979777,7.6188052 36.846256,7.620425 36.682115,7.622465 34.97239,6.8866783 34.358994,6.550093 33.701906,6.1895444 33.543023,6.1435863 33.459635,6.2900885 c -0.12427,0.2182953 -0.03206,0.3591331 0.412865,0.6308267 1.037711,0.6336884 2.353066,1.030794 2.925404,0.8831059 z M 20.558035,7.7920299 C 20.766629,7.7212069 21.229114,7.5190944 21.58582,7.3428735 L 22.234335,7.022469 21.956012,6.8467326 C 21.802981,6.7500706 21.64749,6.6713737 21.610504,6.6718041 c -0.03699,3.613e-4 -0.264665,0.1185063 -0.506002,0.2623656 -0.559531,0.3336718 -1.177169,0.6299648 -1.631682,0.7828839 -0.427537,0.1438037 -0.449931,0.2123606 -0.07779,0.2377666 0.407517,0.02783 0.737755,-0.01839 1.163003,-0.1627908 z M 19.148689,7.5180152 c 0.451883,-0.1440205 2.305562,-0.9232913 2.304204,-0.9686541 -0.0023,-0.080479 -0.300293,-0.5193879 -0.352124,-0.5187939 -0.03631,3.61e-4 -0.550453,0.2409492 -1.142643,0.5344368 -0.935831,0.4639372 -2.092132,0.9073779 -2.374781,0.9108298 -0.201214,0.00243 -0.06905,0.1089584 0.189931,0.1531365 0.490481,0.08366 0.857704,0.054046 1.375413,-0.1109551 z m 8.900913,-2.0013878 c 0.591849,-0.4686856 0.119014,-1.0821443 -0.825298,-1.0707086 -0.365868,0.00444 -0.458246,0.029613 -0.703997,0.1919191 -0.242352,0.1601457 -0.2818,0.2235788 -0.275181,0.4432768 0.0069,0.2307002 0.04377,0.2774675 0.366798,0.4656112 0.341012,0.1984971 0.380964,0.2075064 0.787038,0.177731 0.35221,-0.025839 0.467068,-0.062515 0.65064,-0.2078295 z m -0.808846,-0.037598 c -0.03004,-0.029613 0.02402,-0.070714 0.120119,-0.091373 0.258728,-0.055667 0.473855,-0.385241 0.337957,-0.5178791 -0.217583,-0.2124684 -0.01309,-0.3047064 0.262546,-0.1183428 0.204099,0.1380317 0.188406,0.4070849 -0.03342,0.5711139 -0.204606,0.151303 -0.600924,0.2415442 -0.687202,0.156481 z"
       id="path567-5"
       style="fill:#2d5ea8;fill-opacity:1;stroke-width:0.0676432" /><text
       xml:space="preserve"
       style="font-style:normal;font-variant:normal;font-weight:normal;font-stretch:normal;font-size:3.10398px;font-family:Arial;-inkscape-font-specification:Arial;fill:#2d5ea8;fill-opacity:1;stroke-width:0.0424212"
       x="14.620005"
       y="28.39617"
       id="text2102"
       transform="scale(1.0346606,0.96650052)"><tspan
         sodipodi:role="line"
         id="tspan2100"
         style="font-style:normal;font-variant:normal;font-weight:normal;font-stretch:normal;font-family:Arial;-inkscape-font-specification:Arial;fill:#2d5ea8;fill-opacity:1;stroke-width:0.0424211"
         x="14.620005"
         y="28.39617">REG. NO. 43463</tspan></text><text
       xml:space="preserve"
       style="font-style:normal;font-variant:normal;font-weight:normal;font-stretch:normal;font-size:5.19492px;font-family:Arial;-inkscape-font-specification:Arial;fill:#2c939d;fill-opacity:1;stroke-width:0.0709976"
       x="3.5486822"
       y="41.389626"
       id="text4875"
       transform="scale(0.88435174,1.1307718)"><tspan
         sodipodi:role="line"
         id="tspan4873"
         style="font-style:normal;font-variant:normal;font-weight:normal;font-stretch:normal;font-family:Arial;-inkscape-font-specification:Arial;fill:#2c939d;fill-opacity:1;stroke-width:0.0709971"
         x="3.5486822"
         y="41.389626" /></text><text
       xml:space="preserve"
       style="font-style:normal;font-variant:normal;font-weight:normal;font-stretch:normal;font-size:5.07384px;font-family:Arial;-inkscape-font-specification:Arial;fill:#006a6a;fill-opacity:1;stroke:none;stroke-width:0.658191"
       x="1.887566"
       y="121.7952"
       id="text532"
       transform="scale(0.99433963,1.0056926)"><tspan
         sodipodi:role="line"
         style="font-style:normal;font-variant:normal;font-weight:normal;font-stretch:normal;font-size:5.07384px;font-family:Arial;-inkscape-font-specification:Arial;fill:#006a6a;fill-opacity:1;stroke:none;stroke-width:0.658191"
         x="1.887566"
         y="121.7952"
         id="tspan544" /></text><text
       xml:space="preserve"
       style="font-style:normal;font-variant:normal;font-weight:normal;font-stretch:condensed;font-size:3.17879px;line-height:1.4;font-family:Arial;-inkscape-font-specification:'Arial Condensed';fill:#000000;fill-opacity:1;stroke:none;stroke-width:0.497723"
       x="9.1592112"
       y="278.54803"
       id="text532-0"
       transform="scale(1.0895084,0.91784514)"><tspan
         sodipodi:role="line"
         style="font-style:normal;font-variant:normal;font-weight:normal;font-stretch:normal;font-size:3.17879px;font-family:'Bradley Hand ITC';-inkscape-font-specification:'Bradley Hand ITC';direction:ltr;baseline-shift:baseline;fill:#000000;fill-opacity:1;stroke:none;stroke-width:0.497723"
         x="9.1592112"
         y="278.54803"
         id="tspan36692" /></text><text
       xml:space="preserve"
       style="font-style:normal;font-variant:normal;font-weight:normal;font-stretch:normal;font-size:3.00954px;line-height:1.4;font-family:Arial;-inkscape-font-specification:Arial;fill:#000000;fill-opacity:1;stroke:none;stroke-width:0.404255"
       x="9.5216322"
       y="212.49565"
       id="text532-0-19"
       transform="scale(0.97801671,1.0224774)"><tspan
         sodipodi:role="line"
         style="font-style:normal;font-variant:normal;font-weight:normal;font-stretch:normal;font-family:'Bradley Hand ITC';-inkscape-font-specification:'Bradley Hand ITC';direction:ltr;baseline-shift:baseline;fill:#000000;fill-opacity:1;stroke:none;stroke-width:0.404255"
         x="9.5216322"
         y="212.49565"
         id="tspan36692-16" /></text><text
       xml:space="preserve"
       style="font-style:normal;font-variant:normal;font-weight:normal;font-stretch:normal;font-size:3.0639px;line-height:1.4;font-family:Arial;-inkscape-font-specification:Arial;letter-spacing:0.15875px;fill:#2d5ea8;fill-opacity:1;stroke:none;stroke-width:0.411558"
       x="43.822952"
       y="32.313602"
       id="text532-0-1"
       transform="scale(0.90089448,1.1100079)"><tspan
         sodipodi:role="line"
         style="font-style:normal;font-variant:normal;font-weight:bold;font-stretch:normal;font-family:Dubai;-inkscape-font-specification:'Dubai Bold';text-align:end;direction:ltr;baseline-shift:baseline;text-anchor:end;fill:#2d5ea8;fill-opacity:1;stroke:none;stroke-width:0.411558"
         x="43.822952"
         y="32.313602"
         id="tspan536-3-9">SKIN</tspan><tspan
         sodipodi:role="line"
         style="font-style:normal;font-variant:normal;font-weight:normal;font-stretch:normal;font-family:'EngraversGothic BT';-inkscape-font-specification:'EngraversGothic BT';text-align:end;direction:ltr;baseline-shift:baseline;text-anchor:end;fill:#2d5ea8;fill-opacity:1;stroke:none;stroke-width:0.411558"
         x="43.822952"
         y="36.666714"
         id="tspan28948">lASER HAIR REMOVAL</tspan><tspan
         sodipodi:role="line"
         style="font-style:normal;font-variant:normal;font-weight:normal;font-stretch:normal;font-family:'EngraversGothic BT';-inkscape-font-specification:'EngraversGothic BT';text-align:end;direction:ltr;baseline-shift:baseline;text-anchor:end;fill:#2d5ea8;fill-opacity:1;stroke:none;stroke-width:0.411558"
         x="43.822952"
         y="41.005161"
         id="tspan142136-8">BOTOX - BARBIE BOTOX</tspan><tspan
         sodipodi:role="line"
         style="font-style:normal;font-variant:normal;font-weight:normal;font-stretch:normal;font-family:'EngraversGothic BT';-inkscape-font-specification:'EngraversGothic BT';text-align:end;direction:ltr;baseline-shift:baseline;text-anchor:end;fill:#2d5ea8;fill-opacity:1;stroke:none;stroke-width:0.411558"
         x="43.822952"
         y="45.343609"
         id="tspan12943">DERMAL FILLERS</tspan><tspan
         sodipodi:role="line"
         style="font-style:normal;font-variant:normal;font-weight:normal;font-stretch:normal;font-family:'EngraversGothic BT';-inkscape-font-specification:'EngraversGothic BT';text-align:end;direction:ltr;baseline-shift:baseline;text-anchor:end;fill:#2d5ea8;fill-opacity:1;stroke:none;stroke-width:0.411558"
         x="43.822952"
         y="49.682056"
         id="tspan13671">THREAD LIFTS</tspan><tspan
         sodipodi:role="line"
         style="font-style:normal;font-variant:normal;font-weight:normal;font-stretch:normal;font-family:'EngraversGothic BT';-inkscape-font-specification:'EngraversGothic BT';text-align:end;direction:ltr;baseline-shift:baseline;text-anchor:end;fill:#2d5ea8;fill-opacity:1;stroke:none;stroke-width:0.411558"
         x="43.822952"
         y="54.020504"
         id="tspan14399">VAMPIRE / MEDI / E - FACIAL</tspan><tspan
         sodipodi:role="line"
         style="font-style:normal;font-variant:normal;font-weight:normal;font-stretch:normal;font-family:'EngraversGothic BT';-inkscape-font-specification:'EngraversGothic BT';text-align:end;direction:ltr;baseline-shift:baseline;text-anchor:end;fill:#2d5ea8;fill-opacity:1;stroke:none;stroke-width:0.411558"
         x="43.822952"
         y="58.358952"
         id="tspan14401">BB GLOW</tspan><tspan
         sodipodi:role="line"
         style="font-style:normal;font-variant:normal;font-weight:normal;font-stretch:normal;font-family:'EngraversGothic BT';-inkscape-font-specification:'EngraversGothic BT';text-align:end;direction:ltr;baseline-shift:baseline;text-anchor:end;fill:#2d5ea8;fill-opacity:1;stroke:none;stroke-width:0.411558"
         x="43.822956"
         y="62.697399"
         id="tspan15131">SEMI PERMENANT MAKEUP</tspan><tspan
         sodipodi:role="line"
         style="font-style:normal;font-variant:normal;font-weight:normal;font-stretch:normal;font-family:'EngraversGothic BT';-inkscape-font-specification:'EngraversGothic BT';text-align:end;direction:ltr;baseline-shift:baseline;text-anchor:end;fill:#2d5ea8;fill-opacity:1;stroke:none;stroke-width:0.411558"
         x="43.822952"
         y="67.035851"
         id="tspan15859">MEDICAL MICRO BLADING</tspan><tspan
         sodipodi:role="line"
         style="font-style:normal;font-variant:normal;font-weight:normal;font-stretch:normal;font-family:'EngraversGothic BT';-inkscape-font-specification:'EngraversGothic BT';text-align:end;direction:ltr;baseline-shift:baseline;text-anchor:end;fill:#2d5ea8;fill-opacity:1;stroke:none;stroke-width:0.411558"
         x="43.822952"
         y="71.374298"
         id="tspan21440">KOREAN GLASS THERAPY</tspan><tspan
         sodipodi:role="line"
         style="font-style:normal;font-variant:normal;font-weight:normal;font-stretch:normal;font-family:'EngraversGothic BT';-inkscape-font-specification:'EngraversGothic BT';text-align:end;direction:ltr;baseline-shift:baseline;text-anchor:end;fill:#2d5ea8;fill-opacity:1;stroke:none;stroke-width:0.411558"
         x="43.822952"
         y="75.712746"
         id="tspan21444">CO2 FRACTIONAL LASER</tspan><tspan
         sodipodi:role="line"
         style="font-style:normal;font-variant:normal;font-weight:normal;font-stretch:normal;font-family:'EngraversGothic BT';-inkscape-font-specification:'EngraversGothic BT';text-align:end;direction:ltr;baseline-shift:baseline;text-anchor:end;fill:#2d5ea8;fill-opacity:1;stroke:none;stroke-width:0.411558"
         x="43.822952"
         y="80.051193"
         id="tspan540-9-4">ACNE / ACNE SCARS</tspan><tspan
         sodipodi:role="line"
         style="font-style:normal;font-variant:normal;font-weight:normal;font-stretch:normal;font-family:'EngraversGothic BT';-inkscape-font-specification:'EngraversGothic BT';text-align:end;direction:ltr;baseline-shift:baseline;text-anchor:end;fill:#2d5ea8;fill-opacity:1;stroke:none;stroke-width:0.411558"
         x="43.822952"
         y="84.389641"
         id="tspan35944-3">WARTS / SKIN TAGS / MOLES</tspan><tspan
         sodipodi:role="line"
         style="font-style:normal;font-variant:normal;font-weight:normal;font-stretch:normal;font-family:'EngraversGothic BT';-inkscape-font-specification:'EngraversGothic BT';text-align:end;direction:ltr;baseline-shift:baseline;text-anchor:end;fill:#2d5ea8;fill-opacity:1;stroke:none;stroke-width:0.411558"
         x="43.822952"
         y="88.728088"
         id="tspan142138-9">DRY / PATCHY SKIN</tspan><tspan
         sodipodi:role="line"
         style="font-style:normal;font-variant:normal;font-weight:normal;font-stretch:normal;font-family:'EngraversGothic BT';-inkscape-font-specification:'EngraversGothic BT';text-align:end;direction:ltr;baseline-shift:baseline;text-anchor:end;fill:#2d5ea8;fill-opacity:1;stroke:none;stroke-width:0.411558"
         x="43.822952"
         y="93.066536"
         id="tspan12045-8">AGE / DARK SPOTS</tspan><tspan
         sodipodi:role="line"
         style="font-style:normal;font-variant:normal;font-weight:normal;font-stretch:normal;font-family:'EngraversGothic BT';-inkscape-font-specification:'EngraversGothic BT';text-align:end;direction:ltr;baseline-shift:baseline;text-anchor:end;fill:#2d5ea8;fill-opacity:1;stroke:none;stroke-width:0.411558"
         x="43.822952"
         y="97.404984"
         id="tspan12047-2">TATTOO REMOVAL</tspan><tspan
         sodipodi:role="line"
         style="font-style:normal;font-variant:normal;font-weight:normal;font-stretch:normal;font-family:'EngraversGothic BT';-inkscape-font-specification:'EngraversGothic BT';text-align:end;direction:ltr;baseline-shift:baseline;text-anchor:end;fill:#2d5ea8;fill-opacity:1;stroke:none;stroke-width:0.411558"
         x="43.822952"
         y="101.74343"
         id="tspan12049-0">CHEMICAL PEELS</tspan><tspan
         sodipodi:role="line"
         style="font-style:normal;font-variant:normal;font-weight:normal;font-stretch:normal;font-family:'EngraversGothic BT';-inkscape-font-specification:'EngraversGothic BT';text-align:end;direction:ltr;baseline-shift:baseline;text-anchor:end;fill:#2d5ea8;fill-opacity:1;stroke:none;stroke-width:0.411558"
         x="43.822952"
         y="106.08188"
         id="tspan12051-6">PIGMENTATION / MELASMA</tspan><tspan
         sodipodi:role="line"
         style="font-style:normal;font-variant:normal;font-weight:normal;font-stretch:normal;font-family:'EngraversGothic BT';-inkscape-font-specification:'EngraversGothic BT';text-align:end;direction:ltr;baseline-shift:baseline;text-anchor:end;fill:#2d5ea8;fill-opacity:1;stroke:none;stroke-width:0.411558"
         x="43.822952"
         y="110.42033"
         id="tspan12053-3">TANNING</tspan><tspan
         sodipodi:role="line"
         style="font-style:normal;font-variant:normal;font-weight:normal;font-stretch:normal;font-family:'EngraversGothic BT';-inkscape-font-specification:'EngraversGothic BT';text-align:end;direction:ltr;baseline-shift:baseline;text-anchor:end;fill:#2d5ea8;fill-opacity:1;stroke:none;stroke-width:0.411558"
         x="43.822952"
         y="114.75877"
         id="tspan12079-9">SKIN WHITENING</tspan><tspan
         sodipodi:role="line"
         style="font-style:normal;font-variant:normal;font-weight:normal;font-stretch:normal;font-family:'EngraversGothic BT';-inkscape-font-specification:'EngraversGothic BT';text-align:end;direction:ltr;baseline-shift:baseline;text-anchor:end;fill:#2d5ea8;fill-opacity:1;stroke:none;stroke-width:0.411558"
         x="43.822952"
         y="119.09722"
         id="tspan12081-7">CARBON LASER PEEL</tspan><tspan
         sodipodi:role="line"
         style="font-style:normal;font-variant:normal;font-weight:normal;font-stretch:normal;font-family:'EngraversGothic BT';-inkscape-font-specification:'EngraversGothic BT';text-align:end;direction:ltr;baseline-shift:baseline;text-anchor:end;fill:#2d5ea8;fill-opacity:1;stroke:none;stroke-width:0.411558"
         x="43.822952"
         y="123.43568"
         id="tspan12083-6">MICRONEEDLING</tspan><tspan
         sodipodi:role="line"
         style="font-style:normal;font-variant:normal;font-weight:normal;font-stretch:normal;font-family:'EngraversGothic BT';-inkscape-font-specification:'EngraversGothic BT';text-align:end;direction:ltr;baseline-shift:baseline;text-anchor:end;fill:#2d5ea8;fill-opacity:1;stroke:none;stroke-width:0.411558"
         x="43.822952"
         y="127.77412"
         id="tspan12085-6">KELOID</tspan><tspan
         sodipodi:role="line"
         style="font-style:normal;font-variant:normal;font-weight:normal;font-stretch:normal;font-family:'EngraversGothic BT';-inkscape-font-specification:'EngraversGothic BT';text-align:end;direction:ltr;baseline-shift:baseline;text-anchor:end;fill:#2d5ea8;fill-opacity:1;stroke:none;stroke-width:0.411558"
         x="43.822952"
         y="132.11256"
         id="tspan12087-4">LARGE PORES</tspan><tspan
         sodipodi:role="line"
         style="font-style:normal;font-variant:normal;font-weight:normal;font-stretch:normal;font-family:'EngraversGothic BT';-inkscape-font-specification:'EngraversGothic BT';text-align:end;direction:ltr;baseline-shift:baseline;text-anchor:end;fill:#2d5ea8;fill-opacity:1;stroke:none;stroke-width:0.411558"
         x="43.822952"
         y="136.451"
         id="tspan36694-7">PRP SKIN</tspan><tspan
         sodipodi:role="line"
         style="font-style:normal;font-variant:normal;font-weight:normal;font-stretch:normal;font-family:'EngraversGothic BT';-inkscape-font-specification:'EngraversGothic BT';text-align:end;direction:ltr;baseline-shift:baseline;text-anchor:end;fill:#2d5ea8;fill-opacity:1;stroke:none;stroke-width:0.411558"
         x="43.822952"
         y="140.78946"
         id="tspan35958-2">BIO GEL FILLER</tspan><tspan
         sodipodi:role="line"
         style="font-style:normal;font-variant:normal;font-weight:normal;font-stretch:normal;font-family:'EngraversGothic BT';-inkscape-font-specification:'EngraversGothic BT';text-align:end;direction:ltr;baseline-shift:baseline;text-anchor:end;fill:#2d5ea8;fill-opacity:1;stroke:none;stroke-width:0.411558"
         x="43.822952"
         y="145.1279"
         id="tspan35960-2">HIFU SKIN TIGHTENING</tspan><tspan
         sodipodi:role="line"
         style="font-style:normal;font-variant:normal;font-weight:normal;font-stretch:normal;font-family:'EngraversGothic BT';-inkscape-font-specification:'EngraversGothic BT';text-align:end;direction:ltr;baseline-shift:baseline;text-anchor:end;fill:#2d5ea8;fill-opacity:1;stroke:none;stroke-width:0.411558"
         x="43.822952"
         y="149.46635"
         id="tspan21436">WRINKLES</tspan><tspan
         sodipodi:role="line"
         style="font-style:normal;font-variant:normal;font-weight:normal;font-stretch:normal;font-family:'EngraversGothic BT';-inkscape-font-specification:'EngraversGothic BT';text-align:end;direction:ltr;baseline-shift:baseline;text-anchor:end;fill:#2d5ea8;fill-opacity:1;stroke:none;stroke-width:0.411558"
         x="43.822952"
         y="153.80479"
         id="tspan18547">MESOTHERAPY</tspan><tspan
         sodipodi:role="line"
         style="font-style:normal;font-variant:normal;font-weight:normal;font-stretch:normal;font-family:'EngraversGothic BT';-inkscape-font-specification:'EngraversGothic BT';text-align:end;direction:ltr;baseline-shift:baseline;text-anchor:end;fill:#2d5ea8;fill-opacity:1;stroke:none;stroke-width:0.411558"
         x="43.822952"
         y="158.14325"
         id="tspan37567-4">UNDER EYE BAGS</tspan><tspan
         sodipodi:role="line"
         style="font-style:normal;font-variant:normal;font-weight:normal;font-stretch:normal;font-family:'EngraversGothic BT';-inkscape-font-specification:'EngraversGothic BT';text-align:end;direction:ltr;baseline-shift:baseline;text-anchor:end;fill:#2d5ea8;fill-opacity:1;stroke:none;stroke-width:0.411558"
         x="43.822952"
         y="162.4817"
         id="tspan35962-7">VAGINAL REJUVENATION</tspan><tspan
         sodipodi:role="line"
         style="font-style:normal;font-variant:normal;font-weight:normal;font-stretch:normal;font-family:'EngraversGothic BT';-inkscape-font-specification:'EngraversGothic BT';text-align:end;direction:ltr;baseline-shift:baseline;text-anchor:end;fill:#2d5ea8;fill-opacity:1;stroke:none;stroke-width:0.411558"
         x="43.822952"
         y="166.82014"
         id="tspan35964-7">URINARY -</tspan><tspan
         sodipodi:role="line"
         style="font-style:normal;font-variant:normal;font-weight:normal;font-stretch:normal;font-family:'EngraversGothic BT';-inkscape-font-specification:'EngraversGothic BT';text-align:end;direction:ltr;baseline-shift:baseline;text-anchor:end;fill:#2d5ea8;fill-opacity:1;stroke:none;stroke-width:0.411558"
         x="43.822952"
         y="171.1586"
         id="tspan36700-0">INCONTINENCE (SUI)</tspan><tspan
         sodipodi:role="line"
         style="font-style:normal;font-variant:normal;font-weight:normal;font-stretch:normal;font-family:'EngraversGothic BT';-inkscape-font-specification:'EngraversGothic BT';text-align:end;direction:ltr;baseline-shift:baseline;text-anchor:end;fill:#2d5ea8;fill-opacity:1;stroke:none;stroke-width:0.411558"
         x="43.822952"
         y="175.49704"
         id="tspan36696-5">IV VITAMIN BOOSTER</tspan><tspan
         sodipodi:role="line"
         style="font-style:normal;font-variant:normal;font-weight:normal;font-stretch:normal;font-family:'EngraversGothic BT';-inkscape-font-specification:'EngraversGothic BT';text-align:end;direction:ltr;baseline-shift:baseline;text-anchor:end;fill:#2d5ea8;fill-opacity:1;stroke:none;stroke-width:0.411558"
         x="43.822952"
         y="179.83549"
         id="tspan21442">IV GLUTATHIONE</tspan><tspan
         sodipodi:role="line"
         style="font-style:normal;font-variant:normal;font-weight:bold;font-stretch:normal;font-family:Dubai;-inkscape-font-specification:'Dubai Bold';text-align:end;direction:ltr;baseline-shift:baseline;text-anchor:end;fill:#2d5ea8;fill-opacity:1;stroke:none;stroke-width:0.411558"
         x="43.822952"
         y="184.17393"
         id="tspan28829">HAIR</tspan><tspan
         sodipodi:role="line"
         style="font-style:normal;font-variant:normal;font-weight:normal;font-stretch:normal;font-family:'EngraversGothic BT';-inkscape-font-specification:'EngraversGothic BT';text-align:end;direction:ltr;baseline-shift:baseline;text-anchor:end;fill:#2d5ea8;fill-opacity:1;stroke:none;stroke-width:0.411558"
         x="43.822952"
         y="188.52705"
         id="tspan36692-1">PRP</tspan><tspan
         sodipodi:role="line"
         style="font-style:normal;font-variant:normal;font-weight:normal;font-stretch:normal;font-family:'EngraversGothic BT';-inkscape-font-specification:'EngraversGothic BT';text-align:end;direction:ltr;baseline-shift:baseline;text-anchor:end;fill:#2d5ea8;fill-opacity:1;stroke:none;stroke-width:0.411558"
         x="43.822952"
         y="192.86549"
         id="tspan28885">GFC -  GROWTH FACTOR</tspan><tspan
         sodipodi:role="line"
         style="font-style:normal;font-variant:normal;font-weight:normal;font-stretch:normal;font-family:'EngraversGothic BT';-inkscape-font-specification:'EngraversGothic BT';text-align:end;direction:ltr;baseline-shift:baseline;text-anchor:end;fill:#2d5ea8;fill-opacity:1;stroke:none;stroke-width:0.411558"
         x="43.822952"
         y="197.20395"
         id="tspan28887">HAIR GROWTH</tspan><tspan
         sodipodi:role="line"
         style="font-style:normal;font-variant:normal;font-weight:normal;font-stretch:normal;font-family:'EngraversGothic BT';-inkscape-font-specification:'EngraversGothic BT';text-align:end;direction:ltr;baseline-shift:baseline;text-anchor:end;fill:#2d5ea8;fill-opacity:1;stroke:none;stroke-width:0.411558"
         x="43.822952"
         y="201.54239"
         id="tspan28889">HAIR FALL</tspan><tspan
         sodipodi:role="line"
         style="font-style:normal;font-variant:normal;font-weight:normal;font-stretch:normal;font-family:'EngraversGothic BT';-inkscape-font-specification:'EngraversGothic BT';text-align:end;direction:ltr;baseline-shift:baseline;text-anchor:end;fill:#2d5ea8;fill-opacity:1;stroke:none;stroke-width:0.411558"
         x="43.822952"
         y="205.88084"
         id="tspan28891">EXOSOMES</tspan><tspan
         sodipodi:role="line"
         style="font-style:normal;font-variant:normal;font-weight:normal;font-stretch:normal;font-family:'EngraversGothic BT';-inkscape-font-specification:'EngraversGothic BT';text-align:end;direction:ltr;baseline-shift:baseline;text-anchor:end;fill:#2d5ea8;fill-opacity:1;stroke:none;stroke-width:0.411558"
         x="43.822952"
         y="210.21928"
         id="tspan28893">STEMCELL</tspan><tspan
         sodipodi:role="line"
         style="font-style:normal;font-variant:normal;font-weight:normal;font-stretch:normal;font-family:'EngraversGothic BT';-inkscape-font-specification:'EngraversGothic BT';text-align:end;direction:ltr;baseline-shift:baseline;text-anchor:end;fill:#2d5ea8;fill-opacity:1;stroke:none;stroke-width:0.411558"
         x="43.822952"
         y="214.55774"
         id="tspan28895">DANDRUFF</tspan><tspan
         sodipodi:role="line"
         style="font-style:normal;font-variant:normal;font-weight:bold;font-stretch:normal;font-family:Dubai;-inkscape-font-specification:'Dubai Bold';text-align:end;direction:ltr;baseline-shift:baseline;text-anchor:end;fill:#2d5ea8;fill-opacity:1;stroke:none;stroke-width:0.411558"
         x="43.822952"
         y="218.89618"
         id="tspan28903">OBESITY</tspan><tspan
         sodipodi:role="line"
         style="font-style:normal;font-variant:normal;font-weight:normal;font-stretch:normal;font-family:'EngraversGothic BT';-inkscape-font-specification:'EngraversGothic BT';text-align:end;direction:ltr;baseline-shift:baseline;text-anchor:end;fill:#2d5ea8;fill-opacity:1;stroke:none;stroke-width:0.411558"
         x="43.822952"
         y="223.2493"
         id="tspan28897">NECK TIGHTENING</tspan><tspan
         sodipodi:role="line"
         style="font-style:normal;font-variant:normal;font-weight:normal;font-stretch:normal;font-family:'EngraversGothic BT';-inkscape-font-specification:'EngraversGothic BT';text-align:end;direction:ltr;baseline-shift:baseline;text-anchor:end;fill:#2d5ea8;fill-opacity:1;stroke:none;stroke-width:0.411558"
         x="43.822952"
         y="227.58774"
         id="tspan28932">DOUBLE CHIN</tspan><tspan
         sodipodi:role="line"
         style="font-style:normal;font-variant:normal;font-weight:normal;font-stretch:normal;font-family:'EngraversGothic BT';-inkscape-font-specification:'EngraversGothic BT';text-align:end;direction:ltr;baseline-shift:baseline;text-anchor:end;fill:#2d5ea8;fill-opacity:1;stroke:none;stroke-width:0.411558"
         x="43.822952"
         y="231.92619"
         id="tspan28934">TUMMY TIGHTENING</tspan><tspan
         sodipodi:role="line"
         style="font-style:normal;font-variant:normal;font-weight:normal;font-stretch:normal;font-family:'EngraversGothic BT';-inkscape-font-specification:'EngraversGothic BT';text-align:end;direction:ltr;baseline-shift:baseline;text-anchor:end;fill:#2d5ea8;fill-opacity:1;stroke:none;stroke-width:0.411558"
         x="43.822952"
         y="236.26463"
         id="tspan28936">ARM TIGHTENING</tspan><tspan
         sodipodi:role="line"
         style="font-style:normal;font-variant:normal;font-weight:normal;font-stretch:normal;font-family:'EngraversGothic BT';-inkscape-font-specification:'EngraversGothic BT';text-align:end;direction:ltr;baseline-shift:baseline;text-anchor:end;fill:#2d5ea8;fill-opacity:1;stroke:none;stroke-width:0.411558"
         x="43.822952"
         y="240.60309"
         id="tspan28938">LIPO DISSOLVE</tspan><tspan
         sodipodi:role="line"
         style="font-style:normal;font-variant:normal;font-weight:normal;font-stretch:normal;font-family:'EngraversGothic BT';-inkscape-font-specification:'EngraversGothic BT';text-align:end;direction:ltr;baseline-shift:baseline;text-anchor:end;fill:#2d5ea8;fill-opacity:1;stroke:none;stroke-width:0.411558"
         x="43.822952"
         y="244.94153"
         id="tspan28942">EMS</tspan><tspan
         sodipodi:role="line"
         style="font-style:normal;font-variant:normal;font-weight:normal;font-stretch:normal;font-family:'EngraversGothic BT';-inkscape-font-specification:'EngraversGothic BT';text-align:end;direction:ltr;baseline-shift:baseline;text-anchor:end;fill:#2d5ea8;fill-opacity:1;stroke:none;stroke-width:0.411558"
         x="43.822952"
         y="249.27998"
         id="tspan28899" /><tspan
         sodipodi:role="line"
         style="font-style:normal;font-variant:normal;font-weight:normal;font-stretch:normal;font-family:'EngraversGothic BT';-inkscape-font-specification:'EngraversGothic BT';text-align:end;direction:ltr;baseline-shift:baseline;text-anchor:end;fill:#2d5ea8;fill-opacity:1;stroke:none;stroke-width:0.411558"
         x="43.822952"
         y="253.61842"
         id="tspan28901" /></text><text
       xml:space="preserve"
       style="font-style:normal;font-variant:normal;font-weight:normal;font-stretch:normal;font-size:4.9px;font-family:Arial;-inkscape-font-specification:Arial;fill:#006a6a;fill-opacity:1;stroke:none;stroke-width:1.52215;stroke-opacity:1"
       x="2.3195484"
       y="86.214157"
       id="text6403-6"
       transform="scale(1.0161609,0.98409612)"><tspan
         sodipodi:role="line"
         style="font-style:normal;font-variant:normal;font-weight:normal;font-stretch:normal;font-size:4.9px;font-family:Arial;-inkscape-font-specification:Arial;fill:#006a6a;fill-opacity:1;stroke-width:1.52215"
         x="2.3195484"
         y="86.214157"
         id="tspan6495" /></text><text
       xml:space="preserve"
       style="font-style:normal;font-variant:normal;font-weight:normal;font-stretch:normal;font-size:3px;font-family:Arial;-inkscape-font-specification:Arial;fill:#2d949d;fill-opacity:0.0899654;stroke-width:0.0410001"
       x="33.177422"
       y="66"
       id="text12041"><tspan
         sodipodi:role="line"
         id="tspan12039"
         style="stroke-width:0.041"
         x="33.177422"
         y="66" /><tspan
         sodipodi:role="line"
         style="stroke-width:0.041"
         id="tspan12043"
         x="33.177422"
         y="69.75" /></text><text
       xml:space="preserve"
       transform="scale(0.26458333)"
       id="text28958"
       style="font-style:normal;font-variant:normal;font-weight:normal;font-stretch:condensed;font-size:18.8976px;font-family:Arial;-inkscape-font-specification:'Arial Condensed';direction:ltr;white-space:pre;shape-inside:url(#rect28960);display:inline;fill:#2d949d;fill-opacity:0.06;stroke-width:0.154961" /><text
       xml:space="preserve"
       style="font-style:normal;font-variant:normal;font-weight:normal;font-stretch:condensed;font-size:4.99999px;font-family:Arial;-inkscape-font-specification:'Arial Condensed';direction:ltr;fill:#ec7345;fill-opacity:1;stroke-width:0.0410001"
       x="25.814516"
       y="125.52419"
       id="text35950"><tspan
         sodipodi:role="line"
         id="tspan35948"
         style="stroke-width:0.041"
         x="25.814516"
         y="125.52419" /><tspan
         sodipodi:role="line"
         style="stroke-width:0.041"
         id="tspan35952"
         x="25.814516"
         y="131.77419" /></text><text
       xml:space="preserve"
       transform="scale(0.26458333)"
       id="text11595"
       style="font-style:normal;font-variant:normal;font-weight:normal;font-stretch:condensed;font-size:11.3386px;font-family:Arial;-inkscape-font-specification:'Arial Condensed';white-space:pre;shape-inside:url(#rect11597);display:inline;fill:#3d8c95;fill-opacity:0.06;stroke-width:0.154961" /><text
       xml:space="preserve"
       transform="scale(0.26458333)"
       id="text11851"
       style="font-style:normal;font-variant:normal;font-weight:normal;font-stretch:condensed;font-size:11.3386px;font-family:Arial;-inkscape-font-specification:'Arial Condensed';white-space:pre;shape-inside:url(#rect11853);display:inline;fill:#225675;fill-opacity:1;stroke-width:0.154961" /><text
       xml:space="preserve"
       style="font-style:normal;font-variant:normal;font-weight:normal;font-stretch:normal;font-size:4.02069px;font-family:Arial;-inkscape-font-specification:Arial;text-decoration:underline;text-decoration-line:underline;fill:#000000;fill-opacity:1;stroke-width:0.0507227"
       x="2.7684264"
       y="34.112896"
       id="text12042"
       transform="scale(0.87312521,1.1453111)"><tspan
         sodipodi:role="line"
         id="tspan12040"
         style="font-style:normal;font-variant:normal;font-weight:bold;font-stretch:normal;font-size:4.02069px;font-family:'Bradley Hand ITC';-inkscape-font-specification:'Bradley Hand ITC Bold';fill:#000000;fill-opacity:1;stroke-width:0.0507226"
         x="2.7684264"
         y="34.112896" /></text><text
       xml:space="preserve"
       style="font-style:normal;font-variant:normal;font-weight:normal;font-stretch:normal;font-size:4.02069px;font-family:Arial;-inkscape-font-specification:Arial;text-decoration:underline;text-decoration-line:underline;fill:#000000;fill-opacity:1;stroke-width:0.0507227"
       x="16.154127"
       y="219.12103"
       id="text12042-9"
       transform="scale(0.87312521,1.1453111)"><tspan
         sodipodi:role="line"
         id="tspan12040-1"
         style="font-style:normal;font-variant:normal;font-weight:bold;font-stretch:normal;font-size:4.02069px;font-family:'Bradley Hand ITC';-inkscape-font-specification:'Bradley Hand ITC Bold';fill:#000000;fill-opacity:1;stroke-width:0.0507226"
         x="16.154127"
         y="219.12103" /></text><text
       xml:space="preserve"
       style="font-style:normal;font-variant:normal;font-weight:normal;font-stretch:normal;font-size:4.02069px;font-family:Arial;-inkscape-font-specification:Arial;text-decoration:underline;text-decoration-line:underline;fill:#000000;fill-opacity:1;stroke-width:0.0507227"
       x="20.325136"
       y="186.29318"
       id="text12042-0"
       transform="scale(0.87312521,1.1453111)"><tspan
         sodipodi:role="line"
         id="tspan12040-7"
         style="font-style:normal;font-variant:normal;font-weight:bold;font-stretch:normal;font-size:4.02069px;font-family:'Bradley Hand ITC';-inkscape-font-specification:'Bradley Hand ITC Bold';fill:#000000;fill-opacity:1;stroke-width:0.0507226"
         x="20.325136"
         y="186.29318" /></text><g
       style="font-style:normal;font-variant:normal;font-weight:normal;font-stretch:normal;font-size:200px;line-height:125%;font-family:'Palatino Linotype';-inkscape-font-specification:'Palatino Linotype';letter-spacing:0px;word-spacing:0px;fill:#000000;fill-opacity:1;stroke:none"
       id="text2989"
       transform="matrix(0.26458333,0,0,0.26458333,-43.667913,68.827343)" /><path
       style="fill:#3b77a8;fill-opacity:1;stroke-width:0.0410001"
       d="m 24.437617,252.11526 -3.763633,-0.37637"
       id="path18532" /><text
       xml:space="preserve"
       style="font-weight:bold;font-stretch:condensed;font-size:3.25001px;font-family:Arial;-inkscape-font-specification:'Arial Bold Condensed';fill:#3b77a8;fill-opacity:1;stroke-width:0.0410001"
       x="2.6345429"
       y="266.08884"
       id="text19405"><tspan
         sodipodi:role="line"
         id="tspan19403"
         style="stroke-width:0.041"
         x="2.6345429"
         y="266.08884" /></text><g
       id="g88810"
       transform="translate(0.6985151,-0.50307527)"><g
         style="font-style:normal;font-variant:normal;font-weight:normal;font-stretch:normal;font-size:200px;line-height:125%;font-family:'Palatino Linotype';-inkscape-font-specification:'Palatino Linotype';text-align:start;letter-spacing:0px;word-spacing:0px;writing-mode:lr-tb;text-anchor:start;fill:#2d5ea8;fill-opacity:1;stroke:none"
         id="text2985-5"
         transform="matrix(0.06056138,0,0,0.05031435,33.302922,19.725133)"><path
           d="m 318.28125,282.84375 c -2.08341,1.3e-4 -5.44017,0.0574 -10.0625,0.1875 -12.50005,0.45587 -22.42452,0.68764 -29.78125,0.6875 -6.64065,1.4e-4 -15.92971,-0.26028 -27.84375,-0.78125 l -0.78125,0.6875 v 4.875 l 0.78125,0.6875 c 6.90103,0.26055 11.24217,0.63815 13,1.09375 1.75779,0.45586 2.94399,1.03399 3.5625,1.75 0.61847,0.71628 1.08201,2.13294 1.375,4.28125 0.29294,2.14856 0.46615,6.95324 0.53125,14.375 l 0.1875,19.03125 v 45.21875 l -0.0937,20.59375 c -0.0651,6.96616 -0.32684,11.48179 -0.75,13.5 -0.4232,2.01824 -0.97268,3.31902 -1.65625,3.9375 -0.68362,0.6185 -2.01304,1.14063 -4.03125,1.53125 -2.01824,0.39063 -6.07033,0.70834 -12.125,0.96875 l -0.78125,0.59375 v 4.875 l 0.78125,0.78125 c 16.60154,-0.52083 25.91924,-0.78125 27.9375,-0.78125 2.60414,0 6.22131,0.0573 10.84375,0.1875 11.13276,0.39062 16.86192,0.59375 17.1875,0.59375 l 0.78125,-0.78125 v -4.875 l -0.78125,-0.59375 c -6.9011,-0.26041 -11.24224,-0.63672 -13,-1.125 -1.75786,-0.48828 -2.94405,-1.09635 -3.5625,-1.8125 -0.61853,-0.71614 -1.08077,-2.1328 -1.40625,-4.28125 -0.32557,-2.14842 -0.52865,-6.92446 -0.59375,-14.28125 l -0.0937,-19.03125 v -45.21875 c -4e-5,-22.98166 0.49214,-35.19258 1.46875,-36.625 6.05464,-1.88789 12.4765,-2.81237 19.3125,-2.8125 9.76555,1.3e-4 17.52076,2.19935 23.25,6.59375 5.72908,4.39465 8.59366,10.87511 8.59375,19.46875 -9e-5,9.57041 -3.18238,17.06519 -9.5625,22.46875 -6.38029,5.40372 -15.2058,8.09382 -26.46875,8.09375 -1.88808,7e-5 -4.52089,-0.0859 -7.90625,-0.28125 l -0.96875,3.03125 c 11.71869,13.34641 23.17701,27.81255 34.375,43.4375 9.18651,12.84885 15.95732,21.96162 20.46875,27.53125 l 3.0625,5.125 -26.65625,37.46875 c -6.83596,9.50523 -11.43752,15.75653 -13.78125,18.71875 -2.34377,2.96225 -4.25262,4.81381 -5.75,5.5625 -1.49741,0.7487 -4.45053,1.15365 -8.8125,1.21875 L 297.75,489.5 v 4.6875 l 0.875,0.875 c 4.10155,-0.26042 7.40103,-0.375 9.875,-0.375 2.40883,0 5.73696,0.11458 9.96875,0.375 12.69528,-21.28904 23.71871,-38.39059 33.09375,-51.28125 l 7.125,-9.84375 29.6875,43.84375 c 3.32022,5.72918 6.9374,11.48698 10.84375,17.28125 6.70562,-0.26042 11.71082,-0.375 15.03125,-0.375 2.53894,0 6.90873,0.11458 13.09375,0.375 l 0.78125,-0.78125 V 489.5 l -0.78125,-0.78125 c -4.16679,-0.0651 -6.82824,-0.35547 -8,-0.84375 -1.17199,-0.48828 -2.73579,-1.96223 -4.65625,-4.46875 -1.92069,-2.5065 -4.43761,-6.29685 -7.5625,-11.375 L 370.59375,419.3125 c -0.0745,-0.35621 -0.21081,-0.71075 -0.375,-1.09375 L 377.34375,408.75 395.5,384.125 c 6.5103,-8.78894 10.8215,-14.28633 12.9375,-16.5 2.11577,-2.21341 3.85275,-3.60273 5.1875,-4.15625 1.33451,-0.55325 4.05456,-0.92956 8.15625,-1.125 l 0.78125,-0.78125 v -4.375 l -0.78125,-0.90625 c -5.53398,0.19547 -8.57304,0.31264 -9.09375,0.3125 -1.172,1.4e-4 -4.49751,-0.11705 -10.03125,-0.3125 l -37.3125,54.75 c -1.46152,-1.87128 -3.53556,-4.88231 -6.75,-9.09375 -5.14334,-6.73825 -9.94541,-13.13278 -14.4375,-19.1875 l -13.875,-18.34375 c -4.75269,-6.24994 -8.05216,-10.64837 -9.875,-13.1875 9.83064,-1.88795 17.5572,-4.72519 23.15625,-8.46875 5.59885,-3.74341 9.82281,-8.22648 12.6875,-13.5 2.86447,-5.27335 4.31239,-10.65614 4.3125,-16.125 -1.1e-4,-8.203 -2.92198,-15.29154 -8.78125,-21.28125 -5.85947,-5.98945 -17.02874,-8.99987 -33.5,-9 z"
           id="path2997-8"
           inkscape:connector-curvature="0"
           style="fill:#2d5ea8;fill-opacity:1" /></g><path
         sodipodi:type="star"
         style="fill:url(#linearGradient14073-6);fill-opacity:1;stroke-width:0.0410001"
         id="path11619-9-1"
         inkscape:flatsided="true"
         sodipodi:sides="3"
         sodipodi:cx="6.3870964"
         sodipodi:cy="183.2742"
         sodipodi:r1="24.561529"
         sodipodi:r2="12.280765"
         sodipodi:arg1="1.0068372"
         sodipodi:arg2="2.0540347"
         inkscape:rounded="2.5326963e-16"
         inkscape:randomized="3.469447e-18"
         d="M 19.516128,204.03226 -18.154431,184.26524 17.799592,161.52509 Z"
         inkscape:transform-center-x="5.824972"
         inkscape:transform-center-y="0.012495096"
         transform="matrix(0.95178157,-0.04387691,-0.03621947,-1.1117616,198.31211,228.36312)" /><text
         xml:space="preserve"
         style="font-style:normal;font-variant:normal;font-weight:normal;font-stretch:normal;font-size:14.4818px;font-family:Arial;-inkscape-font-specification:Arial;text-align:end;text-anchor:end;fill:#2d5ea8;fill-opacity:1;stroke-width:0.19792"
         x="196.97052"
         y="15.352886"
         id="text2036-3"
         transform="scale(1.0377285,0.96364318)"><tspan
           sodipodi:role="line"
           style="font-style:normal;font-variant:normal;font-weight:normal;font-stretch:normal;font-family:'EngraversGothic BT';-inkscape-font-specification:'EngraversGothic BT';text-align:end;text-anchor:end;fill:#2d5ea8;fill-opacity:1;stroke-width:0.19792"
           x="196.97052"
           y="15.352886"
           id="tspan24231-9">EVOLVE SKIN CLINIC</tspan></text><text
         xml:space="preserve"
         style="font-style:normal;font-variant:normal;font-weight:normal;font-stretch:condensed;font-size:8.45139px;font-family:Arial;-inkscape-font-specification:'Arial Condensed';letter-spacing:0.221378px;fill:#0f91f5;fill-opacity:1;stroke-width:0.115503"
         x="96.37632"
         y="22.658083"
         id="text2040-4"
         transform="scale(0.98921997,1.0108975)"><tspan
           sodipodi:role="line"
           id="tspan2038-2"
           style="font-style:normal;font-variant:normal;font-weight:normal;font-stretch:normal;font-family:'EngraversGothic BT';-inkscape-font-specification:'EngraversGothic BT';fill:#0f91f5;fill-opacity:1;stroke-width:0.115503"
           x="96.37632"
           y="22.658083">DR. JIGISHA NANAVATI SHAH</tspan></text><text
         xml:space="preserve"
         style="font-style:normal;font-variant:normal;font-weight:normal;font-stretch:normal;font-size:3.20729px;font-family:Arial;-inkscape-font-specification:Arial;fill:#777b97;fill-opacity:1;stroke-width:0.043833"
         x="90.015312"
         y="29.615774"
         id="text2094-0"
         transform="scale(1.0690953,0.9353703)"><tspan
           sodipodi:role="line"
           style="font-style:normal;font-variant:normal;font-weight:normal;font-stretch:normal;font-family:Arial;-inkscape-font-specification:Arial;fill:#777b97;fill-opacity:1;stroke-width:0.0438329"
           x="90.015312"
           y="29.615774"
           id="tspan2098-3">B.H.M.S (MUMBAI) ,P.G.D.E.M.S (MUMBAI), P.G.D.C.C (AUSTRALIA)</tspan></text><text
         xml:space="preserve"
         style="font-style:normal;font-variant:normal;font-weight:normal;font-stretch:normal;font-size:2.5px;font-family:Arial;-inkscape-font-specification:Arial;letter-spacing:0.15875px;fill:#777b97;fill-opacity:1;stroke-width:0.0589505"
         x="239.30818"
         y="31.056704"
         id="text6489-5"
         transform="scale(0.85242779,1.1731199)"><tspan
           sodipodi:role="line"
           id="tspan6487-3"
           style="font-style:normal;font-variant:normal;font-weight:normal;font-stretch:normal;font-size:2.5px;font-family:Arial;-inkscape-font-specification:Arial;text-align:end;text-anchor:end;fill:#777b97;fill-opacity:1;stroke-width:0.0589504"
           x="239.30818"
           y="31.056704">FAMILY PHYSICIAN</tspan><tspan
           sodipodi:role="line"
           style="font-style:normal;font-variant:normal;font-weight:normal;font-stretch:normal;font-size:2.5px;font-family:Arial;-inkscape-font-specification:Arial;text-align:end;text-anchor:end;fill:#777b97;fill-opacity:1;stroke-width:0.0589504"
           x="239.30818"
           y="34.181702"
           id="tspan6491-0">COSMETIC SKIN SPECIALIST</tspan><tspan
           sodipodi:role="line"
           style="font-style:normal;font-variant:normal;font-weight:normal;font-stretch:normal;font-size:2.5px;font-family:Arial;-inkscape-font-specification:Arial;text-align:end;text-anchor:end;fill:#777b97;fill-opacity:1;stroke-width:0.0589504"
           x="239.30818"
           y="37.306702"
           id="tspan29906-3">FEMALE PROBLEM SPECIALIST</tspan><tspan
           sodipodi:role="line"
           style="font-style:normal;font-variant:normal;font-weight:normal;font-stretch:normal;font-size:2.5px;font-family:Arial;-inkscape-font-specification:Arial;text-align:end;text-anchor:end;fill:#777b97;fill-opacity:1;stroke-width:0.0589504"
           x="239.30818"
           y="40.431702"
           id="tspan29908-1">VACCINATION</tspan><tspan
           sodipodi:role="line"
           style="font-style:normal;font-variant:normal;font-weight:normal;font-stretch:normal;font-size:2.5px;font-family:Arial;-inkscape-font-specification:Arial;text-align:end;text-anchor:end;fill:#777b97;fill-opacity:1;stroke-width:0.0589504"
           x="239.30818"
           y="43.556702"
           id="tspan24226-9" /></text><rect
         style="opacity:0.4;fill:#0f91f5;fill-opacity:1;stroke-width:0.012715"
         id="rect65084"
         width="115.68323"
         height="0.046999998"
         x="88.131706"
         y="31.038109" /></g><g
       id="g89663"
       transform="translate(0.16757732,-0.6990288)"><path
         sodipodi:type="star"
         style="fill:url(#linearGradient14073);fill-opacity:1;stroke-width:0.0410001"
         id="path11619-9"
         inkscape:flatsided="true"
         sodipodi:sides="3"
         sodipodi:cx="6.3870964"
         sodipodi:cy="183.2742"
         sodipodi:r1="24.561529"
         sodipodi:r2="12.280765"
         sodipodi:arg1="1.0068372"
         sodipodi:arg2="2.0540347"
         inkscape:rounded="2.5326963e-16"
         inkscape:randomized="3.469447e-18"
         d="M 19.516128,204.03226 -18.154431,184.26524 17.799592,161.52509 Z"
         inkscape:transform-center-x="3.2520326"
         inkscape:transform-center-y="0.0077022385"
         transform="matrix(0.53137149,-0.02702942,-0.02022102,-0.68487668,203.59571,408.8358)" /><text
         xml:space="preserve"
         transform="matrix(1.0692265,0,0,1.4255013,-15.098249,-99.077686)"
         style="font-style:normal;font-variant:normal;font-weight:normal;font-stretch:normal;font-size:2.54616px;font-family:Arial;-inkscape-font-specification:Arial;writing-mode:lr-tb;white-space:pre;inline-size:151.984;display:inline;fill:#777b97;fill-opacity:1;fill-rule:nonzero;stroke:none;stroke-width:0.036541"
         id="text756"
         x="53.589008"
         y="272.14896"><tspan
           x="53.589008"
           y="272.14896"
           id="tspan111534"><tspan
             style="font-family:'EngraversGothic BT';-inkscape-font-specification:'EngraversGothic BT'"
             id="tspan111532">SHOP NO 5, INDRAPRASTH 3, OPP ASHOKA HOSPITAL BUS STOP, RAHEJA TOWNSHIP, JITENDRA ROAD, MALAD EAST, MUMBAI 400097. </tspan></tspan><tspan
           x="53.589008"
           y="275.37238"
           id="tspan111538"><tspan
             style="font-family:'EngraversGothic BT';-inkscape-font-specification:'EngraversGothic BT'"
             id="tspan111536">PHONE 9969028110</tspan></tspan></text><rect
         style="opacity:0.4;fill:#0f91f5;fill-opacity:1;stroke-width:0.0163117"
         id="rect65084-8"
         width="190.38846"
         height="0.046999998"
         x="-0.15889651"
         y="283.11121" /></g></g></svg>
